<?xml version="1.0" standalone="no"?>
<!DOCTYPE svg PUBLIC "-//W3C//DTD SVG 1.1//EN" "http://www.w3.org/Graphics/SVG/1.1/DTD/svg11.dtd" >
<svg xmlns="http://www.w3.org/2000/svg" xmlns:xlink="http://www.w3.org/1999/xlink" version="1.1">
<metadata>
Created by FontForge 20161003 at Thu Jan  3 21:33:45 2019
 By www-data
Copyright (c) 2015 Indian Type Foundry (info@indiantypefoundry.com)
</metadata>
<defs>
<font id="HindGuntur-Light" horiz-adv-x="0" >
  <font-face 
    font-family="Hind Guntur Light"
    font-weight="300"
    font-stretch="normal"
    units-per-em="1000"
    panose-1="2 0 0 0 0 0 0 0 0 0"
    ascent="800"
    descent="-200"
    x-height="507"
    cap-height="674"
    bbox="-580 -658 1831 1027"
    underline-thickness="50"
    underline-position="-150"
    unicode-range="U+0020-FB02"
  />
<missing-glyph horiz-adv-x="750" 
d="M570 0h-390v701h390v-701zM234 651v-601h282v601h-282z" />
    <glyph glyph-name=".notdef" horiz-adv-x="750" 
d="M570 0h-390v701h390v-701zM234 651v-601h282v601h-282z" />
    <glyph glyph-name=".null" 
 />
    <glyph glyph-name="nonmarkingreturn" horiz-adv-x="333" 
 />
    <glyph glyph-name="space" unicode=" " horiz-adv-x="242" 
 />
    <glyph glyph-name="exclam" unicode="!" horiz-adv-x="241" 
d="M151 196h-61v478h61v-478zM171 42q0 -22 -15 -36t-37 -14t-36 14t-14 36q0 21 14.5 36t35.5 15q22 0 37 -15t15 -36z" />
    <glyph glyph-name="quotedbl" unicode="&#x22;" horiz-adv-x="271" 
d="M226 451h-57v230h57v-230zM102 451h-57v230h57v-230z" />
    <glyph glyph-name="numbersign" unicode="#" horiz-adv-x="697" 
d="M436 0h-59l37 174h-190l-37 -174h-57l36 174h-111v51h122l47 224h-110v51h121l36 174h59l-37 -174h190l37 174h57l-36 -174h101v-51h-112l-47 -224h102v-51h-113zM425 225l47 224h-190l-47 -224h190z" />
    <glyph glyph-name="dollar" unicode="$" horiz-adv-x="502" 
d="M255 -107h-55v102q-79 6 -140 42v69q30 -23 77.5 -38t96.5 -15q71 0 110.5 31t39.5 89q0 27 -11.5 48.5t-34 37t-46 27t-56.5 25.5q-3 1 -5 2t-5 2t-5 2q-37 16 -60.5 29t-50 35t-39.5 51.5t-13 67.5q0 81 55.5 128t137.5 52v101h55v-103q61 -7 102 -28v-69
q-24 16 -63 27t-76 11q-67 0 -107 -31.5t-40 -83.5q0 -27 11.5 -48.5t33.5 -37t45.5 -27.5t55.5 -26q11 -4 17 -7q37 -16 60.5 -29.5t49.5 -35t39 -51.5t13 -68q0 -83 -53.5 -129.5t-138.5 -51.5v-100z" />
    <glyph glyph-name="percent" unicode="%" horiz-adv-x="814" 
d="M261 -1h-61l352 655h62zM350 510q0 -62 -44 -106t-106 -44t-106 44t-44 106t44 106t106 44t106 -44t44 -106zM106 510q0 -39 27.5 -66.5t66.5 -27.5t66.5 27.5t27.5 66.5t-27.5 66.5t-66.5 27.5t-66.5 -27.5t-27.5 -66.5zM764 143q0 -62 -44 -106t-106 -44t-106 44
t-44 106t44 106t106 44t106 -44.5t44 -105.5zM520 143q0 -39 27.5 -66.5t66.5 -27.5t66.5 27.5t27.5 66.5t-27.5 66.5t-66.5 27.5t-66.5 -27.5t-27.5 -66.5z" />
    <glyph glyph-name="ampersand" unicode="&#x26;" horiz-adv-x="693" 
d="M199 527q0 -34 17 -66t70 -87q75 34 109.5 68t34.5 81q0 45 -30.5 76.5t-87.5 31.5q-50 0 -81.5 -27.5t-31.5 -76.5zM692 0h-88l-77 71q-79 -79 -215 -79q-107 0 -175 50.5t-68 131.5q0 59 41 100t120 74q-53 56 -74.5 96t-21.5 84q0 72 48.5 117.5t131.5 45.5
q79 0 129.5 -49.5t50.5 -119.5q0 -58 -38 -104.5t-127 -84.5l190 -174q24 42 30 100h61q-10 -83 -46 -141zM309 52q108 0 173 60l-210 195q-70 -30 -104.5 -59t-34.5 -74q0 -56 49.5 -89t126.5 -33z" />
    <glyph glyph-name="quotesingle" unicode="'" horiz-adv-x="147" 
d="M102 451h-57v230h57v-230z" />
    <glyph glyph-name="parenleft" unicode="(" horiz-adv-x="303" 
d="M310 -196h-70q-160 204 -160 458q0 119 41 236t111 209h71q-158 -217 -158 -450q0 -236 165 -453z" />
    <glyph glyph-name="parenright" unicode=")" horiz-adv-x="303" 
d="M63 -196h-70q165 217 165 453q0 233 -158 450h71q70 -92 111 -209t41 -236q0 -254 -160 -458z" />
    <glyph glyph-name="asterisk" unicode="*" horiz-adv-x="381" 
d="M305 398l-40 -30l-57 78q-15 20 -18 39q-2 -19 -17 -40l-57 -77l-41 29l57 78q15 21 32 29q-4 -1 -13 -1q-16 0 -31 5l-91 30l15 48l92 -30q25 -9 37 -21q-9 20 -9 43v96h50v-96q0 -24 -7 -41q14 14 36 21l92 29l16 -47l-92 -31q-15 -5 -33 -5h-8q16 -7 31 -28z" />
    <glyph glyph-name="plus" unicode="+" horiz-adv-x="544" 
d="M484 312h-188v-192h-57v192h-179v56h179v192h57v-192h188v-56z" />
    <glyph glyph-name="comma" unicode="," horiz-adv-x="207" 
d="M46 -122h-54l91 214h90z" />
    <glyph glyph-name="hyphen" unicode="-" horiz-adv-x="345" 
d="M285 243h-225v55h225v-55z" />
    <glyph glyph-name="period" unicode="." horiz-adv-x="142" 
d="M122 43q0 -22 -14.5 -36.5t-36.5 -14.5t-36.5 14.5t-14.5 36.5t14.5 36.5t36.5 14.5t36.5 -14.5t14.5 -36.5z" />
    <glyph glyph-name="slash" unicode="/" horiz-adv-x="387" 
d="M50 -102h-61l366 809h62z" />
    <glyph glyph-name="zero" unicode="0" horiz-adv-x="543" 
d="M498 329q0 -152 -60 -244.5t-169 -92.5q-100 0 -162 92.5t-62 244.5t63 241.5t161 89.5q102 0 165.5 -89t63.5 -242zM108 329q0 -130 47 -203.5t114 -73.5q75 0 120.5 72t45.5 205q0 131 -47.5 201t-118.5 70q-64 0 -112.5 -71t-48.5 -200z" />
    <glyph glyph-name="one" unicode="1" horiz-adv-x="308" 
d="M228 0h-61v587l-147 -92v69l147 90h61v-654z" />
    <glyph glyph-name="two" unicode="2" horiz-adv-x="492" 
d="M447 0h-407v55q320 245 320 408q0 68 -38.5 103.5t-103.5 35.5q-75 0 -154 -58v62q68 54 156 54q84 0 144 -50.5t60 -143.5q0 -174 -297 -411h320v-55z" />
    <glyph glyph-name="three" unicode="3" horiz-adv-x="461" 
d="M406 180q0 -80 -54 -133t-153 -53q-90 0 -159 33v62q71 -37 160 -37q67 0 105 36t38 94q0 59 -42 90t-115 31h-44v55h44q56 0 96 34.5t40 92.5t-35.5 87.5t-97.5 29.5q-70 0 -131 -40v62q54 36 130 36q96 0 147 -49t51 -120q0 -114 -104 -159q56 -13 90 -53t34 -99z" />
    <glyph glyph-name="four" unicode="4" horiz-adv-x="534" 
d="M108 219h240v400zM408 0h-60v164h-303v55l262 435h101v-435h101v-55h-101v-164z" />
    <glyph glyph-name="five" unicode="5" horiz-adv-x="512" 
d="M462 200q0 -96 -62 -152t-169 -56q-96 0 -166 33v62q64 -37 156 -37q177 0 177 153q0 63 -42 97t-106 34q-73 0 -152 -35v355h318v-55h-256v-218q49 11 87 11q97 0 156 -52t59 -140z" />
    <glyph glyph-name="six" unicode="6" horiz-adv-x="523" 
d="M484 213q0 -100 -55 -160.5t-144 -60.5q-109 0 -168.5 84t-59.5 219q0 105 31.5 189.5t99.5 137.5t162 53q47 0 89 -15v-62q-41 19 -90 19q-100 0 -159 -77t-70 -192q32 34 78 53.5t92 19.5q91 0 142.5 -57t51.5 -151zM285 49q62 0 98.5 46t36.5 120q0 68 -36.5 108
t-94.5 40q-50 0 -96 -22.5t-76 -56.5q3 -115 49 -175t119 -60z" />
    <glyph glyph-name="seven" unicode="7" horiz-adv-x="443" 
d="M158 0h-66l276 599h-358v55h423v-55z" />
    <glyph glyph-name="eight" unicode="8" horiz-adv-x="533" 
d="M478 167q0 -79 -62 -127t-153 -48q-87 0 -147.5 46.5t-60.5 123.5q0 62 34.5 104t93.5 59q-55 17 -86 57.5t-31 96.5q0 85 59.5 133t137.5 48q80 0 139 -47.5t59 -135.5q0 -53 -30.5 -93t-84.5 -57q62 -16 97 -56t35 -104zM118 166q0 -49 38 -82.5t108 -33.5
q73 0 112 36.5t39 89.5q0 51 -37.5 86.5t-113.5 34.5q-73 -1 -109.5 -38.5t-36.5 -92.5zM129 479q0 -62 38.5 -93t99.5 -31q58 0 94.5 33t36.5 93q0 52 -35.5 86.5t-99.5 34.5q-61 0 -97.5 -35.5t-36.5 -87.5z" />
    <glyph glyph-name="nine" unicode="9" horiz-adv-x="496" 
d="M251 293q87 0 141 68v19q0 43 -7 80t-23 71t-47.5 53.5t-74.5 19.5q-62 0 -99 -41.5t-37 -112.5q0 -76 39.5 -116.5t107.5 -40.5zM452 380q0 -179 -67.5 -283.5t-209.5 -104.5q-58 0 -112 19v62q53 -23 112 -23q189 0 213 248q-52 -62 -152 -62q-78 0 -137 58.5
t-59 155.5q0 91 53.5 151.5t145.5 60.5q108 0 160.5 -81t52.5 -201z" />
    <glyph glyph-name="colon" unicode=":" horiz-adv-x="222" 
d="M162 369q0 -22 -15 -36t-37 -14t-36 14t-14 36q0 21 14.5 36t35.5 15q22 0 37 -15t15 -36zM162 49q0 -22 -15 -36t-37 -14t-36 14t-14 36q0 21 14.5 36t35.5 15q22 0 37 -15t15 -36z" />
    <glyph glyph-name="semicolon" unicode=";" horiz-adv-x="207" 
d="M46 -122h-54l91 214h90zM171 368q0 -22 -15 -36t-37 -14t-36 14t-14 36q0 21 14.5 36t35.5 15q22 0 37 -15t15 -36z" />
    <glyph glyph-name="less" unicode="&#x3c;" horiz-adv-x="510" 
d="M460 185v-65l-400 191v60l400 191v-65l-333 -155z" />
    <glyph glyph-name="equal" unicode="=" horiz-adv-x="544" 
d="M484 410h-424v55h424v-55zM484 215h-424v56h424v-56z" />
    <glyph glyph-name="greater" unicode="&#x3e;" horiz-adv-x="510" 
d="M450 311l-400 -191v65l333 157l-333 155v65l400 -191v-60z" />
    <glyph glyph-name="question" unicode="?" horiz-adv-x="450" 
d="M205 196h-61v170q94 0 148 33.5t54 100.5q0 55 -36 89.5t-108 34.5q-82 0 -162 -51v65q27 18 71.5 31t89.5 13q96 0 152.5 -48t56.5 -135q0 -85 -59.5 -132t-145.5 -55v-116zM225 42q0 -22 -15 -36t-37 -14t-36 14t-14 36q0 21 14.5 36t35.5 15q22 0 37 -15t15 -36z" />
    <glyph glyph-name="at" unicode="@" horiz-adv-x="886" 
d="M570 -123q-60 -32 -170 -32q-154 0 -244.5 97.5t-90.5 252.5q0 174 122 288t297 114q149 0 250.5 -92t101.5 -245q0 -114 -52.5 -174t-117.5 -60q-86 0 -109 80q-55 -83 -146 -83q-72 0 -113.5 50t-41.5 126q0 86 54 147t136 61q80 0 118 -62q1 23 3 56h53l-18 -169
q-3 -28 -3 -55q0 -100 71 -100q46 0 77.5 51t31.5 129q0 134 -84 210.5t-213 76.5q-141 0 -248 -98.5t-107 -249.5q0 -143 80.5 -219.5t194.5 -76.5q101 0 172 42zM416 77q42 0 80 29t56 81q0 13 4 55q-8 54 -34 82t-79 28q-56 0 -91 -46.5t-35 -110.5q0 -53 27 -85.5
t72 -32.5z" />
    <glyph glyph-name="A" unicode="A" horiz-adv-x="637" 
d="M204 284l-15 -42h261l-15 43l-114 337q-13 -40 -117 -338zM105 0h-67l238 674h90l233 -674h-67l-64 187h-298z" />
    <glyph glyph-name="B" unicode="B" horiz-adv-x="562" 
d="M314 0h-234v674h188q102 0 165.5 -46.5t63.5 -128.5q0 -60 -33.5 -102.5t-86.5 -53.5q57 -7 98.5 -49t41.5 -115q0 -81 -52.5 -130t-150.5 -49zM275 619h-133v-251h121q87 0 128 37.5t41 95.5q0 50 -39.5 84t-117.5 34zM295 313h-153v-258h172q65 0 101.5 32.5t36.5 93.5
q0 63 -41.5 97.5t-115.5 34.5z" />
    <glyph glyph-name="C" unicode="C" horiz-adv-x="599" 
d="M559 35q-61 -43 -168 -43q-153 0 -247 93t-94 256q0 152 97 247t240 95q99 0 170 -36v-65q-44 23 -78 32.5t-94 9.5q-116 0 -193.5 -78.5t-77.5 -204.5q0 -132 76.5 -211t203.5 -79q99 0 165 52v-68z" />
    <glyph glyph-name="D" unicode="D" horiz-adv-x="655" 
d="M277 0h-197v674h192q148 0 243 -92t95 -241q0 -91 -35 -166.5t-112.5 -125t-185.5 -49.5zM272 617h-130v-560h135q69 0 122 24t84 65t46.5 90t15.5 105q0 115 -76.5 195.5t-196.5 80.5z" />
    <glyph glyph-name="E" unicode="E" horiz-adv-x="490" 
d="M445 0h-365v674h359v-57h-297v-252h262v-57h-262v-251h303v-57z" />
    <glyph glyph-name="F" unicode="F" horiz-adv-x="484" 
d="M404 303h-262v-303h-62v674h359v-57h-297v-257h262v-57z" />
    <glyph glyph-name="G" unicode="G" horiz-adv-x="661" 
d="M591 50q-79 -58 -200 -58q-154 0 -247.5 92.5t-93.5 253.5q0 152 91.5 250t231.5 98q119 0 196 -47v-69q-77 54 -188 54q-118 0 -192.5 -78.5t-74.5 -207.5q0 -133 74 -208.5t204 -75.5q77 0 137 31v231h-159v55h221v-321z" />
    <glyph glyph-name="H" unicode="H" horiz-adv-x="632" 
d="M552 0h-62v315h-348v-315h-62v674h62v-302h348v302h62v-674z" />
    <glyph glyph-name="I" unicode="I" horiz-adv-x="232" 
d="M147 0h-62v674h62v-674z" />
    <glyph glyph-name="J" unicode="J" horiz-adv-x="349" 
d="M269 165q0 -165 -147 -165q-54 0 -92 23v63q40 -27 86 -27q91 0 91 96v519h62v-509z" />
    <glyph glyph-name="K" unicode="K" horiz-adv-x="549" 
d="M519 0h-82l-277 332l267 342h78l-266 -342zM142 0h-62v674h62v-674z" />
    <glyph glyph-name="L" unicode="L" horiz-adv-x="474" 
d="M439 0h-359v674h62v-617h297v-57z" />
    <glyph glyph-name="M" unicode="M" horiz-adv-x="848" 
d="M137 0h-62l47 674h85l88 -247l119 -343q69 190 126 343l92 247h85l57 -674h-62l-23 267l-27 326q-60 -167 -119 -326l-93 -250h-73l-88 250l-112 319q-9 -151 -21 -319z" />
    <glyph glyph-name="N" unicode="N" horiz-adv-x="667" 
d="M142 0h-62v674h85l172 -285l190 -316q-2 104 -2 315v286h62v-674h-85l-171 283l-191 318q2 -108 2 -316v-285z" />
    <glyph glyph-name="O" unicode="O" horiz-adv-x="691" 
d="M641 340q0 -160 -79 -254t-215 -94q-134 0 -215.5 95t-81.5 253q0 159 79.5 253.5t215.5 94.5q140 0 218 -93.5t78 -254.5zM114 340q0 -133 63.5 -210.5t169.5 -77.5q110 0 170 76.5t60 211.5q0 136 -60.5 212t-171.5 76q-108 0 -169.5 -76.5t-61.5 -211.5z" />
    <glyph glyph-name="P" unicode="P" horiz-adv-x="540" 
d="M253 256h-111v-256h-62v674h162q118 0 185.5 -59.5t67.5 -156.5q0 -84 -65.5 -143t-176.5 -59zM249 619h-107v-308h118q79 0 125.5 42t46.5 105q0 74 -48 117.5t-135 43.5z" />
    <glyph glyph-name="Q" unicode="Q" horiz-adv-x="701" 
d="M641 340q0 -119 -45 -203t-126 -120l198 -128l-65 -28l-202 135q-23 -4 -54 -4q-134 0 -215.5 95t-81.5 253q0 159 79.5 253.5t215.5 94.5q140 0 218 -93.5t78 -254.5zM114 340q0 -133 63.5 -210.5t169.5 -77.5q110 0 170 76.5t60 211.5q0 136 -60.5 212t-171.5 76
q-108 0 -169.5 -76.5t-61.5 -211.5z" />
    <glyph glyph-name="R" unicode="R" horiz-adv-x="531" 
d="M239 619h-97v-290h109q74 0 114 41t40 102q0 147 -166 147zM244 274h-102v-274h-62v674h152q118 0 176.5 -53.5t58.5 -151.5q-2 -68 -38 -117t-102 -67l179 -285h-74l-169 275q-6 -1 -19 -1z" />
    <glyph glyph-name="S" unicode="S" horiz-adv-x="527" 
d="M462 174q0 -88 -59 -134.5t-151 -46.5q-104 0 -177 44v69q30 -23 77.5 -38t96.5 -15q71 0 110.5 31t39.5 89q0 44 -30 71.5t-87 52.5q-8 4 -35 15.5t-38 16.5t-34 17t-33.5 21t-26.5 24t-23 30t-13 35.5t-6 43.5q0 85 61 132.5t149 47.5q84 0 140 -30v-69q-24 16 -63 27
t-76 11q-67 0 -107 -31.5t-40 -83.5q0 -27 10.5 -48t35.5 -38.5t43.5 -27t56.5 -25.5q35 -15 53 -23.5t46 -26.5t42.5 -35.5t26 -45t11.5 -60.5z" />
    <glyph glyph-name="T" unicode="T" horiz-adv-x="465" 
d="M450 617h-187v-617h-62v617h-186v57h435v-57z" />
    <glyph glyph-name="U" unicode="U" horiz-adv-x="639" 
d="M559 255q0 -130 -63 -196.5t-178 -66.5q-113 0 -175.5 65t-62.5 190v427h62v-426q0 -101 47.5 -148.5t128.5 -47.5q179 0 179 201v421h62v-419z" />
    <glyph glyph-name="V" unicode="V" horiz-adv-x="631" 
d="M354 0h-85l-229 674h67l89 -267l116 -352l120 352l92 267h67z" />
    <glyph glyph-name="W" unicode="W" horiz-adv-x="929" 
d="M300 0h-85l-175 674h65l63 -250l91 -361q67 239 103 361l70 240h73l75 -241l112 -364q55 256 79 363l56 252h62l-153 -674h-85l-67 213l-114 370q-38 -138 -107 -370z" />
    <glyph glyph-name="X" unicode="X" horiz-adv-x="600" 
d="M114 0h-72l218 340l-205 334h72l167 -278l167 278h72l-204 -334l229 -340h-72l-191 287z" />
    <glyph glyph-name="Y" unicode="Y" horiz-adv-x="580" 
d="M320 252v-252h-62v252l-228 422h71l53 -99l135 -260q8 19 137 260l53 99h71z" />
    <glyph glyph-name="Z" unicode="Z" horiz-adv-x="555" 
d="M505 0h-455v55l370 564h-366v55h436v-55l-370 -564h385v-55z" />
    <glyph glyph-name="bracketleft" unicode="[" horiz-adv-x="296" 
d="M296 -179h-216v886h216v-55h-154v-775h154v-56z" />
    <glyph glyph-name="backslash" unicode="\" horiz-adv-x="386" 
d="M398 -103h-62l-366 810h62z" />
    <glyph glyph-name="bracketright" unicode="]" horiz-adv-x="296" 
d="M216 -179h-216v56h154v775h-154v55h216v-886z" />
    <glyph glyph-name="asciicircum" unicode="^" horiz-adv-x="453" 
d="M112 332h-64l140 262h82l135 -262h-64l-113 226z" />
    <glyph glyph-name="underscore" unicode="_" horiz-adv-x="565" 
d="M535 -82h-505v55h505v-55z" />
    <glyph glyph-name="grave" unicode="`" horiz-adv-x="400" 
d="M293 648h-55l-128 150h81z" />
    <glyph glyph-name="a" unicode="a" horiz-adv-x="486" 
d="M223 51q60 0 96 33t36 84v73h-99q-71 0 -106 -27.5t-35 -68.5q0 -42 27.5 -68t80.5 -26zM355 59q-42 -64 -146 -64q-70 0 -114.5 41.5t-44.5 106.5q0 73 56.5 113.5t149.5 40.5h99v23q0 68 -29 102.5t-97 34.5q-79 0 -142 -43v66q58 35 143 35q186 0 186 -195v-320h-61
v59z" />
    <glyph glyph-name="b" unicode="b" horiz-adv-x="559" 
d="M141 0h-61v707h61v-276q56 84 155 84q96 0 157 -74.5t61 -192.5q0 -107 -57 -181.5t-159 -74.5q-104 0 -157 82v-74zM141 256q0 -111 47 -158.5t112 -47.5t107.5 55t42.5 142q0 101 -44 155.5t-112 54.5q-24 0 -48.5 -9.5t-49 -31t-40 -63t-15.5 -97.5z" />
    <glyph glyph-name="c" unicode="c" horiz-adv-x="472" 
d="M417 17q-43 -29 -111 -29q-123 0 -192 77.5t-69 186.5q0 106 70.5 185t190.5 79q62 0 111 -27v-62q-45 30 -105 30q-93 0 -148 -60.5t-55 -145.5q0 -86 53 -145t151 -59q61 0 104 32v-62z" />
    <glyph glyph-name="d" unicode="d" horiz-adv-x="555" 
d="M109 247q0 -87 42.5 -142t107.5 -55t112 47.5t47 158.5q0 56 -15.5 97.5t-40 63t-49 31t-48.5 9.5q-68 0 -112 -54.5t-44 -155.5zM479 0h-61v74q-53 -82 -157 -82q-102 0 -159 74.5t-57 181.5q0 118 61 192.5t157 74.5q99 0 155 -84v276h61v-707z" />
    <glyph glyph-name="e" unicode="e" horiz-adv-x="519" 
d="M439 25q-60 -30 -140 -30q-113 0 -183.5 70.5t-70.5 185.5q0 122 62 192t161 70q93 0 148 -61t55 -172q0 -34 -4 -54h-358q7 -84 58 -128.5t135 -44.5q86 0 137 34v-62zM266 456q-64 0 -107 -45t-50 -129h299v23q0 69 -38.5 110t-103.5 41z" />
    <glyph glyph-name="f" unicode="f" horiz-adv-x="325" 
d="M300 455h-116v-455h-61v455h-93v52h93v54q0 69 36 110t101 41q19 0 41 -6v-60q-21 8 -44 8q-30 0 -51.5 -23.5t-21.5 -70.5v-53h116v-52z" />
    <glyph glyph-name="g" unicode="g" horiz-adv-x="539" 
d="M469 39q0 -115 -62 -172.5t-160 -57.5q-87 0 -148 29v60q62 -31 143 -31q76 0 121 41.5t45 130.5v66q-51 -93 -152 -93q-88 0 -149.5 65t-61.5 176q0 114 56.5 188t148.5 74q109 0 158 -97v89h61v-468zM109 256q0 -91 46 -138.5t102 -47.5q57 0 104 44.5t47 136.5
q0 105 -45 155.5t-101 50.5q-71 0 -112 -56t-41 -145z" />
    <glyph glyph-name="h" unicode="h" horiz-adv-x="529" 
d="M459 0h-61v335q0 59 -30 90t-79 31q-62 0 -107 -47.5t-45 -128.5v-280h-61v707h61v-287q46 95 161 95q73 0 117 -45t44 -116v-354z" />
    <glyph glyph-name="i" unicode="i" horiz-adv-x="221" 
d="M141 0h-61v507h61v-507zM153 669q0 -18 -12.5 -30t-30.5 -12t-30 12t-12 30t12 30.5t30 12.5t30.5 -12.5t12.5 -30.5z" />
    <glyph glyph-name="j" unicode="j" horiz-adv-x="216" 
d="M141 -64q0 -62 -31.5 -96t-87.5 -34q-33 0 -69 14v60q35 -16 70 -16q57 0 57 74v569h61v-571zM152 669q0 -18 -12.5 -30t-30.5 -12t-30 12t-12 30t12 30.5t30 12.5t30.5 -12.5t12.5 -30.5z" />
    <glyph glyph-name="k" unicode="k" horiz-adv-x="462" 
d="M137 0h-61v707h61v-707zM226 266l214 -266h-76l-212 266l206 241h75z" />
    <glyph glyph-name="l" unicode="l" horiz-adv-x="221" 
d="M141 0h-61v707h61v-707z" />
    <glyph glyph-name="m" unicode="m" horiz-adv-x="807" 
d="M737 0h-61v335q0 121 -106 121q-52 0 -92.5 -48t-40.5 -128v-280h-61v335q0 121 -106 121q-52 0 -92.5 -48t-40.5 -128v-280h-61v507h61v-83q43 91 142 91q122 0 150 -100q47 100 150 100q80 0 119 -44.5t39 -116.5v-354z" />
    <glyph glyph-name="n" unicode="n" horiz-adv-x="529" 
d="M459 0h-61v335q0 59 -30 90t-79 31q-62 0 -107 -47.5t-45 -128.5v-280h-61v507h61v-87q47 95 161 95q73 0 117 -45t44 -116v-354z" />
    <glyph glyph-name="o" unicode="o" horiz-adv-x="561" 
d="M516 251q0 -113 -63.5 -186.5t-174.5 -73.5q-107 0 -170 74t-63 186q0 111 65 187t168 76q113 0 175.5 -74.5t62.5 -188.5zM109 251q0 -83 46.5 -142.5t122.5 -59.5q83 0 128.5 58.5t45.5 143.5q0 88 -43 146.5t-131 58.5q-79 0 -124 -60t-45 -145z" />
    <glyph glyph-name="p" unicode="p" horiz-adv-x="555" 
d="M137 -200h-61v707h61v-74q53 82 157 82q102 0 159 -74.5t57 -181.5q0 -118 -61 -192.5t-157 -74.5q-99 0 -155 84v-276zM137 251q0 -56 15.5 -97.5t40 -63t49 -31t48.5 -9.5q68 0 112 54.5t44 155.5q0 87 -42.5 142t-107.5 55t-112 -47.5t-47 -158.5z" />
    <glyph glyph-name="q" unicode="q" horiz-adv-x="555" 
d="M109 260q0 -101 44 -155.5t112 -54.5q24 0 48.5 9.5t49 31t40 63t15.5 97.5q0 111 -47 158.5t-112 47.5t-107.5 -55t-42.5 -142zM479 -200h-61v276q-56 -84 -155 -84q-96 0 -157 74.5t-61 192.5q0 107 57 181.5t159 74.5q104 0 157 -82v74h61v-707z" />
    <glyph glyph-name="r" unicode="r" horiz-adv-x="314" 
d="M137 0h-61v507h61v-86q42 92 142 92q7 0 25 -2v-62q-20 6 -40 6q-54 0 -90.5 -53.5t-36.5 -118.5v-283z" />
    <glyph glyph-name="s" unicode="s" horiz-adv-x="406" 
d="M371 130q0 -63 -43.5 -99.5t-119.5 -36.5q-92 0 -148 30v63q67 -38 144 -38q51 0 77.5 21t26.5 55q0 40 -27.5 62t-90.5 47q-61 24 -97 56t-36 88q0 61 45 97.5t113 36.5q82 0 126 -23v-61q-47 27 -127 27q-44 0 -69.5 -20.5t-25.5 -53.5q0 -20 7.5 -35t26 -27.5
t31.5 -18.5t42 -18q70 -28 107.5 -61.5t37.5 -90.5z" />
    <glyph glyph-name="t" unicode="t" horiz-adv-x="364" 
d="M319 14q-29 -19 -67 -19q-144 0 -144 148v312h-83v52h83v127h62v-127h145v-52h-145v-315q0 -87 81 -87q40 0 68 23v-62z" />
    <glyph glyph-name="u" unicode="u" horiz-adv-x="529" 
d="M453 0h-61v91q-40 -98 -161 -98q-74 0 -117.5 44.5t-43.5 117.5v352h61v-335q0 -58 30.5 -89t80.5 -31q67 0 108.5 48t41.5 125v282h61v-507z" />
    <glyph glyph-name="v" unicode="v" horiz-adv-x="497" 
d="M287 0h-82l-175 507h64l71 -213l81 -245q10 37 83 245l74 213h64z" />
    <glyph glyph-name="w" unicode="w" horiz-adv-x="788" 
d="M267 0h-82l-155 507h67l50 -168q28 -94 47.5 -163.5t25.5 -91.5l5 -23q18 65 80 279l48 167h72l50 -167l82 -281q16 59 85 281l52 167h64l-160 -507h-82l-49 166l-78 270q-17 -63 -75 -270z" />
    <glyph glyph-name="x" unicode="x" horiz-adv-x="465" 
d="M96 0h-69l167 261l-157 247h72l124 -200l123 200h71l-159 -248l170 -260h-73l-133 213z" />
    <glyph glyph-name="y" unicode="y" horiz-adv-x="482" 
d="M279 13q-38 -103 -90 -142t-118 -39q-20 0 -38 5v60q18 -5 34 -5q107 0 149 122l-207 493h70l69 -170l98 -244q7 23 87 244l62 170h68z" />
    <glyph glyph-name="z" unicode="z" horiz-adv-x="446" 
d="M401 0h-356v51l266 397h-256v59h332v-46l-270 -401h284v-60z" />
    <glyph glyph-name="braceleft" unicode="{" horiz-adv-x="322" 
d="M312 -178q-20 -7 -42 -7q-51 0 -86.5 38t-35.5 103q0 28 11.5 77.5t11.5 73.5q0 103 -89 125q-8 2 -32 2v61q21 0 32 2q44 8 66.5 41.5t22.5 81.5q0 24 -11.5 73.5t-11.5 77.5q0 65 35.5 103t86.5 38q22 0 42 -7v-62q-17 9 -34 9q-33 0 -49.5 -22.5t-16.5 -56.5
q0 -30 11.5 -84t11.5 -85q0 -54 -30.5 -92t-92.5 -48q62 -10 92.5 -48.5t30.5 -92.5q0 -31 -11.5 -85t-11.5 -84q0 -34 16.5 -56.5t49.5 -22.5q18 0 34 9v-62z" />
    <glyph glyph-name="bar" unicode="|" horiz-adv-x="214" 
d="M134 -194h-54v889h54v-889z" />
    <glyph glyph-name="braceright" unicode="}" horiz-adv-x="322" 
d="M174 -44q0 -65 -35.5 -103t-86.5 -38q-22 0 -42 7v62q16 -9 34 -9q33 0 49.5 22.5t16.5 56.5q0 30 -11.5 84t-11.5 85q0 54 30.5 92.5t92.5 48.5q-62 10 -92.5 48t-30.5 92q0 31 11.5 85t11.5 84q0 34 -16.5 56.5t-49.5 22.5q-18 0 -34 -9v62q20 7 42 7q51 0 86.5 -38
t35.5 -103q0 -28 -11.5 -77.5t-11.5 -73.5q0 -48 22.5 -81.5t66.5 -41.5q11 -2 32 -2v-61q-24 0 -32 -2q-89 -22 -89 -125q0 -24 11.5 -73.5t11.5 -77.5z" />
    <glyph glyph-name="asciitilde" unicode="~" horiz-adv-x="585" 
d="M197 276q-70 0 -119 -72l-40 37q65 91 152 91q50 0 118.5 -40t102.5 -40q56 0 88 60l47 -32q-53 -85 -135 -85q-45 0 -116.5 40.5t-97.5 40.5z" />
    <glyph glyph-name="exclamdown" unicode="&#xa1;" horiz-adv-x="241" 
d="M151 -165h-61v478h61v-478zM171 467q0 -21 -15 -36t-37 -15q-21 0 -35.5 15t-14.5 36q0 22 14 36t36 14t37 -14t15 -36z" />
    <glyph glyph-name="cent" unicode="&#xa2;" horiz-adv-x="445" 
d="M405 11q-41 -17 -78 -18v-104h-55v105q-105 13 -163.5 86t-58.5 172q0 96 59.5 170.5t162.5 87.5v104h55v-103q37 -2 78 -19v-62q-43 23 -88 23q-93 0 -148 -59t-55 -143q0 -85 53 -142.5t151 -57.5q48 0 87 22v-62z" />
    <glyph glyph-name="sterling" unicode="&#xa3;" horiz-adv-x="517" 
d="M477 0h-412v52q62 28 84 70t22 127q0 23 -3 50h-96v51h91q-9 86 -9 107q0 98 52 150t144 52q53 0 101 -24v-62q-49 27 -100 27q-137 0 -137 -137q0 -25 9 -113h184v-51h-178q2 -34 2 -49q0 -87 -22.5 -129t-61.5 -66h330v-55z" />
    <glyph glyph-name="currency" unicode="&#xa4;" horiz-adv-x="536" 
d="M136 139l-59 -59l-41 41l58 58q-40 54 -40 130q0 75 43 132l-61 62l41 41l61 -62q58 44 134 44q73 0 129 -40l58 58l41 -41l-58 -58q40 -56 40 -129q0 -75 -45 -133l63 -62l-41 -41l-63 62q-56 -42 -132 -42q-75 0 -128 39zM108 313q0 -70 45 -115.5t115 -45.5t115 45
t45 115t-45 116t-115 46t-115 -45.5t-45 -115.5z" />
    <glyph glyph-name="yen" unicode="&#xa5;" horiz-adv-x="572" 
d="M493 167h-179v-167h-62v167h-179v50h179v35l-32 60h-147v50h121l-154 292h68l175 -343l177 343h68l-155 -292h120v-50h-147l-32 -60v-35h179v-50z" />
    <glyph glyph-name="brokenbar" unicode="&#xa6;" horiz-adv-x="214" 
d="M134 366h-54v329h54v-329zM134 -194h-54v329h54v-329z" />
    <glyph glyph-name="section" unicode="&#xa7;" horiz-adv-x="489" 
d="M260 163q60 -26 88 -42q30 32 30 83q0 44 -31 72t-88 53q-14 6 -55.5 22.5t-62.5 26.5q-29 -29 -29 -76q0 -22 9 -41t20 -31t35 -26t38 -20.5t46 -20.5zM439 204q0 -73 -43 -119q43 -45 43 -111q0 -88 -59 -134.5t-151 -46.5q-104 0 -177 44v69q30 -23 77.5 -38t96.5 -15
q71 0 110.5 31t39.5 89q0 44 -30 71.5t-87 52.5q-8 4 -35 15.5t-38 16.5t-34 17t-33.5 21t-26.5 24t-23 30t-13 35.5t-6 43.5q0 67 40 113q-40 38 -40 97q0 84 60 127t150 43q84 0 140 -30v-69q-24 16 -63 27t-76 11q-69 0 -108 -27t-39 -78q0 -18 6 -33t14.5 -24
t24.5 -18.5t28.5 -14.5t35.5 -14t37 -15q35 -15 53 -23.5t46 -26.5t42.5 -35.5t26 -45t11.5 -60.5z" />
    <glyph glyph-name="dieresis" unicode="&#xa8;" horiz-adv-x="400" 
d="M335 726q0 -18 -12 -30.5t-31 -12.5q-18 0 -30.5 12.5t-12.5 30.5q0 19 12.5 31t30.5 12q19 0 31 -12t12 -31zM151 726q0 -18 -12.5 -30.5t-30.5 -12.5q-19 0 -31 12.5t-12 30.5q0 19 12 31t31 12q18 0 30.5 -12t12.5 -31z" />
    <glyph glyph-name="copyright" unicode="&#xa9;" horiz-adv-x="780" 
d="M497 162q-30 -22 -81 -22q-90 0 -141 57t-51 137q0 78 51.5 136.5t140.5 58.5q46 0 81 -20v-57q-34 23 -77 23q-62 0 -100 -40t-38 -102q0 -59 38 -99t100 -40q48 0 77 25v-57zM735 336q0 -141 -102 -243t-243 -102t-243 102t-102 243t102 243.5t243 102.5t243 -102.5
t102 -243.5zM104 336q0 -118 84.5 -202.5t202.5 -84.5t202.5 84.5t84.5 202.5t-84.5 203t-202.5 85t-202.5 -85t-84.5 -203z" />
    <glyph glyph-name="ordfeminine" unicode="&#xaa;" horiz-adv-x="337" 
d="M145 437q47 0 79 27t32 63v66h-69q-134 0 -134 -80q0 -34 24 -55t68 -21zM256 446q-48 -58 -122 -58q-60 0 -97 33.5t-37 90.5q0 62 47.5 96.5t127.5 34.5h81v18q0 57 -24 86.5t-82 29.5q-67 0 -119 -36v53q50 31 120 31q156 0 156 -164v-269h-51v54z" />
    <glyph glyph-name="guillemotleft" unicode="&#xab;" horiz-adv-x="450" 
d="M277 253l147 -162h-70l-150 162l150 162h70zM247 91h-70l-150 162l150 162h70l-147 -162z" />
    <glyph glyph-name="logicalnot" unicode="&#xac;" horiz-adv-x="535" 
d="M500 166h-61v187h-419v59h480v-246z" />
    <glyph glyph-name="uni00AD" unicode="&#xad;" horiz-adv-x="345" 
d="M285 243h-225v55h225v-55z" />
    <glyph glyph-name="registered" unicode="&#xae;" horiz-adv-x="438" 
d="M196 482h-41v208h59q79 0 79 -66q0 -43 -35 -58l52 -84h-48l-45 76h-21v-76zM219 656h-23v-65h26q30 0 30 33q0 32 -33 32zM428 579q0 -91 -59 -149.5t-150 -58.5t-150 58.5t-59 149.5t59 150t150 59t150 -59t59 -150zM55 579q0 -74 45 -119.5t120 -45.5q74 0 119.5 45.5
t45.5 119.5t-45.5 120t-119.5 46q-75 0 -120 -46t-45 -120z" />
    <glyph glyph-name="macron" unicode="&#xaf;" horiz-adv-x="400" 
d="M331 704h-263v45h263v-45z" />
    <glyph glyph-name="degree" unicode="&#xb0;" horiz-adv-x="332" 
d="M302 543q0 -59 -39 -97t-99 -38t-97 36t-37 95t39 97t99 38t97 -36t37 -95zM83 541q0 -36 24.5 -61t60.5 -25t58.5 24.5t22.5 61.5q0 36 -24.5 61t-60.5 25t-58.5 -24.5t-22.5 -61.5z" />
    <glyph glyph-name="plusminus" unicode="&#xb1;" horiz-adv-x="544" 
d="M484 332h-188v-177h-57v177h-179v56h179v177h57v-177h188v-56zM484 31h-424v56h424v-56z" />
    <glyph glyph-name="twosuperior" unicode="&#xb2;" horiz-adv-x="365" 
d="M325 392h-275v41q205 156 205 261q0 42 -22.5 62.5t-58.5 20.5q-54 0 -109 -44v59q54 33 107 33q56 0 97 -33.5t41 -95.5q0 -58 -50.5 -126.5t-131.5 -131.5h197v-46z" />
    <glyph glyph-name="threesuperior" unicode="&#xb3;" horiz-adv-x="318" 
d="M283 507q0 -53 -36 -86t-102 -33q-60 0 -110 24v51q50 -27 110 -27q39 0 61.5 19t22.5 53q0 37 -27 57.5t-74 20.5h-27v46h27q36 0 61.5 20.5t25.5 55.5q0 69 -78 69q-43 0 -91 -31v53q41 26 90 26q65 0 99 -32.5t34 -81.5q0 -80 -78 -100q37 -3 64.5 -32.5t27.5 -71.5z
" />
    <glyph glyph-name="acute" unicode="&#xb4;" horiz-adv-x="400" 
d="M165 648h-55l102 150h81z" />
    <glyph glyph-name="uni00B5" unicode="&#xb5;" horiz-adv-x="535" 
d="M137 -179h-61v686h61v-335q0 -57 39 -88.5t92 -31.5q59 0 94.5 48t35.5 125v282h61v-507h-61v81q-36 -88 -141 -88q-77 0 -120 48v-220z" />
    <glyph glyph-name="paragraph" unicode="&#xb6;" horiz-adv-x="533" 
d="M276 -148h-60v495q-88 0 -137 45.5t-49 114.5q0 67 49.5 117t135.5 50h61v-822zM457 -148h-60v822h60v-822z" />
    <glyph glyph-name="periodcentered" unicode="&#xb7;" horiz-adv-x="222" 
d="M162 337q0 -22 -14.5 -36.5t-36.5 -14.5t-36.5 14.5t-14.5 36.5t14.5 36.5t36.5 14.5t36.5 -14.5t14.5 -36.5z" />
    <glyph glyph-name="cedilla" unicode="&#xb8;" horiz-adv-x="400" 
d="M271 -121q0 -52 -37 -88t-106 -39v49q87 9 87 73q0 37 -23 75h61q18 -26 18 -70z" />
    <glyph glyph-name="onesuperior" unicode="&#xb9;" horiz-adv-x="242" 
d="M166 392h-52v366l-104 -58v57l113 64h43v-429z" />
    <glyph glyph-name="ordmasculine" unicode="&#xba;" horiz-adv-x="358" 
d="M368 606q0 -96 -50.5 -158t-140.5 -62q-87 0 -137 62.5t-50 157.5q0 93 51.5 157t135.5 64q92 0 141.5 -62.5t49.5 -158.5zM43 606q0 -72 37 -122t97 -50q66 0 101.5 49t35.5 123q0 75 -33 124t-104 49q-63 0 -98.5 -51t-35.5 -122z" />
    <glyph glyph-name="guillemotright" unicode="&#xbb;" horiz-adv-x="453" 
d="M423 253l-150 -162h-70l147 162l-147 162h70zM96 91h-70l147 162l-147 162h70l150 -162z" />
    <glyph glyph-name="onequarter" unicode="&#xbc;" horiz-adv-x="833" 
d="M211 0h-61l456 712h62zM236 282h-52v366l-104 -58v57l113 64h43v-429zM518 144h145v242zM713 0h-50v102h-198v42l173 285h75v-285h65v-42h-65v-102z" />
    <glyph glyph-name="onehalf" unicode="&#xbd;" horiz-adv-x="833" 
d="M211 0h-61l456 712h62zM236 282h-52v366l-104 -58v57l113 64h43v-429zM787 0h-275v41q205 156 205 261q0 42 -22.5 62.5t-58.5 20.5q-54 0 -109 -44v59q54 33 107 33q56 0 97 -33.5t41 -95.5q0 -58 -50.5 -126.5t-131.5 -131.5h197v-46z" />
    <glyph glyph-name="threequarters" unicode="&#xbe;" horiz-adv-x="858" 
d="M268 0h-61l456 712h62zM333 397q0 -53 -36 -86t-102 -33q-60 0 -110 24v51q50 -27 110 -27q39 0 61.5 19t22.5 53q0 37 -27 57.5t-74 20.5h-27v46h27q36 0 61.5 20.5t25.5 55.5q0 69 -78 69q-43 0 -91 -31v53q41 26 90 26q65 0 99 -32.5t34 -81.5q0 -80 -78 -100
q37 -3 64.5 -32.5t27.5 -71.5zM575 144h145v242zM770 0h-50v102h-198v42l173 285h75v-285h65v-42h-65v-102z" />
    <glyph glyph-name="questiondown" unicode="&#xbf;" horiz-adv-x="450" 
d="M410 -129q-27 -18 -71.5 -31t-89.5 -13q-96 0 -152.5 48t-56.5 135q0 85 59.5 132t145.5 55v116h61v-170q-94 0 -148 -33.5t-54 -100.5q0 -55 36 -89.5t108 -34.5q82 0 162 51v-65zM327 467q0 -21 -14.5 -36t-35.5 -15q-22 0 -37 15t-15 36q0 22 15 36t37 14t36 -14
t14 -36z" />
    <glyph glyph-name="Agrave" unicode="&#xc0;" horiz-adv-x="637" 
d="M204 284l-15 -42h261l-15 43l-114 337q-13 -40 -117 -338zM105 0h-67l238 674h90l233 -674h-67l-64 187h-298zM341 729h-55l-128 150h81z" />
    <glyph glyph-name="Aacute" unicode="&#xc1;" horiz-adv-x="637" 
d="M204 284l-15 -42h261l-15 43l-114 337q-13 -40 -117 -338zM105 0h-67l238 674h90l233 -674h-67l-64 187h-298zM355 729h-55l102 150h81z" />
    <glyph glyph-name="Acircumflex" unicode="&#xc2;" horiz-adv-x="637" 
d="M204 284l-15 -42h261l-15 43l-114 337q-13 -40 -117 -338zM105 0h-67l238 674h90l233 -674h-67l-64 187h-298zM235 729h-64l119 150h63l119 -150h-64l-87 107z" />
    <glyph glyph-name="Atilde" unicode="&#xc3;" horiz-adv-x="637" 
d="M204 284l-15 -42h261l-15 43l-114 337q-13 -40 -117 -338zM105 0h-67l238 674h90l233 -674h-67l-64 187h-298zM263 808q-42 0 -67 -49l-36 30q13 29 39.5 48.5t57.5 19.5q28 0 71.5 -23t61.5 -23q30 0 50 43l42 -28q-30 -64 -89 -64q-25 0 -69.5 23t-60.5 23z" />
    <glyph glyph-name="Adieresis" unicode="&#xc4;" horiz-adv-x="637" 
d="M204 284l-15 -42h261l-15 43l-114 337q-13 -40 -117 -338zM105 0h-67l238 674h90l233 -674h-67l-64 187h-298zM456 805q0 -18 -12 -30.5t-31 -12.5q-18 0 -30.5 12.5t-12.5 30.5q0 19 12.5 31t30.5 12q19 0 31 -12t12 -31zM272 805q0 -18 -12.5 -30.5t-30.5 -12.5
q-19 0 -31 12.5t-12 30.5q0 19 12 31t31 12q18 0 30.5 -12t12.5 -31z" />
    <glyph glyph-name="Aring" unicode="&#xc5;" horiz-adv-x="637" 
d="M204 284l-15 -42h261l-15 43l-114 337q-13 -40 -117 -338zM105 0h-67l238 674h90l233 -674h-67l-64 187h-298zM420 817q0 -41 -29 -69.5t-70 -28.5t-69.5 28.5t-28.5 69.5t28.5 70t69.5 29t70 -29t29 -70zM268 817q0 -22 15.5 -37.5t37.5 -15.5t38 15.5t16 37.5
q0 23 -15.5 38.5t-38.5 15.5q-22 0 -37.5 -16t-15.5 -38z" />
    <glyph glyph-name="AE" unicode="&#xc6;" horiz-adv-x="863" 
d="M94 0h-67l398 674h387v-57h-297v-252h262v-57h-262v-251h303v-57h-365v187h-248zM263 284l-25 -42h215v370q-64 -116 -190 -328z" />
    <glyph glyph-name="Ccedilla" unicode="&#xc7;" horiz-adv-x="599" 
d="M559 35q-61 -43 -168 -43q-153 0 -247 93t-94 256q0 152 97 247t240 95q99 0 170 -36v-65q-44 23 -78 32.5t-94 9.5q-116 0 -193.5 -78.5t-77.5 -204.5q0 -132 76.5 -211t203.5 -79q99 0 165 52v-68zM415 -121q0 -52 -37 -88t-106 -39v49q87 9 87 73q0 37 -23 75h61
q18 -26 18 -70z" />
    <glyph glyph-name="Egrave" unicode="&#xc8;" horiz-adv-x="490" 
d="M445 0h-365v674h359v-57h-297v-252h262v-57h-262v-251h303v-57zM313 728h-55l-128 150h81z" />
    <glyph glyph-name="Eacute" unicode="&#xc9;" horiz-adv-x="490" 
d="M445 0h-365v674h359v-57h-297v-252h262v-57h-262v-251h303v-57zM305 729h-55l102 150h81z" />
    <glyph glyph-name="Ecircumflex" unicode="&#xca;" horiz-adv-x="490" 
d="M445 0h-365v674h359v-57h-297v-252h262v-57h-262v-251h303v-57zM187 729h-64l119 150h63l119 -150h-64l-87 107z" />
    <glyph glyph-name="Edieresis" unicode="&#xcb;" horiz-adv-x="490" 
d="M445 0h-365v674h359v-57h-297v-252h262v-57h-262v-251h303v-57zM402 803q0 -18 -12 -30.5t-31 -12.5q-18 0 -30.5 12.5t-12.5 30.5q0 19 12.5 31t30.5 12q19 0 31 -12t12 -31zM218 803q0 -18 -12.5 -30.5t-30.5 -12.5q-19 0 -31 12.5t-12 30.5q0 19 12 31t31 12
q18 0 30.5 -12t12.5 -31z" />
    <glyph glyph-name="Igrave" unicode="&#xcc;" horiz-adv-x="232" 
d="M147 0h-62v674h62v-674zM139 729h-55l-128 150h81z" />
    <glyph glyph-name="Iacute" unicode="&#xcd;" horiz-adv-x="232" 
d="M147 0h-62v674h62v-674zM148 729h-55l102 150h81z" />
    <glyph glyph-name="Icircumflex" unicode="&#xce;" horiz-adv-x="232" 
d="M147 0h-62v674h62v-674zM30 729h-64l119 150h63l119 -150h-64l-87 107z" />
    <glyph glyph-name="Idieresis" unicode="&#xcf;" horiz-adv-x="232" 
d="M147 0h-62v674h62v-674zM252 804q0 -18 -12 -30.5t-31 -12.5q-18 0 -30.5 12.5t-12.5 30.5q0 19 12.5 31t30.5 12q19 0 31 -12t12 -31zM68 804q0 -18 -12.5 -30.5t-30.5 -12.5q-19 0 -31 12.5t-12 30.5q0 19 12 31t31 12q18 0 30.5 -12t12.5 -31z" />
    <glyph glyph-name="Eth" unicode="&#xd0;" horiz-adv-x="725" 
d="M347 0h-197v313h-90v53h90v308h192q148 0 243 -92t95 -241q0 -91 -35 -166.5t-112.5 -125t-185.5 -49.5zM396 313h-184v-256h135q69 0 122 24t84 65t46.5 90t15.5 105q0 115 -76.5 195.5t-196.5 80.5h-130v-251h184v-53z" />
    <glyph glyph-name="Ntilde" unicode="&#xd1;" horiz-adv-x="667" 
d="M142 0h-62v674h85l172 -285l190 -316q-2 104 -2 315v286h62v-674h-85l-171 283l-191 318q2 -108 2 -316v-285zM285 807q-42 0 -67 -49l-36 30q13 29 39.5 48.5t57.5 19.5q28 0 71.5 -23t61.5 -23q30 0 50 43l42 -28q-30 -64 -89 -64q-25 0 -69.5 23t-60.5 23z" />
    <glyph glyph-name="Ograve" unicode="&#xd2;" horiz-adv-x="691" 
d="M641 340q0 -160 -79 -254t-215 -94q-134 0 -215.5 95t-81.5 253q0 159 79.5 253.5t215.5 94.5q140 0 218 -93.5t78 -254.5zM114 340q0 -133 63.5 -210.5t169.5 -77.5q110 0 170 76.5t60 211.5q0 136 -60.5 212t-171.5 76q-108 0 -169.5 -76.5t-61.5 -211.5zM382 729h-55
l-128 150h81z" />
    <glyph glyph-name="Oacute" unicode="&#xd3;" horiz-adv-x="691" 
d="M641 340q0 -160 -79 -254t-215 -94q-134 0 -215.5 95t-81.5 253q0 159 79.5 253.5t215.5 94.5q140 0 218 -93.5t78 -254.5zM114 340q0 -133 63.5 -210.5t169.5 -77.5q110 0 170 76.5t60 211.5q0 136 -60.5 212t-171.5 76q-108 0 -169.5 -76.5t-61.5 -211.5zM382 729h-55
l102 150h81z" />
    <glyph glyph-name="Ocircumflex" unicode="&#xd4;" horiz-adv-x="691" 
d="M641 340q0 -160 -79 -254t-215 -94q-134 0 -215.5 95t-81.5 253q0 159 79.5 253.5t215.5 94.5q140 0 218 -93.5t78 -254.5zM114 340q0 -133 63.5 -210.5t169.5 -77.5q110 0 170 76.5t60 211.5q0 136 -60.5 212t-171.5 76q-108 0 -169.5 -76.5t-61.5 -211.5zM267 729h-64
l119 150h63l119 -150h-64l-87 107z" />
    <glyph glyph-name="Otilde" unicode="&#xd5;" horiz-adv-x="691" 
d="M641 340q0 -160 -79 -254t-215 -94q-134 0 -215.5 95t-81.5 253q0 159 79.5 253.5t215.5 94.5q140 0 218 -93.5t78 -254.5zM114 340q0 -133 63.5 -210.5t169.5 -77.5q110 0 170 76.5t60 211.5q0 136 -60.5 212t-171.5 76q-108 0 -169.5 -76.5t-61.5 -211.5zM290 809
q-42 0 -67 -49l-36 30q13 29 39.5 48.5t57.5 19.5q28 0 71.5 -23t61.5 -23q30 0 50 43l42 -28q-30 -64 -89 -64q-25 0 -69.5 23t-60.5 23z" />
    <glyph glyph-name="Odieresis" unicode="&#xd6;" horiz-adv-x="691" 
d="M641 340q0 -160 -79 -254t-215 -94q-134 0 -215.5 95t-81.5 253q0 159 79.5 253.5t215.5 94.5q140 0 218 -93.5t78 -254.5zM114 340q0 -133 63.5 -210.5t169.5 -77.5q110 0 170 76.5t60 211.5q0 136 -60.5 212t-171.5 76q-108 0 -169.5 -76.5t-61.5 -211.5zM483 805
q0 -18 -12 -30.5t-31 -12.5q-18 0 -30.5 12.5t-12.5 30.5q0 19 12.5 31t30.5 12q19 0 31 -12t12 -31zM299 805q0 -18 -12.5 -30.5t-30.5 -12.5q-19 0 -31 12.5t-12 30.5q0 19 12 31t31 12q18 0 30.5 -12t12.5 -31z" />
    <glyph glyph-name="multiply" unicode="&#xd7;" horiz-adv-x="481" 
d="M412 210l-40 -40l-132 131l-132 -131l-40 40l132 131l-137 135l40 40l137 -135l137 136l40 -40l-137 -136z" />
    <glyph glyph-name="Oslash" unicode="&#xd8;" horiz-adv-x="664" 
d="M633 340q0 -160 -79 -254t-215 -94q-104 0 -181 61l-46 -62h-71l77 103q-76 93 -76 246q0 159 79.5 253.5t215.5 94.5q107 0 181 -58l44 58h72l-74 -99q73 -95 73 -249zM106 340q0 -118 51 -194l324 434q-57 48 -144 48q-108 0 -169.5 -76.5t-61.5 -211.5zM339 52
q110 0 170 76.5t60 211.5q0 121 -49 196l-324 -433q59 -51 143 -51z" />
    <glyph glyph-name="Ugrave" unicode="&#xd9;" horiz-adv-x="639" 
d="M559 255q0 -130 -63 -196.5t-178 -66.5q-113 0 -175.5 65t-62.5 190v427h62v-426q0 -101 47.5 -148.5t128.5 -47.5q179 0 179 201v421h62v-419zM349 729h-55l-128 150h81z" />
    <glyph glyph-name="Uacute" unicode="&#xda;" horiz-adv-x="639" 
d="M559 255q0 -130 -63 -196.5t-178 -66.5q-113 0 -175.5 65t-62.5 190v427h62v-426q0 -101 47.5 -148.5t128.5 -47.5q179 0 179 201v421h62v-419zM359 729h-55l102 150h81z" />
    <glyph glyph-name="Ucircumflex" unicode="&#xdb;" horiz-adv-x="639" 
d="M559 255q0 -130 -63 -196.5t-178 -66.5q-113 0 -175.5 65t-62.5 190v427h62v-426q0 -101 47.5 -148.5t128.5 -47.5q179 0 179 201v421h62v-419zM236 729h-64l119 150h63l119 -150h-64l-87 107z" />
    <glyph glyph-name="Udieresis" unicode="&#xdc;" horiz-adv-x="639" 
d="M559 255q0 -130 -63 -196.5t-178 -66.5q-113 0 -175.5 65t-62.5 190v427h62v-426q0 -101 47.5 -148.5t128.5 -47.5q179 0 179 201v421h62v-419zM455 805q0 -18 -12 -30.5t-31 -12.5q-18 0 -30.5 12.5t-12.5 30.5q0 19 12.5 31t30.5 12q19 0 31 -12t12 -31zM271 805
q0 -18 -12.5 -30.5t-30.5 -12.5q-19 0 -31 12.5t-12 30.5q0 19 12 31t31 12q18 0 30.5 -12t12.5 -31z" />
    <glyph glyph-name="Yacute" unicode="&#xdd;" horiz-adv-x="580" 
d="M320 252v-252h-62v252l-228 422h71l53 -99l135 -260q8 19 137 260l53 99h71zM335 728h-55l102 150h81z" />
    <glyph glyph-name="Thorn" unicode="&#xde;" horiz-adv-x="529" 
d="M243 128h-101v-128h-62v674h62v-128h90q124 0 188.5 -59t64.5 -157q0 -86 -62.5 -144t-179.5 -58zM239 491h-97v-308h108q85 0 128.5 41t43.5 106q0 76 -45.5 118.5t-137.5 42.5z" />
    <glyph glyph-name="germandbls" unicode="&#xdf;" horiz-adv-x="526" 
d="M494 131q0 -60 -43 -99t-121 -39q-46 0 -78 10v64q37 -17 81 -17q45 0 72 21t27 55q0 27 -15.5 50t-37.5 41t-44.5 36.5t-38 43.5t-15.5 55q0 28 13.5 53.5t30 41.5t30 41t13.5 53q0 41 -30 65.5t-78 24.5q-118 0 -118 -126v-505h-62v505q0 93 50.5 139t134.5 46
q74 0 119.5 -43t45.5 -106q0 -46 -21 -80.5t-41.5 -59t-20.5 -45.5q0 -24 23 -49t50.5 -44t50.5 -54t23 -78z" />
    <glyph glyph-name="agrave" unicode="&#xe0;" horiz-adv-x="486" 
d="M223 51q60 0 96 33t36 84v73h-99q-71 0 -106 -27.5t-35 -68.5q0 -42 27.5 -68t80.5 -26zM355 59q-42 -64 -146 -64q-70 0 -114.5 41.5t-44.5 106.5q0 73 56.5 113.5t149.5 40.5h99v23q0 68 -29 102.5t-97 34.5q-79 0 -142 -43v66q58 35 143 35q186 0 186 -195v-320h-61
v59zM282 562h-55l-128 150h81z" />
    <glyph glyph-name="aacute" unicode="&#xe1;" horiz-adv-x="486" 
d="M223 51q60 0 96 33t36 84v73h-99q-71 0 -106 -27.5t-35 -68.5q0 -42 27.5 -68t80.5 -26zM355 59q-42 -64 -146 -64q-70 0 -114.5 41.5t-44.5 106.5q0 73 56.5 113.5t149.5 40.5h99v23q0 68 -29 102.5t-97 34.5q-79 0 -142 -43v66q58 35 143 35q186 0 186 -195v-320h-61
v59zM286 562h-55l102 150h81z" />
    <glyph glyph-name="acircumflex" unicode="&#xe2;" horiz-adv-x="486" 
d="M223 51q60 0 96 33t36 84v73h-99q-71 0 -106 -27.5t-35 -68.5q0 -42 27.5 -68t80.5 -26zM355 59q-42 -64 -146 -64q-70 0 -114.5 41.5t-44.5 106.5q0 73 56.5 113.5t149.5 40.5h99v23q0 68 -29 102.5t-97 34.5q-79 0 -142 -43v66q58 35 143 35q186 0 186 -195v-320h-61
v59zM167 561h-64l119 150h63l119 -150h-64l-87 107z" />
    <glyph glyph-name="atilde" unicode="&#xe3;" horiz-adv-x="486" 
d="M223 51q60 0 96 33t36 84v73h-99q-71 0 -106 -27.5t-35 -68.5q0 -42 27.5 -68t80.5 -26zM355 59q-42 -64 -146 -64q-70 0 -114.5 41.5t-44.5 106.5q0 73 56.5 113.5t149.5 40.5h99v23q0 68 -29 102.5t-97 34.5q-79 0 -142 -43v66q58 35 143 35q186 0 186 -195v-320h-61
v59zM191 641q-42 0 -67 -49l-36 30q13 29 39.5 48.5t57.5 19.5q28 0 71.5 -23t61.5 -23q30 0 50 43l42 -28q-30 -64 -89 -64q-25 0 -69.5 23t-60.5 23z" />
    <glyph glyph-name="adieresis" unicode="&#xe4;" horiz-adv-x="486" 
d="M223 51q60 0 96 33t36 84v73h-99q-71 0 -106 -27.5t-35 -68.5q0 -42 27.5 -68t80.5 -26zM355 59q-42 -64 -146 -64q-70 0 -114.5 41.5t-44.5 106.5q0 73 56.5 113.5t149.5 40.5h99v23q0 68 -29 102.5t-97 34.5q-79 0 -142 -43v66q58 35 143 35q186 0 186 -195v-320h-61
v59zM384 634q0 -18 -12 -30.5t-31 -12.5q-18 0 -30.5 12.5t-12.5 30.5q0 19 12.5 31t30.5 12q19 0 31 -12t12 -31zM200 634q0 -18 -12.5 -30.5t-30.5 -12.5q-19 0 -31 12.5t-12 30.5q0 19 12 31t31 12q18 0 30.5 -12t12.5 -31z" />
    <glyph glyph-name="aring" unicode="&#xe5;" horiz-adv-x="486" 
d="M223 51q60 0 96 33t36 84v73h-99q-71 0 -106 -27.5t-35 -68.5q0 -42 27.5 -68t80.5 -26zM355 59q-42 -64 -146 -64q-70 0 -114.5 41.5t-44.5 106.5q0 73 56.5 113.5t149.5 40.5h99v23q0 68 -29 102.5t-97 34.5q-79 0 -142 -43v66q58 35 143 35q186 0 186 -195v-320h-61
v59zM352 650q0 -41 -29 -69.5t-70 -28.5t-69.5 29t-28.5 69q0 41 28.5 70t69.5 29t70 -29t29 -70zM200 650q0 -22 15.5 -37.5t37.5 -15.5t38 15.5t16 37.5t-15.5 38t-38.5 16q-22 0 -37.5 -16t-15.5 -38z" />
    <glyph glyph-name="ae" unicode="&#xe6;" horiz-adv-x="822" 
d="M397 102q-20 -49 -68 -78t-115 -29q-70 0 -114.5 39.5t-44.5 107.5q0 74 57 115t152 41h96v22q0 68 -29 102.5t-97 34.5q-81 0 -142 -42v63q59 37 143 37q132 0 169 -95q61 93 179 93q97 0 148 -62t51 -176q0 -29 -4 -49h-356q7 -84 59 -128.5t130 -44.5q83 0 134 34v-62
q-60 -30 -137 -30q-68 0 -124 29.5t-87 77.5zM119 144q0 -41 28 -65.5t81 -24.5q55 0 93.5 34t38.5 90v61h-82q-159 0 -159 -95zM581 456q-63 0 -107 -44t-52 -130h297v23q0 73 -38.5 112t-99.5 39z" />
    <glyph glyph-name="ccedilla" unicode="&#xe7;" horiz-adv-x="472" 
d="M417 17q-43 -29 -111 -29q-123 0 -192 77.5t-69 186.5q0 106 70.5 185t190.5 79q62 0 111 -27v-62q-45 30 -105 30q-93 0 -148 -60.5t-55 -145.5q0 -86 53 -145t151 -59q61 0 104 32v-62zM331 -121q0 -52 -37 -88t-106 -39v49q87 9 87 73q0 37 -23 75h61q18 -26 18 -70z
" />
    <glyph glyph-name="egrave" unicode="&#xe8;" horiz-adv-x="519" 
d="M439 25q-60 -30 -140 -30q-113 0 -183.5 70.5t-70.5 185.5q0 122 62 192t161 70q93 0 148 -61t55 -172q0 -34 -4 -54h-358q7 -84 58 -128.5t135 -44.5q86 0 137 34v-62zM266 456q-64 0 -107 -45t-50 -129h299v23q0 69 -38.5 110t-103.5 41zM314 562h-55l-128 150h81z" />
    <glyph glyph-name="eacute" unicode="&#xe9;" horiz-adv-x="519" 
d="M439 25q-60 -30 -140 -30q-113 0 -183.5 70.5t-70.5 185.5q0 122 62 192t161 70q93 0 148 -61t55 -172q0 -34 -4 -54h-358q7 -84 58 -128.5t135 -44.5q86 0 137 34v-62zM266 456q-64 0 -107 -45t-50 -129h299v23q0 69 -38.5 110t-103.5 41zM313 562h-55l102 150h81z" />
    <glyph glyph-name="ecircumflex" unicode="&#xea;" horiz-adv-x="519" 
d="M439 25q-60 -30 -140 -30q-113 0 -183.5 70.5t-70.5 185.5q0 122 62 192t161 70q93 0 148 -61t55 -172q0 -34 -4 -54h-358q7 -84 58 -128.5t135 -44.5q86 0 137 34v-62zM266 456q-64 0 -107 -45t-50 -129h299v23q0 69 -38.5 110t-103.5 41zM198 562h-64l119 150h63
l119 -150h-64l-87 107z" />
    <glyph glyph-name="edieresis" unicode="&#xeb;" horiz-adv-x="519" 
d="M439 25q-60 -30 -140 -30q-113 0 -183.5 70.5t-70.5 185.5q0 122 62 192t161 70q93 0 148 -61t55 -172q0 -34 -4 -54h-358q7 -84 58 -128.5t135 -44.5q86 0 137 34v-62zM266 456q-64 0 -107 -45t-50 -129h299v23q0 69 -38.5 110t-103.5 41zM416 637q0 -18 -12 -30.5
t-31 -12.5q-18 0 -30.5 12.5t-12.5 30.5q0 19 12.5 31t30.5 12q19 0 31 -12t12 -31zM232 637q0 -18 -12.5 -30.5t-30.5 -12.5q-19 0 -31 12.5t-12 30.5q0 19 12 31t31 12q18 0 30.5 -12t12.5 -31z" />
    <glyph glyph-name="igrave" unicode="&#xec;" horiz-adv-x="221" 
d="M141 0h-61v507h61v-507zM134 561h-55l-128 150h81z" />
    <glyph glyph-name="iacute" unicode="&#xed;" horiz-adv-x="221" 
d="M141 0h-61v507h61v-507zM144 562h-55l102 150h81z" />
    <glyph glyph-name="icircumflex" unicode="&#xee;" horiz-adv-x="221" 
d="M141 0h-61v507h61v-507zM25 562h-64l119 150h63l119 -150h-64l-87 107z" />
    <glyph glyph-name="idieresis" unicode="&#xef;" horiz-adv-x="221" 
d="M141 0h-61v507h61v-507zM246 639q0 -18 -12 -30.5t-31 -12.5q-18 0 -30.5 12.5t-12.5 30.5q0 19 12.5 31t30.5 12q19 0 31 -12t12 -31zM62 639q0 -18 -12.5 -30.5t-30.5 -12.5q-19 0 -31 12.5t-12 30.5q0 19 12 31t31 12q18 0 30.5 -12t12.5 -31z" />
    <glyph glyph-name="eth" unicode="&#xf0;" horiz-adv-x="506" 
d="M461 264q0 -136 -58 -204.5t-156 -68.5q-92 0 -150 62t-58 149q0 97 60.5 152.5t143.5 55.5q96 0 155 -73q-19 111 -97 205l-139 -72v56l104 54q-65 62 -134 94h108q44 -27 80 -66l124 64v-56l-90 -46q107 -136 107 -306zM247 49q67 0 112 53.5t45 159.5q-62 88 -164 88
q-58 0 -97.5 -39t-39.5 -109q0 -71 40.5 -112t103.5 -41z" />
    <glyph glyph-name="ntilde" unicode="&#xf1;" horiz-adv-x="529" 
d="M459 0h-61v335q0 59 -30 90t-79 31q-62 0 -107 -47.5t-45 -128.5v-280h-61v507h61v-87q47 95 161 95q73 0 117 -45t44 -116v-354zM219 640q-42 0 -67 -49l-36 30q13 29 39.5 48.5t57.5 19.5q28 0 71.5 -23t61.5 -23q30 0 50 43l42 -28q-30 -64 -89 -64q-25 0 -69.5 23
t-60.5 23z" />
    <glyph glyph-name="ograve" unicode="&#xf2;" horiz-adv-x="561" 
d="M516 251q0 -113 -63.5 -186.5t-174.5 -73.5q-107 0 -170 74t-63 186q0 111 65 187t168 76q113 0 175.5 -74.5t62.5 -188.5zM109 251q0 -83 46.5 -142.5t122.5 -59.5q83 0 128.5 58.5t45.5 143.5q0 88 -43 146.5t-131 58.5q-79 0 -124 -60t-45 -145zM309 562h-55l-128 150
h81z" />
    <glyph glyph-name="oacute" unicode="&#xf3;" horiz-adv-x="561" 
d="M516 251q0 -113 -63.5 -186.5t-174.5 -73.5q-107 0 -170 74t-63 186q0 111 65 187t168 76q113 0 175.5 -74.5t62.5 -188.5zM109 251q0 -83 46.5 -142.5t122.5 -59.5q83 0 128.5 58.5t45.5 143.5q0 88 -43 146.5t-131 58.5q-79 0 -124 -60t-45 -145zM319 562h-55l102 150
h81z" />
    <glyph glyph-name="ocircumflex" unicode="&#xf4;" horiz-adv-x="561" 
d="M516 251q0 -113 -63.5 -186.5t-174.5 -73.5q-107 0 -170 74t-63 186q0 111 65 187t168 76q113 0 175.5 -74.5t62.5 -188.5zM109 251q0 -83 46.5 -142.5t122.5 -59.5q83 0 128.5 58.5t45.5 143.5q0 88 -43 146.5t-131 58.5q-79 0 -124 -60t-45 -145zM197 561h-64l119 150
h63l119 -150h-64l-87 107z" />
    <glyph glyph-name="otilde" unicode="&#xf5;" horiz-adv-x="561" 
d="M516 251q0 -113 -63.5 -186.5t-174.5 -73.5q-107 0 -170 74t-63 186q0 111 65 187t168 76q113 0 175.5 -74.5t62.5 -188.5zM109 251q0 -83 46.5 -142.5t122.5 -59.5q83 0 128.5 58.5t45.5 143.5q0 88 -43 146.5t-131 58.5q-79 0 -124 -60t-45 -145zM225 640
q-42 0 -67 -49l-36 30q13 29 39.5 48.5t57.5 19.5q28 0 71.5 -23t61.5 -23q30 0 50 43l42 -28q-30 -64 -89 -64q-25 0 -69.5 23t-60.5 23z" />
    <glyph glyph-name="odieresis" unicode="&#xf6;" horiz-adv-x="561" 
d="M516 251q0 -113 -63.5 -186.5t-174.5 -73.5q-107 0 -170 74t-63 186q0 111 65 187t168 76q113 0 175.5 -74.5t62.5 -188.5zM109 251q0 -83 46.5 -142.5t122.5 -59.5q83 0 128.5 58.5t45.5 143.5q0 88 -43 146.5t-131 58.5q-79 0 -124 -60t-45 -145zM423 635
q0 -18 -12 -30.5t-31 -12.5q-18 0 -30.5 12.5t-12.5 30.5q0 19 12.5 31t30.5 12q19 0 31 -12t12 -31zM239 635q0 -18 -12.5 -30.5t-30.5 -12.5q-19 0 -31 12.5t-12 30.5q0 19 12 31t31 12q18 0 30.5 -12t12.5 -31z" />
    <glyph glyph-name="divide" unicode="&#xf7;" horiz-adv-x="544" 
d="M484 312h-424v56h424v-56zM318 161q0 -19 -13.5 -32.5t-32.5 -13.5t-32.5 13.5t-13.5 32.5t13.5 32.5t32.5 13.5t32.5 -13.5t13.5 -32.5zM318 519q0 -19 -13.5 -32.5t-32.5 -13.5t-32.5 13.5t-13.5 32.5t13.5 32.5t32.5 13.5t32.5 -13.5t13.5 -32.5z" />
    <glyph glyph-name="oslash" unicode="&#xf8;" horiz-adv-x="563" 
d="M533 251q0 -113 -63.5 -186.5t-174.5 -73.5q-77 0 -132 40l-30 -40h-71l60 78q-60 72 -60 182q0 111 65 187t168 76q80 0 136 -39l30 39h72l-60 -78q60 -71 60 -185zM123 251q0 -75 37 -131l237 310q-42 29 -102 29q-80 0 -126 -60.5t-46 -147.5zM295 46q84 0 130.5 59
t46.5 146q0 83 -35 137l-238 -310q43 -32 96 -32z" />
    <glyph glyph-name="ugrave" unicode="&#xf9;" horiz-adv-x="529" 
d="M453 0h-61v91q-40 -98 -161 -98q-74 0 -117.5 44.5t-43.5 117.5v352h61v-335q0 -58 30.5 -89t80.5 -31q67 0 108.5 48t41.5 125v282h61v-507zM292 561h-55l-128 150h81z" />
    <glyph glyph-name="uacute" unicode="&#xfa;" horiz-adv-x="529" 
d="M453 0h-61v91q-40 -98 -161 -98q-74 0 -117.5 44.5t-43.5 117.5v352h61v-335q0 -58 30.5 -89t80.5 -31q67 0 108.5 48t41.5 125v282h61v-507zM296 562h-55l102 150h81z" />
    <glyph glyph-name="ucircumflex" unicode="&#xfb;" horiz-adv-x="529" 
d="M453 0h-61v91q-40 -98 -161 -98q-74 0 -117.5 44.5t-43.5 117.5v352h61v-335q0 -58 30.5 -89t80.5 -31q67 0 108.5 48t41.5 125v282h61v-507zM177 562h-64l119 150h63l119 -150h-64l-87 107z" />
    <glyph glyph-name="udieresis" unicode="&#xfc;" horiz-adv-x="529" 
d="M453 0h-61v91q-40 -98 -161 -98q-74 0 -117.5 44.5t-43.5 117.5v352h61v-335q0 -58 30.5 -89t80.5 -31q67 0 108.5 48t41.5 125v282h61v-507zM401 635q0 -18 -12 -30.5t-31 -12.5q-18 0 -30.5 12.5t-12.5 30.5q0 19 12.5 31t30.5 12q19 0 31 -12t12 -31zM217 635
q0 -18 -12.5 -30.5t-30.5 -12.5q-19 0 -31 12.5t-12 30.5q0 19 12 31t31 12q18 0 30.5 -12t12.5 -31z" />
    <glyph glyph-name="yacute" unicode="&#xfd;" horiz-adv-x="482" 
d="M279 13q-38 -103 -90 -142t-118 -39q-20 0 -38 5v60q18 -5 34 -5q107 0 149 122l-207 493h70l69 -170l98 -244q7 23 87 244l62 170h68zM277 562h-55l102 150h81z" />
    <glyph glyph-name="thorn" unicode="&#xfe;" horiz-adv-x="555" 
d="M137 -200h-61v907h61v-274q53 82 157 82q102 0 159 -74.5t57 -181.5q0 -118 -61 -192.5t-157 -74.5q-99 0 -155 84v-276zM137 251q0 -56 15.5 -97.5t40 -63t49 -31t48.5 -9.5q68 0 112 54.5t44 155.5q0 87 -42.5 142t-107.5 55t-112 -47.5t-47 -158.5z" />
    <glyph glyph-name="ydieresis" unicode="&#xff;" horiz-adv-x="482" 
d="M279 13q-38 -103 -90 -142t-118 -39q-20 0 -38 5v60q18 -5 34 -5q107 0 149 122l-207 493h70l69 -170l98 -244q7 23 87 244l62 170h68zM385 635q0 -18 -12 -30.5t-31 -12.5q-18 0 -30.5 12.5t-12.5 30.5q0 19 12.5 31t30.5 12q19 0 31 -12t12 -31zM201 635
q0 -18 -12.5 -30.5t-30.5 -12.5q-19 0 -31 12.5t-12 30.5q0 19 12 31t31 12q18 0 30.5 -12t12.5 -31z" />
    <glyph glyph-name="Amacron" unicode="&#x100;" horiz-adv-x="637" 
d="M204 284l-15 -42h261l-15 43l-114 337q-13 -40 -117 -338zM105 0h-67l238 674h90l233 -674h-67l-64 187h-298zM453 781h-263v45h263v-45z" />
    <glyph glyph-name="amacron" unicode="&#x101;" horiz-adv-x="486" 
d="M223 51q60 0 96 33t36 84v73h-99q-71 0 -106 -27.5t-35 -68.5q0 -42 27.5 -68t80.5 -26zM355 59q-42 -64 -146 -64q-70 0 -114.5 41.5t-44.5 106.5q0 73 56.5 113.5t149.5 40.5h99v23q0 68 -29 102.5t-97 34.5q-79 0 -142 -43v66q58 35 143 35q186 0 186 -195v-320h-61
v59zM376 614h-263v45h263v-45z" />
    <glyph glyph-name="Abreve" unicode="&#x102;" horiz-adv-x="637" 
d="M204 284l-15 -42h261l-15 43l-114 337q-13 -40 -117 -338zM105 0h-67l238 674h90l233 -674h-67l-64 187h-298zM476 878q0 -68 -37 -110.5t-118 -42.5t-118 42.5t-37 110.5h52q0 -105 103 -105t103 105h52z" />
    <glyph glyph-name="abreve" unicode="&#x103;" horiz-adv-x="486" 
d="M223 51q60 0 96 33t36 84v73h-99q-71 0 -106 -27.5t-35 -68.5q0 -42 27.5 -68t80.5 -26zM355 59q-42 -64 -146 -64q-70 0 -114.5 41.5t-44.5 106.5q0 73 56.5 113.5t149.5 40.5h99v23q0 68 -29 102.5t-97 34.5q-79 0 -142 -43v66q58 35 143 35q186 0 186 -195v-320h-61
v59zM402 711q0 -68 -37 -110.5t-118 -42.5t-118 42.5t-37 110.5h52q0 -105 103 -105t103 105h52z" />
    <glyph glyph-name="Aogonek" unicode="&#x104;" horiz-adv-x="637" 
d="M204 284l-15 -42h261l-15 43l-114 337q-13 -40 -117 -338zM622 -219q-28 -18 -71 -18q-55 0 -87 30.5t-32 77.5q0 42 27 79t69 61l-60 176h-298l-65 -187h-67l238 674h90l233 -674q-111 -50 -111 -124q0 -32 19 -48.5t51 -16.5q37 0 64 20v-50z" />
    <glyph glyph-name="aogonek" unicode="&#x105;" horiz-adv-x="486" 
d="M223 54q56 0 94 32t38 74v79h-82q-159 0 -159 -95q0 -41 28 -65.5t81 -24.5zM439 -219q-28 -18 -71 -18q-55 0 -87 30.5t-32 77.5q0 45 30 83.5t76 61.5v47q-56 -68 -146 -68q-70 0 -114.5 39.5t-44.5 107.5q0 74 57 115t152 41h96v22q0 68 -29 102.5t-97 34.5
q-81 0 -142 -42v63q59 37 143 37q186 0 186 -195v-320q-111 -50 -111 -124q0 -32 19 -48.5t51 -16.5q37 0 64 20v-50z" />
    <glyph glyph-name="Cacute" unicode="&#x106;" horiz-adv-x="599" 
d="M559 35q-61 -43 -168 -43q-153 0 -247 93t-94 256q0 152 97 247t240 95q99 0 170 -36v-65q-44 23 -78 32.5t-94 9.5q-116 0 -193.5 -78.5t-77.5 -204.5q0 -132 76.5 -211t203.5 -79q99 0 165 52v-68zM392 729h-55l102 150h81z" />
    <glyph glyph-name="cacute" unicode="&#x107;" horiz-adv-x="472" 
d="M417 17q-43 -29 -111 -29q-123 0 -192 77.5t-69 186.5q0 106 70.5 185t190.5 79q62 0 111 -27v-62q-45 30 -105 30q-93 0 -148 -60.5t-55 -145.5q0 -86 53 -145t151 -59q61 0 104 32v-62zM320 561h-55l102 150h81z" />
    <glyph glyph-name="Ccaron" unicode="&#x10c;" horiz-adv-x="599" 
d="M559 35q-61 -43 -168 -43q-153 0 -247 93t-94 256q0 152 97 247t240 95q99 0 170 -36v-65q-44 23 -78 32.5t-94 9.5q-116 0 -193.5 -78.5t-77.5 -204.5q0 -132 76.5 -211t203.5 -79q99 0 165 52v-68zM415 729h-63l-119 150h64l87 -107l86 107h64z" />
    <glyph glyph-name="ccaron" unicode="&#x10d;" horiz-adv-x="472" 
d="M417 17q-43 -29 -111 -29q-123 0 -192 77.5t-69 186.5q0 106 70.5 185t190.5 79q62 0 111 -27v-62q-45 30 -105 30q-93 0 -148 -60.5t-55 -145.5q0 -86 53 -145t151 -59q61 0 104 32v-62zM307 562h-63l-119 150h64l87 -107l86 107h64z" />
    <glyph glyph-name="Dcaron" unicode="&#x10e;" horiz-adv-x="655" 
d="M277 0h-197v674h192q148 0 243 -92t95 -241q0 -91 -35 -166.5t-112.5 -125t-185.5 -49.5zM272 617h-130v-560h135q69 0 122 24t84 65t46.5 90t15.5 105q0 115 -76.5 195.5t-196.5 80.5zM334 728h-63l-119 150h64l87 -107l86 107h64z" />
    <glyph glyph-name="dcaron" unicode="&#x10f;" horiz-adv-x="637" 
d="M109 247q0 -87 42.5 -142t107.5 -55t112 47.5t47 158.5q0 56 -15.5 97.5t-40 63t-49 31t-48.5 9.5q-68 0 -112 -54.5t-44 -155.5zM479 0h-61v74q-53 -82 -157 -82q-102 0 -159 74.5t-57 181.5q0 118 61 192.5t157 74.5q99 0 155 -84v276h61v-707zM593 520h-54l88 187h76z
" />
    <glyph glyph-name="Dcroat" unicode="&#x110;" horiz-adv-x="725" 
d="M347 0h-197v313h-90v53h90v308h192q148 0 243 -92t95 -241q0 -91 -35 -166.5t-112.5 -125t-185.5 -49.5zM396 313h-184v-256h135q69 0 122 24t84 65t46.5 90t15.5 105q0 115 -76.5 195.5t-196.5 80.5h-130v-251h184v-53z" />
    <glyph glyph-name="dcroat" unicode="&#x111;" horiz-adv-x="555" 
d="M109 247q0 -87 42.5 -142t107.5 -55t112 47.5t47 158.5q0 56 -15.5 97.5t-40 63t-49 31t-48.5 9.5q-68 0 -112 -54.5t-44 -155.5zM479 0h-61v74q-53 -82 -157 -82q-102 0 -159 74.5t-57 181.5q0 118 61 192.5t157 74.5q99 0 155 -84v162h-205v48h205v66h61v-66h75v-48
h-75v-593z" />
    <glyph glyph-name="Emacron" unicode="&#x112;" horiz-adv-x="490" 
d="M445 0h-365v674h359v-57h-297v-252h262v-57h-262v-251h303v-57zM392 781h-263v45h263v-45z" />
    <glyph glyph-name="emacron" unicode="&#x113;" horiz-adv-x="519" 
d="M439 25q-60 -30 -140 -30q-113 0 -183.5 70.5t-70.5 185.5q0 122 62 192t161 70q93 0 148 -61t55 -172q0 -34 -4 -54h-358q7 -84 58 -128.5t135 -44.5q86 0 137 34v-62zM266 456q-64 0 -107 -45t-50 -129h299v23q0 69 -38.5 110t-103.5 41zM409 614h-263v45h263v-45z" />
    <glyph glyph-name="Edotaccent" unicode="&#x116;" horiz-adv-x="490" 
d="M445 0h-365v674h359v-57h-297v-252h262v-57h-262v-251h303v-57zM316 806q0 -18 -12 -30.5t-31 -12.5q-18 0 -30.5 12.5t-12.5 30.5q0 19 12.5 31t30.5 12q19 0 31 -12t12 -31z" />
    <glyph glyph-name="edotaccent" unicode="&#x117;" horiz-adv-x="519" 
d="M439 25q-60 -30 -140 -30q-113 0 -183.5 70.5t-70.5 185.5q0 122 62 192t161 70q93 0 148 -61t55 -172q0 -34 -4 -54h-358q7 -84 58 -128.5t135 -44.5q86 0 137 34v-62zM266 456q-64 0 -107 -45t-50 -129h299v23q0 69 -38.5 110t-103.5 41zM325 638q0 -18 -12 -30.5
t-31 -12.5q-18 0 -30.5 12.5t-12.5 30.5q0 19 12.5 31t30.5 12q19 0 31 -12t12 -31z" />
    <glyph glyph-name="Eogonek" unicode="&#x118;" horiz-adv-x="490" 
d="M355 -219q-28 -18 -71 -18q-55 0 -87 30.5t-32 77.5q0 75 79 129h-164v674h359v-57h-297v-252h262v-57h-262v-251h303v-57h-113q-111 -50 -111 -124q0 -32 19 -48.5t51 -16.5q37 0 64 20v-50z" />
    <glyph glyph-name="eogonek" unicode="&#x119;" horiz-adv-x="519" 
d="M266 456q-64 0 -107 -45t-50 -129h299v23q0 69 -38.5 110t-103.5 41zM368 -220q-28 -18 -71 -18q-55 0 -87 30.5t-32 77.5q0 74 77 128q-95 14 -152.5 82t-57.5 171q0 122 62 192t161 70q93 0 148 -61t55 -172q0 -34 -4 -54h-358q7 -84 58 -128.5t135 -44.5q86 0 137 34
v-62q-36 -18 -96 -27q-109 -50 -109 -123q0 -32 19 -48.5t51 -16.5q37 0 64 20v-50z" />
    <glyph glyph-name="Ecaron" unicode="&#x11a;" horiz-adv-x="490" 
d="M445 0h-365v674h359v-57h-297v-252h262v-57h-262v-251h303v-57zM301 728h-63l-119 150h64l87 -107l86 107h64z" />
    <glyph glyph-name="ecaron" unicode="&#x11b;" horiz-adv-x="519" 
d="M439 25q-60 -30 -140 -30q-113 0 -183.5 70.5t-70.5 185.5q0 122 62 192t161 70q93 0 148 -61t55 -172q0 -34 -4 -54h-358q7 -84 58 -128.5t135 -44.5q86 0 137 34v-62zM266 456q-64 0 -107 -45t-50 -129h299v23q0 69 -38.5 110t-103.5 41zM306 562h-63l-119 150h64
l87 -107l86 107h64z" />
    <glyph glyph-name="Gbreve" unicode="&#x11e;" horiz-adv-x="661" 
d="M591 50q-79 -58 -200 -58q-154 0 -247.5 92.5t-93.5 253.5q0 152 91.5 250t231.5 98q119 0 196 -47v-69q-77 54 -188 54q-118 0 -192.5 -78.5t-74.5 -207.5q0 -133 74 -208.5t204 -75.5q77 0 137 31v231h-159v55h221v-321zM521 879q0 -68 -37 -110.5t-118 -42.5
t-118 42.5t-37 110.5h52q0 -105 103 -105t103 105h52z" />
    <glyph glyph-name="gbreve" unicode="&#x11f;" horiz-adv-x="539" 
d="M469 39q0 -115 -62 -172.5t-160 -57.5q-87 0 -148 29v60q62 -31 143 -31q76 0 121 41.5t45 130.5v66q-51 -93 -152 -93q-88 0 -149.5 65t-61.5 176q0 114 56.5 188t148.5 74q109 0 158 -97v89h61v-468zM109 256q0 -91 46 -138.5t102 -47.5q57 0 104 44.5t47 136.5
q0 105 -45 155.5t-101 50.5q-71 0 -112 -56t-41 -145zM441 712q0 -68 -37 -110.5t-118 -42.5t-118 42.5t-37 110.5h52q0 -105 103 -105t103 105h52z" />
    <glyph glyph-name="uni0122" unicode="&#x122;" horiz-adv-x="661" 
d="M591 50q-79 -58 -200 -58q-154 0 -247.5 92.5t-93.5 253.5q0 152 91.5 250t231.5 98q119 0 196 -47v-69q-77 54 -188 54q-118 0 -192.5 -78.5t-74.5 -207.5q0 -133 74 -208.5t204 -75.5q77 0 137 31v231h-159v55h221v-321zM303 -238h-54l88 187h76z" />
    <glyph glyph-name="uni0123" unicode="&#x123;" horiz-adv-x="539" 
d="M469 39q0 -115 -62 -172.5t-160 -57.5q-87 0 -148 29v60q62 -31 143 -31q76 0 121 41.5t45 130.5v66q-51 -93 -152 -93q-88 0 -149.5 65t-61.5 176q0 114 56.5 188t148.5 74q109 0 158 -97v89h61v-468zM109 256q0 -91 46 -138.5t102 -47.5q57 0 104 44.5t47 136.5
q0 105 -45 155.5t-101 50.5q-71 0 -112 -56t-41 -145zM341 561h-76l110 187h54z" />
    <glyph glyph-name="Imacron" unicode="&#x12a;" horiz-adv-x="232" 
d="M147 0h-62v674h62v-674zM248 781h-263v45h263v-45z" />
    <glyph glyph-name="imacron" unicode="&#x12b;" horiz-adv-x="221" 
d="M141 0h-61v507h61v-507zM243 614h-263v45h263v-45z" />
    <glyph glyph-name="Iogonek" unicode="&#x12e;" horiz-adv-x="232" 
d="M170 -219q-28 -18 -71 -18q-55 0 -87 30.5t-32 77.5q0 44 29.5 82.5t75.5 62.5v658h62v-674q-111 -50 -111 -124q0 -32 19 -48.5t51 -16.5q37 0 64 20v-50z" />
    <glyph glyph-name="iogonek" unicode="&#x12f;" horiz-adv-x="221" 
d="M153 669q0 -18 -12.5 -30t-30.5 -12t-30 12t-12 30t12 30.5t30 12.5t30.5 -12.5t12.5 -30.5zM164 -219q-28 -18 -71 -18q-55 0 -87 30.5t-32 77.5q0 45 30 83.5t76 61.5v491h61v-507q-111 -50 -111 -124q0 -32 19 -48.5t51 -16.5q37 0 64 20v-50z" />
    <glyph glyph-name="Idotaccent" unicode="&#x130;" horiz-adv-x="232" 
d="M147 0h-62v674h62v-674zM160 807q0 -18 -12 -30.5t-31 -12.5q-18 0 -30.5 12.5t-12.5 30.5q0 19 12.5 31t30.5 12q19 0 31 -12t12 -31z" />
    <glyph glyph-name="dotlessi" unicode="&#x131;" horiz-adv-x="221" 
d="M141 0h-61v507h61v-507z" />
    <glyph glyph-name="uni0136" unicode="&#x136;" horiz-adv-x="549" 
d="M519 0h-82l-277 332l267 342h78l-266 -342zM213 -238h-54l88 187h76zM142 0h-62v674h62v-674z" />
    <glyph glyph-name="uni0137" unicode="&#x137;" horiz-adv-x="462" 
d="M137 0h-61v707h61v-707zM226 266l214 -266h-76l-212 266l206 241h75zM163 -238h-54l88 187h76z" />
    <glyph glyph-name="Lacute" unicode="&#x139;" horiz-adv-x="474" 
d="M439 0h-359v674h62v-617h297v-57zM310 729h-55l102 150h81z" />
    <glyph glyph-name="lacute" unicode="&#x13a;" horiz-adv-x="221" 
d="M141 0h-61v707h61v-707zM141 762h-55l102 150h81z" />
    <glyph glyph-name="uni013B" unicode="&#x13b;" horiz-adv-x="474" 
d="M193 -238h-54l88 187h76zM439 0h-359v674h62v-617h297v-57z" />
    <glyph glyph-name="uni013C" unicode="&#x13c;" horiz-adv-x="221" 
d="M141 0h-61v707h61v-707zM40 -238h-54l88 187h76z" />
    <glyph glyph-name="Lcaron" unicode="&#x13d;" horiz-adv-x="474" 
d="M439 0h-359v674h62v-617h297v-57zM294 515h-54l88 187h76z" />
    <glyph glyph-name="lcaron" unicode="&#x13e;" horiz-adv-x="254" 
d="M141 0h-61v707h61v-707zM265 520h-54l88 187h76z" />
    <glyph glyph-name="Lslash" unicode="&#x141;" horiz-adv-x="483" 
d="M297 410l-146 -108v-245h297v-57h-359v256l-64 -48v66l64 48v352h62v-306l146 108v-66z" />
    <glyph glyph-name="lslash" unicode="&#x142;" horiz-adv-x="278" 
d="M162 0h-61v315l-66 -47v66l66 47v326h61v-282l81 58v-66l-81 -58v-359z" />
    <glyph glyph-name="Nacute" unicode="&#x143;" horiz-adv-x="667" 
d="M142 0h-62v674h85l172 -285l190 -316q-2 104 -2 315v286h62v-674h-85l-171 283l-191 318q2 -108 2 -316v-285zM387 728h-55l102 150h81z" />
    <glyph glyph-name="nacute" unicode="&#x144;" horiz-adv-x="529" 
d="M459 0h-61v335q0 59 -30 90t-79 31q-62 0 -107 -47.5t-45 -128.5v-280h-61v507h61v-87q47 95 161 95q73 0 117 -45t44 -116v-354zM323 562h-55l102 150h81z" />
    <glyph glyph-name="uni0145" unicode="&#x145;" horiz-adv-x="667" 
d="M142 0h-62v674h85l172 -285l190 -316q-2 104 -2 315v286h62v-674h-85l-171 283l-191 318q2 -108 2 -316v-285zM274 -238h-54l88 187h76z" />
    <glyph glyph-name="uni0146" unicode="&#x146;" horiz-adv-x="529" 
d="M459 0h-61v335q0 59 -30 90t-79 31q-62 0 -107 -47.5t-45 -128.5v-280h-61v507h61v-87q47 95 161 95q73 0 117 -45t44 -116v-354zM203 -238h-54l88 187h76z" />
    <glyph glyph-name="Ncaron" unicode="&#x147;" horiz-adv-x="667" 
d="M142 0h-62v674h85l172 -285l190 -316q-2 104 -2 315v286h62v-674h-85l-171 283l-191 318q2 -108 2 -316v-285zM384 729h-63l-119 150h64l87 -107l86 107h64z" />
    <glyph glyph-name="ncaron" unicode="&#x148;" horiz-adv-x="529" 
d="M459 0h-61v335q0 59 -30 90t-79 31q-62 0 -107 -47.5t-45 -128.5v-280h-61v507h61v-87q47 95 161 95q73 0 117 -45t44 -116v-354zM316 562h-63l-119 150h64l87 -107l86 107h64z" />
    <glyph glyph-name="Omacron" unicode="&#x14c;" horiz-adv-x="691" 
d="M641 340q0 -160 -79 -254t-215 -94q-134 0 -215.5 95t-81.5 253q0 159 79.5 253.5t215.5 94.5q140 0 218 -93.5t78 -254.5zM114 340q0 -133 63.5 -210.5t169.5 -77.5q110 0 170 76.5t60 211.5q0 136 -60.5 212t-171.5 76q-108 0 -169.5 -76.5t-61.5 -211.5zM479 781h-263
v45h263v-45z" />
    <glyph glyph-name="omacron" unicode="&#x14d;" horiz-adv-x="561" 
d="M516 251q0 -113 -63.5 -186.5t-174.5 -73.5q-107 0 -170 74t-63 186q0 111 65 187t168 76q113 0 175.5 -74.5t62.5 -188.5zM109 251q0 -83 46.5 -142.5t122.5 -59.5q83 0 128.5 58.5t45.5 143.5q0 88 -43 146.5t-131 58.5q-79 0 -124 -60t-45 -145zM415 614h-263v45h263
v-45z" />
    <glyph glyph-name="Ohungarumlaut" unicode="&#x150;" horiz-adv-x="691" 
d="M641 340q0 -160 -79 -254t-215 -94q-134 0 -215.5 95t-81.5 253q0 159 79.5 253.5t215.5 94.5q140 0 218 -93.5t78 -254.5zM114 340q0 -133 63.5 -210.5t169.5 -77.5q110 0 170 76.5t60 211.5q0 136 -60.5 212t-171.5 76q-108 0 -169.5 -76.5t-61.5 -211.5zM461 729h-49
l103 150h81zM313 729h-49l99 150h81z" />
    <glyph glyph-name="ohungarumlaut" unicode="&#x151;" horiz-adv-x="561" 
d="M516 251q0 -113 -63.5 -186.5t-174.5 -73.5q-107 0 -170 74t-63 186q0 111 65 187t168 76q113 0 175.5 -74.5t62.5 -188.5zM109 251q0 -83 46.5 -142.5t122.5 -59.5q83 0 128.5 58.5t45.5 143.5q0 88 -43 146.5t-131 58.5q-79 0 -124 -60t-45 -145zM401 562h-49l103 150
h81zM253 562h-49l99 150h81z" />
    <glyph glyph-name="OE" unicode="&#x152;" horiz-adv-x="979" 
d="M114 340q0 -134 61.5 -211t166.5 -77q110 0 168.5 76t58.5 212t-59 212t-170 76q-108 0 -167 -76.5t-59 -211.5zM934 0h-365v106q-77 -114 -227 -114q-133 0 -212.5 94.5t-79.5 253.5q0 160 77.5 254t212.5 94q152 0 229 -112v98h359v-57h-297v-252h262v-57h-262v-251
h303v-57z" />
    <glyph glyph-name="oe" unicode="&#x153;" horiz-adv-x="896" 
d="M109 251q0 -85 42 -143.5t117 -58.5q82 0 120.5 57t38.5 145q0 205 -159 205q-78 0 -118.5 -59t-40.5 -146zM651 456q-63 0 -107 -44t-52 -130h297v23q0 73 -38.5 112t-99.5 39zM815 25q-60 -30 -137 -30q-70 0 -126.5 30t-89.5 85q-56 -119 -194 -119
q-106 0 -164.5 73.5t-58.5 186.5q0 112 60.5 187.5t162.5 75.5q136 0 192 -114q60 113 193 113q97 0 148 -62t51 -176q0 -29 -4 -49h-356q7 -84 59 -128.5t130 -44.5q83 0 134 34v-62z" />
    <glyph glyph-name="Racute" unicode="&#x154;" horiz-adv-x="531" 
d="M239 619h-97v-290h109q74 0 114 41t40 102q0 147 -166 147zM244 274h-102v-274h-62v674h152q118 0 176.5 -53.5t58.5 -151.5q-2 -68 -38 -117t-102 -67l179 -285h-74l-169 275q-6 -1 -19 -1zM291 729h-55l102 150h81z" />
    <glyph glyph-name="racute" unicode="&#x155;" horiz-adv-x="314" 
d="M137 0h-61v507h61v-86q42 92 142 92q7 0 25 -2v-62q-20 6 -40 6q-54 0 -90.5 -53.5t-36.5 -118.5v-283zM225 562h-55l102 150h81z" />
    <glyph glyph-name="uni0156" unicode="&#x156;" horiz-adv-x="531" 
d="M239 619h-97v-290h109q74 0 114 41t40 102q0 147 -166 147zM244 274h-102v-274h-62v674h152q118 0 176.5 -53.5t58.5 -151.5q-2 -68 -38 -117t-102 -67l179 -285h-74l-169 275q-6 -1 -19 -1zM209 -238h-54l88 187h76z" />
    <glyph glyph-name="uni0157" unicode="&#x157;" horiz-adv-x="314" 
d="M34 -238h-54l88 187h76zM137 0h-61v507h61v-86q42 92 142 92q7 0 25 -2v-62q-20 6 -40 6q-54 0 -90.5 -53.5t-36.5 -118.5v-283z" />
    <glyph glyph-name="Rcaron" unicode="&#x158;" horiz-adv-x="531" 
d="M239 619h-97v-290h109q74 0 114 41t40 102q0 147 -166 147zM244 274h-102v-274h-62v674h152q118 0 176.5 -53.5t58.5 -151.5q-2 -68 -38 -117t-102 -67l179 -285h-74l-169 275q-6 -1 -19 -1zM300 728h-63l-119 150h64l87 -107l86 107h64z" />
    <glyph glyph-name="rcaron" unicode="&#x159;" horiz-adv-x="314" 
d="M137 0h-61v507h61v-86q42 92 142 92q7 0 25 -2v-62q-20 6 -40 6q-54 0 -90.5 -53.5t-36.5 -118.5v-283zM231 561h-63l-119 150h64l87 -107l86 107h64z" />
    <glyph glyph-name="Sacute" unicode="&#x15a;" horiz-adv-x="527" 
d="M462 174q0 -88 -59 -134.5t-151 -46.5q-104 0 -177 44v69q30 -23 77.5 -38t96.5 -15q71 0 110.5 31t39.5 89q0 44 -30 71.5t-87 52.5q-8 4 -35 15.5t-38 16.5t-34 17t-33.5 21t-26.5 24t-23 30t-13 35.5t-6 43.5q0 85 61 132.5t149 47.5q84 0 140 -30v-69q-24 16 -63 27
t-76 11q-67 0 -107 -31.5t-40 -83.5q0 -27 10.5 -48t35.5 -38.5t43.5 -27t56.5 -25.5q35 -15 53 -23.5t46 -26.5t42.5 -35.5t26 -45t11.5 -60.5zM314 728h-55l102 150h81z" />
    <glyph glyph-name="sacute" unicode="&#x15b;" horiz-adv-x="406" 
d="M371 130q0 -63 -43.5 -99.5t-119.5 -36.5q-92 0 -148 30v63q67 -38 144 -38q51 0 77.5 21t26.5 55q0 40 -27.5 62t-90.5 47q-61 24 -97 56t-36 88q0 61 45 97.5t113 36.5q82 0 126 -23v-61q-47 27 -127 27q-44 0 -69.5 -20.5t-25.5 -53.5q0 -20 7.5 -35t26 -27.5
t31.5 -18.5t42 -18q70 -28 107.5 -61.5t37.5 -90.5zM245 562h-55l102 150h81z" />
    <glyph glyph-name="uni015E" unicode="&#x15e;" horiz-adv-x="527" 
d="M462 174q0 -88 -59 -134.5t-151 -46.5q-104 0 -177 44v69q30 -23 77.5 -38t96.5 -15q71 0 110.5 31t39.5 89q0 44 -30 71.5t-87 52.5q-8 4 -35 15.5t-38 16.5t-34 17t-33.5 21t-26.5 24t-23 30t-13 35.5t-6 43.5q0 85 61 132.5t149 47.5q84 0 140 -30v-69q-24 16 -63 27
t-76 11q-67 0 -107 -31.5t-40 -83.5q0 -27 10.5 -48t35.5 -38.5t43.5 -27t56.5 -25.5q35 -15 53 -23.5t46 -26.5t42.5 -35.5t26 -45t11.5 -60.5zM306 -121q0 -52 -37 -88t-106 -39v49q87 9 87 73q0 37 -23 75h61q18 -26 18 -70z" />
    <glyph glyph-name="uni015F" unicode="&#x15f;" horiz-adv-x="406" 
d="M371 130q0 -63 -43.5 -99.5t-119.5 -36.5q-92 0 -148 30v63q67 -38 144 -38q51 0 77.5 21t26.5 55q0 40 -27.5 62t-90.5 47q-61 24 -97 56t-36 88q0 61 45 97.5t113 36.5q82 0 126 -23v-61q-47 27 -127 27q-44 0 -69.5 -20.5t-25.5 -53.5q0 -20 7.5 -35t26 -27.5
t31.5 -18.5t42 -18q70 -28 107.5 -61.5t37.5 -90.5zM271 -121q0 -52 -37 -88t-106 -39v49q87 9 87 73q0 37 -23 75h61q18 -26 18 -70z" />
    <glyph glyph-name="Scaron" unicode="&#x160;" horiz-adv-x="527" 
d="M462 174q0 -88 -59 -134.5t-151 -46.5q-104 0 -177 44v69q30 -23 77.5 -38t96.5 -15q71 0 110.5 31t39.5 89q0 44 -30 71.5t-87 52.5q-8 4 -35 15.5t-38 16.5t-34 17t-33.5 21t-26.5 24t-23 30t-13 35.5t-6 43.5q0 85 61 132.5t149 47.5q84 0 140 -30v-69q-24 16 -63 27
t-76 11q-67 0 -107 -31.5t-40 -83.5q0 -27 10.5 -48t35.5 -38.5t43.5 -27t56.5 -25.5q35 -15 53 -23.5t46 -26.5t42.5 -35.5t26 -45t11.5 -60.5zM294 728h-63l-119 150h64l87 -107l86 107h64z" />
    <glyph glyph-name="scaron" unicode="&#x161;" horiz-adv-x="406" 
d="M371 130q0 -63 -43.5 -99.5t-119.5 -36.5q-92 0 -148 30v63q67 -38 144 -38q51 0 77.5 21t26.5 55q0 40 -27.5 62t-90.5 47q-61 24 -97 56t-36 88q0 61 45 97.5t113 36.5q82 0 126 -23v-61q-47 27 -127 27q-44 0 -69.5 -20.5t-25.5 -53.5q0 -20 7.5 -35t26 -27.5
t31.5 -18.5t42 -18q70 -28 107.5 -61.5t37.5 -90.5zM260 562h-63l-119 150h64l87 -107l86 107h64z" />
    <glyph glyph-name="uni0162" unicode="&#x162;" horiz-adv-x="465" 
d="M450 617h-187v-617h-62v617h-186v57h435v-57zM281 -121q0 -52 -37 -88t-106 -39v49q87 9 87 73q0 37 -23 75h61q18 -26 18 -70z" />
    <glyph glyph-name="uni0163" unicode="&#x163;" horiz-adv-x="364" 
d="M319 14q-29 -19 -67 -19q-144 0 -144 148v312h-83v52h83v127h62v-127h145v-52h-145v-315q0 -87 81 -87q40 0 68 23v-62zM241 -121q0 -52 -37 -88t-106 -39v49q87 9 87 73q0 37 -23 75h61q18 -26 18 -70z" />
    <glyph glyph-name="Tcaron" unicode="&#x164;" horiz-adv-x="465" 
d="M450 617h-187v-617h-62v617h-186v57h435v-57zM265 729h-63l-119 150h64l87 -107l86 107h64z" />
    <glyph glyph-name="tcaron" unicode="&#x165;" horiz-adv-x="364" 
d="M319 14q-29 -19 -67 -19q-144 0 -144 148v312h-83v52h83v127h62v-127h145v-52h-145v-315q0 -87 81 -87q40 0 68 23v-62zM285 562h-54l88 187h76z" />
    <glyph glyph-name="Umacron" unicode="&#x16a;" horiz-adv-x="639" 
d="M559 255q0 -130 -63 -196.5t-178 -66.5q-113 0 -175.5 65t-62.5 190v427h62v-426q0 -101 47.5 -148.5t128.5 -47.5q179 0 179 201v421h62v-419zM453 781h-263v45h263v-45z" />
    <glyph glyph-name="umacron" unicode="&#x16b;" horiz-adv-x="529" 
d="M453 0h-61v91q-40 -98 -161 -98q-74 0 -117.5 44.5t-43.5 117.5v352h61v-335q0 -58 30.5 -89t80.5 -31q67 0 108.5 48t41.5 125v282h61v-507zM393 614h-263v45h263v-45z" />
    <glyph glyph-name="Uring" unicode="&#x16e;" horiz-adv-x="639" 
d="M559 255q0 -130 -63 -196.5t-178 -66.5q-113 0 -175.5 65t-62.5 190v427h62v-426q0 -101 47.5 -148.5t128.5 -47.5q179 0 179 201v421h62v-419zM421 816q0 -41 -29 -69.5t-70 -28.5q-40 0 -69 29t-29 69q0 41 28.5 70t69.5 29t70 -29t29 -70zM269 816q0 -22 15.5 -37.5
t37.5 -15.5t38 15.5t16 37.5t-16 38t-38 16t-37.5 -16t-15.5 -38z" />
    <glyph glyph-name="uring" unicode="&#x16f;" horiz-adv-x="529" 
d="M453 0h-61v91q-40 -98 -161 -98q-74 0 -117.5 44.5t-43.5 117.5v352h61v-335q0 -58 30.5 -89t80.5 -31q67 0 108.5 48t41.5 125v282h61v-507zM369 650q0 -41 -29 -69.5t-70 -28.5q-40 0 -69 29t-29 69q0 41 28.5 70t69.5 29t70 -29t29 -70zM217 650q0 -22 15.5 -37.5
t37.5 -15.5t38 15.5t16 37.5t-16 38t-38 16t-37.5 -16t-15.5 -38z" />
    <glyph glyph-name="Uhungarumlaut" unicode="&#x170;" horiz-adv-x="639" 
d="M559 255q0 -130 -63 -196.5t-178 -66.5q-113 0 -175.5 65t-62.5 190v427h62v-426q0 -101 47.5 -148.5t128.5 -47.5q179 0 179 201v421h62v-419zM413 729h-49l103 150h81zM265 729h-49l99 150h81z" />
    <glyph glyph-name="uhungarumlaut" unicode="&#x171;" horiz-adv-x="529" 
d="M453 0h-61v91q-40 -98 -161 -98q-74 0 -117.5 44.5t-43.5 117.5v352h61v-335q0 -58 30.5 -89t80.5 -31q67 0 108.5 48t41.5 125v282h61v-507zM362 562h-49l103 150h81zM214 562h-49l99 150h81z" />
    <glyph glyph-name="Uogonek" unicode="&#x172;" horiz-adv-x="639" 
d="M559 255q0 -200 -148 -249q-110 -50 -110 -124q0 -32 19 -48.5t51 -16.5q37 0 64 20v-50q-28 -18 -71 -18q-55 0 -87 30.5t-32 77.5q0 64 61 115q-108 4 -167 69t-59 186v427h62v-426q0 -101 47.5 -148.5t128.5 -47.5q179 0 179 201v421h62v-419z" />
    <glyph glyph-name="uogonek" unicode="&#x173;" horiz-adv-x="529" 
d="M476 -219q-28 -18 -71 -18q-55 0 -87 30.5t-32 77.5q0 45 30 83.5t76 61.5v75q-40 -98 -161 -98q-74 0 -117.5 44.5t-43.5 117.5v352h61v-335q0 -58 30.5 -89t80.5 -31q67 0 108.5 48t41.5 125v282h61v-507q-111 -50 -111 -124q0 -32 19 -48.5t51 -16.5q37 0 64 20v-50z
" />
    <glyph glyph-name="Ydieresis" unicode="&#x178;" horiz-adv-x="580" 
d="M320 252v-252h-62v252l-228 422h71l53 -99l135 -260q8 19 137 260l53 99h71zM424 804q0 -18 -12 -30.5t-31 -12.5q-18 0 -30.5 12.5t-12.5 30.5q0 19 12.5 31t30.5 12q19 0 31 -12t12 -31zM240 804q0 -18 -12.5 -30.5t-30.5 -12.5q-19 0 -31 12.5t-12 30.5q0 19 12 31
t31 12q18 0 30.5 -12t12.5 -31z" />
    <glyph glyph-name="Zacute" unicode="&#x179;" horiz-adv-x="555" 
d="M505 0h-455v55l370 564h-366v55h436v-55l-370 -564h385v-55zM316 729h-55l102 150h81z" />
    <glyph glyph-name="zacute" unicode="&#x17a;" horiz-adv-x="446" 
d="M401 0h-356v51l266 397h-256v59h332v-46l-270 -401h284v-60zM255 562h-55l102 150h81z" />
    <glyph glyph-name="Zdotaccent" unicode="&#x17b;" horiz-adv-x="555" 
d="M505 0h-455v55l370 564h-366v55h436v-55l-370 -564h385v-55zM325 807q0 -18 -12 -30.5t-31 -12.5q-18 0 -30.5 12.5t-12.5 30.5q0 19 12.5 31t30.5 12q19 0 31 -12t12 -31z" />
    <glyph glyph-name="zdotaccent" unicode="&#x17c;" horiz-adv-x="446" 
d="M401 0h-356v51l266 397h-256v59h332v-46l-270 -401h284v-60zM283 637q0 -18 -12 -30.5t-31 -12.5q-18 0 -30.5 12.5t-12.5 30.5q0 19 12.5 31t30.5 12q19 0 31 -12t12 -31z" />
    <glyph glyph-name="Zcaron" unicode="&#x17d;" horiz-adv-x="555" 
d="M505 0h-455v55l370 564h-366v55h436v-55l-370 -564h385v-55zM305 729h-63l-119 150h64l87 -107l86 107h64z" />
    <glyph glyph-name="zcaron" unicode="&#x17e;" horiz-adv-x="446" 
d="M401 0h-356v51l266 397h-256v59h332v-46l-270 -401h284v-60zM269 562h-63l-119 150h64l87 -107l86 107h64z" />
    <glyph glyph-name="florin" unicode="&#x192;" horiz-adv-x="357" 
d="M135 -90q-15 -85 -50 -126t-100 -41q-37 0 -61 8v60q27 -10 57 -10q73 0 94 116l71 398h-100v52h109l26 147q15 85 50 126t100 41q37 0 61 -8v-60q-27 10 -57 10q-73 0 -94 -116l-25 -140h100v-52h-109z" />
    <glyph glyph-name="uni0218" unicode="&#x218;" horiz-adv-x="527" 
d="M462 174q0 -88 -59 -134.5t-151 -46.5q-104 0 -177 44v69q30 -23 77.5 -38t96.5 -15q71 0 110.5 31t39.5 89q0 44 -30 71.5t-87 52.5q-8 4 -35 15.5t-38 16.5t-34 17t-33.5 21t-26.5 24t-23 30t-13 35.5t-6 43.5q0 85 61 132.5t149 47.5q84 0 140 -30v-69q-24 16 -63 27
t-76 11q-67 0 -107 -31.5t-40 -83.5q0 -27 10.5 -48t35.5 -38.5t43.5 -27t56.5 -25.5q35 -15 53 -23.5t46 -26.5t42.5 -35.5t26 -45t11.5 -60.5zM194 -238h-54l88 187h76z" />
    <glyph glyph-name="uni0219" unicode="&#x219;" horiz-adv-x="406" 
d="M371 130q0 -63 -43.5 -99.5t-119.5 -36.5q-92 0 -148 30v63q67 -38 144 -38q51 0 77.5 21t26.5 55q0 40 -27.5 62t-90.5 47q-61 24 -97 56t-36 88q0 61 45 97.5t113 36.5q82 0 126 -23v-61q-47 27 -127 27q-44 0 -69.5 -20.5t-25.5 -53.5q0 -20 7.5 -35t26 -27.5
t31.5 -18.5t42 -18q70 -28 107.5 -61.5t37.5 -90.5zM143 -238h-54l88 187h76z" />
    <glyph glyph-name="uni021A" unicode="&#x21a;" horiz-adv-x="465" 
d="M157 -238h-54l88 187h76zM450 617h-187v-617h-62v617h-186v57h435v-57z" />
    <glyph glyph-name="uni021B" unicode="&#x21b;" horiz-adv-x="364" 
d="M319 14q-29 -19 -67 -19q-144 0 -144 148v312h-83v52h83v127h62v-127h145v-52h-145v-315q0 -87 81 -87q40 0 68 23v-62zM167 -238h-54l88 187h76z" />
    <glyph glyph-name="circumflex" unicode="&#x2c6;" horiz-adv-x="400" 
d="M113 648h-64l119 150h63l119 -150h-64l-87 107z" />
    <glyph glyph-name="caron" unicode="&#x2c7;" horiz-adv-x="400" 
d="M231 648h-63l-119 150h64l87 -107l86 107h64z" />
    <glyph glyph-name="uni02C9" unicode="&#x2c9;" horiz-adv-x="400" 
d="M331 704h-263v45h263v-45z" />
    <glyph glyph-name="breve" unicode="&#x2d8;" horiz-adv-x="400" 
d="M355 798q0 -68 -37 -110.5t-118 -42.5t-118 42.5t-37 110.5h52q0 -105 103 -105t103 105h52z" />
    <glyph glyph-name="dotaccent" unicode="&#x2d9;" horiz-adv-x="400" 
d="M243 727q0 -18 -12 -30.5t-31 -12.5q-18 0 -30.5 12.5t-12.5 30.5q0 19 12.5 31t30.5 12q19 0 31 -12t12 -31z" />
    <glyph glyph-name="ring" unicode="&#x2da;" horiz-adv-x="400" 
d="M298 723q0 -41 -29 -69.5t-70 -28.5t-69.5 28.5t-28.5 69.5t28.5 70t69.5 29t70 -29t29 -70zM146 723q0 -22 15.5 -37.5t37.5 -15.5t38 15.5t16 37.5q0 23 -15.5 38.5t-38.5 15.5q-22 0 -37.5 -16t-15.5 -38z" />
    <glyph glyph-name="ogonek" unicode="&#x2db;" horiz-adv-x="400" 
d="M295 -209q-28 -18 -71 -18q-55 0 -87 30.5t-32 77.5q0 53 41.5 97t99.5 63l26 -31q-111 -50 -111 -124q0 -32 19 -48.5t51 -16.5q37 0 64 20v-50z" />
    <glyph glyph-name="tilde" unicode="&#x2dc;" horiz-adv-x="400" 
d="M153 714q-42 0 -67 -49l-36 30q13 29 39.5 48.5t57.5 19.5q28 0 71.5 -23t61.5 -23q30 0 50 43l42 -28q-30 -64 -89 -64q-25 0 -69.5 23t-60.5 23z" />
    <glyph glyph-name="hungarumlaut" unicode="&#x2dd;" horiz-adv-x="400" 
d="M231 648h-49l103 150h81zM83 648h-49l99 150h81z" />
    <glyph glyph-name="pi" unicode="&#x3c0;" horiz-adv-x="576" 
d="M556 455h-100v-455h-61v455h-209v-303q0 -84 -38.5 -118t-106.5 -34v56q47 0 65.5 19.5t18.5 75.5v304h-100v52h531v-52z" />
    <glyph glyph-name="tlArasunna" unicode="&#xc01;" horiz-adv-x="266" 
d="M246 43v-52q-88 0 -145.5 78.5t-57.5 203.5t57.5 203.5t145.5 78.5v-53q-61 0 -101 -61t-40 -168t40 -168.5t101 -61.5z" />
    <glyph glyph-name="tlAnusvara" unicode="&#xc02;" horiz-adv-x="561" 
d="M516 272q0 -129 -65.5 -205t-170.5 -76q-106 0 -171.5 76t-65.5 204q0 125 66 200t171 75t170.5 -74.5t65.5 -199.5zM106 271q0 -103 49 -165.5t125 -62.5q75 0 124.5 62.5t49.5 164.5q0 101 -49 162.5t-125 61.5t-125 -61.5t-49 -161.5z" />
    <glyph glyph-name="tlVisarga" unicode="&#xc03;" horiz-adv-x="339" 
d="M299 429q0 -57 -35.5 -91.5t-94.5 -34.5t-94 34.5t-35 91.5q0 53 35.5 89.5t93.5 36.5q59 0 94.5 -35.5t35.5 -90.5zM299 117q0 -56 -35.5 -91t-94.5 -35t-94 35t-35 91q0 53 35.5 89.5t93.5 36.5q59 0 94.5 -35.5t35.5 -90.5zM100 117q0 -33 18.5 -53.5t50.5 -20.5
q33 0 50.5 20t17.5 54t-18 54.5t-50 20.5q-31 0 -50 -20.5t-19 -54.5zM100 429q0 -34 18.5 -54.5t50.5 -20.5q33 0 50.5 20t17.5 55q0 34 -18 54.5t-50 20.5q-31 0 -50 -21t-19 -54z" />
    <glyph glyph-name="tlA" unicode="&#xc05;" horiz-adv-x="793" 
d="M753 339q0 -158 -102.5 -253t-259.5 -95q-146 0 -248.5 92.5t-102.5 241.5q0 96 50.5 163.5t126.5 67.5q64 0 102.5 -40.5t38.5 -96.5q0 -60 -38.5 -101t-103.5 -41q-45 0 -78 24.5t-45 66.5q-2 -18 -2 -28q0 -134 87 -215.5t212 -81.5q135 0 217.5 81t82.5 219
q0 71 -29.5 116t-77.5 45q-38 0 -59.5 -25.5t-21.5 -64.5q0 -36 24.5 -68.5t68.5 -39.5v-54h-256v54h168q-63 37 -63 115q0 55 40 95t94 40q78 0 126.5 -60.5t48.5 -156.5zM126 416q0 -37 24 -62t63 -25t61 26.5t22 63.5q0 36 -22.5 60t-61.5 24q-38 0 -62 -27t-24 -60z" />
    <glyph glyph-name="tlAA" unicode="&#xc06;" horiz-adv-x="755" 
d="M512 430q0 -8 1 -15.5t4.5 -15t5.5 -13t8 -13.5l9 -12t11 -12.5t11 -11.5l12.5 -12.5l11.5 -11.5q37 12 57.5 39.5t20.5 65.5q0 37 -22 61.5t-58 24.5q-33 0 -52.5 -21.5t-19.5 -52.5zM646 203q0 -92 -79 -152t-199 -60q-143 0 -236.5 92t-93.5 243q0 95 50.5 162.5
t126.5 67.5q64 0 102.5 -40.5t38.5 -96.5q0 -60 -38.5 -101t-103.5 -41q-45 0 -78 24.5t-45 66.5q-2 -20 -2 -28q0 -135 79 -216t202 -81q97 0 155.5 44t58.5 116q0 25 -17 51q-20 -3 -40 -3h-190v54h181q-20 19 -31.5 33.5t-22 39t-10.5 52.5q0 55 37 90.5t94 35.5
q60 0 98.5 -39.5t38.5 -98.5q0 -50 -25.5 -89t-72.5 -60q22 -32 22 -66zM124 416q0 -37 24 -62t63 -25t61 26.5t22 63.5q0 36 -22.5 60t-61.5 24q-38 0 -62 -27t-24 -60z" />
    <glyph glyph-name="tlI" unicode="&#xc07;" horiz-adv-x="599" 
d="M482 -48h-60q0 50 -9 91q-68 -52 -153 -52q-75 0 -122 33t-47 95q0 57 47.5 94.5t115.5 37.5q118 0 181 -107q64 90 64 204q0 67 -24 111t-72 44q-44 0 -66.5 -32t-22.5 -84v-35h-62v37q0 48 -25 81t-68 33t-65.5 -30t-22.5 -75q0 -36 12 -72h-62q-11 32 -11 73
q0 66 39.5 111.5t105.5 45.5q55 0 88.5 -31t39.5 -80q5 49 39 80t86 31q73 0 112 -59.5t39 -149.5q0 -67 -25.5 -137.5t-72.5 -122.5q21 -60 21 -135zM260 43q75 0 136 56q-43 99 -141 99q-44 0 -72.5 -22.5t-28.5 -59.5q0 -35 27.5 -54t78.5 -19z" />
    <glyph glyph-name="tlII" unicode="&#xc08;" horiz-adv-x="911" 
d="M882 149q0 -55 -37.5 -89.5t-95.5 -34.5t-92.5 30.5t-34.5 83.5q0 52 50 106h-5h-104q-7 -117 -71.5 -185.5t-163.5 -68.5q-101 0 -165 68t-71 186h-62v51h62q5 94 50.5 157t119.5 84l-86 105h77l76 -96l161 211h73l-169 -220q73 -21 118.5 -84t50.5 -157h99q37 0 62 -4
q25 21 38.5 33.5t25.5 31t12 35.5q0 32 -21 49.5t-59 17.5q-39 0 -87 -24v55q48 21 103 21q57 0 91.5 -32.5t34.5 -80.5q0 -57 -75 -122q95 -37 95 -127zM750 77q32 0 51.5 18.5t19.5 48.5q0 71 -80 93q-58 -53 -58 -98q0 -29 18 -45.5t49 -16.5zM328 494q-71 0 -119 -53.5
t-55 -144.5h346q-7 90 -54.5 144t-117.5 54zM328 43q70 0 118 55t54 147h-346q7 -92 55 -147t119 -55z" />
    <glyph glyph-name="tlU" unicode="&#xc09;" horiz-adv-x="770" 
d="M398 101q-6 -48 -41.5 -79t-91.5 -31q-82 0 -131.5 56.5t-49.5 158.5q0 49 13 94h-83v50h101q35 76 101 128.5t155 63.5l-2 104h63l-3 -101q104 -3 204 -55v-64q-110 67 -216 67q-78 0 -138 -39.5t-94 -103.5h570v-50h-47q30 -43 30 -100q0 -90 -48.5 -149.5
t-132.5 -59.5q-64 0 -107 31.5t-52 78.5zM558 38q43 0 75.5 28.5t44.5 72.5q-28 -30 -73 -30q-50 0 -83.5 33t-33.5 82q0 41 24 76h-349q-16 -47 -16 -96q0 -77 32.5 -119t87.5 -42q46 0 72.5 33.5t26.5 88.5v44h61v-34q0 -59 35.5 -98t95.5 -39zM545 226q0 -29 18 -48.5
t50 -19.5q30 0 48.5 21.5t18.5 49.5q0 29 -18 50t-49 21q-32 0 -50 -21.5t-18 -52.5z" />
    <glyph glyph-name="tlUU" unicode="&#xc0a;" horiz-adv-x="1060" 
d="M1031 206q0 -56 -37.5 -90.5t-95.5 -34.5q-57 0 -91.5 31t-34.5 84q0 55 51 104h-7h-108q30 -43 30 -100q0 -90 -48.5 -149.5t-132.5 -59.5q-64 0 -107 31.5t-52 78.5q-6 -48 -41.5 -79t-91.5 -31q-82 0 -131.5 56.5t-49.5 158.5q0 49 13 94h-83v50h101q63 137 199 179
l-3 117h63l-2 -104q23 3 47 3h21l-3 101h63l-3 -108q64 -12 136 -48v-64q-110 67 -216 67q-78 0 -138 -39.5t-94 -103.5h626q33 0 66 -5q26 21 37.5 31.5t23 28t11.5 34.5q0 58 -72 58q-47 0 -96 -27v55q53 24 104 24q59 0 93 -28.5t34 -75.5q0 -34 -19 -60.5t-54 -54.5
q92 -37 92 -124zM899 133q32 0 51.5 19t19.5 48q0 72 -79 92q-59 -50 -59 -96q0 -30 18.5 -46.5t48.5 -16.5zM558 38q43 0 75.5 28.5t44.5 72.5q-28 -30 -73 -30q-50 0 -83.5 33t-33.5 82q0 41 24 76h-349q-16 -47 -16 -96q0 -77 32.5 -119t87.5 -42q46 0 72.5 33.5
t26.5 88.5v44h61v-34q0 -59 35.5 -98t95.5 -39zM545 226q0 -29 18 -48.5t50 -19.5q30 0 48.5 21.5t18.5 49.5q0 29 -18 50t-49 21q-32 0 -50 -21.5t-18 -52.5z" />
    <glyph glyph-name="tlvR" unicode="&#xc0b;" horiz-adv-x="1395" 
d="M346 99q-13 -52 -52.5 -80t-100.5 -28q-70 0 -114 39t-44 102q0 38 16.5 69.5t41.5 51.5t54.5 41t54.5 37.5t41.5 40t16.5 50.5q0 38 -18.5 60t-52.5 22t-55 -21.5t-21 -62.5q0 -16 5 -41h-60q-6 23 -6 44q0 59 37 96.5t100 37.5q62 0 97.5 -39.5t35.5 -94.5
q0 -41 -23 -74t-56 -56t-66 -45t-56 -51.5t-23 -64.5q0 -41 26 -65t73 -24q53 0 85.5 34.5t32.5 87.5v44h62v-44q0 -54 28.5 -88t77.5 -34q60 0 90.5 60t30.5 153q0 108 -43.5 173.5t-124.5 65.5q-16 0 -32 -3v57q14 3 30 3q107 0 167.5 -79t64.5 -203q0 -108 39 -167.5
t104 -59.5q58 0 97.5 55.5t39.5 157.5q0 101 -57 168.5t-146 67.5v55q121 0 193 -83.5t72 -201.5v-1q0 -108 38.5 -163t104.5 -55q58 0 97.5 56t39.5 157t-57.5 168.5t-146.5 67.5v55q121 0 193.5 -83.5t72.5 -201.5q0 -136 -55 -203.5t-144 -67.5q-122 0 -167 122
q-49 -122 -175 -122q-118 0 -165 123q-46 -123 -160 -123q-57 0 -93.5 28t-44.5 80z" />
    <glyph glyph-name="tlvL" unicode="&#xc0c;" horiz-adv-x="939" 
d="M894 244q0 -161 -97.5 -260t-235.5 -99q-102 0 -165.5 46t-63.5 127q0 50 26 88.5t63.5 63.5t75 48.5t63.5 57t26 76.5q0 49 -29.5 80t-78.5 31q-58 0 -87 -39.5t-29 -92.5v-40h-61v40q0 56 -29 94t-86 38q-49 0 -76.5 -35.5t-27.5 -81.5q0 -48 24 -97h-63
q-23 45 -23 100q0 67 45 117t120 50q67 0 105 -35.5t42 -84.5q2 47 42.5 83.5t104.5 36.5q77 0 123 -47.5t46 -115.5q0 -54 -26 -94.5t-63 -65.5t-74.5 -48t-63.5 -55t-26 -73q0 -57 45.5 -88.5t121.5 -31.5q113 0 192 87.5t79 219.5q0 61 -14 113.5t-49 90t-86 37.5v61
q96 0 153 -83t57 -219z" />
    <glyph glyph-name="tlE" unicode="&#xc0e;" horiz-adv-x="685" 
d="M450 -9q-92 0 -155 111q-8 -50 -44 -81t-88 -31q-64 0 -103.5 38.5t-39.5 101.5q0 60 41.5 100.5t99.5 40.5q45 0 81 -23.5t59.5 -57t45 -67t47.5 -57t55 -23.5q61 0 95 64.5t34 173.5q0 143 -70.5 235.5t-176.5 92.5q-42 0 -68 -7v53q29 8 68 8q145 0 227 -105t82 -277
q0 -136 -50.5 -213t-139.5 -77zM79 131q0 -40 22.5 -65.5t62.5 -25.5q39 0 62.5 26t23.5 65q0 38 -23.5 64t-64.5 26q-37 0 -60 -26t-23 -64z" />
    <glyph glyph-name="tlEE" unicode="&#xc0f;" horiz-adv-x="685" 
d="M450 -9q-92 0 -155 111q-8 -50 -44 -81t-88 -31q-64 0 -103.5 38.5t-39.5 101.5q0 60 41.5 100.5t99.5 40.5q45 0 81 -23.5t59.5 -57t45 -67t47.5 -57t55 -23.5q61 0 95 64.5t34 173.5q0 143 -70.5 235.5t-176.5 92.5q-42 0 -68 -7v53q29 8 68 8q145 0 227 -105t82 -277
q0 -136 -50.5 -213t-139.5 -77zM79 131q0 -40 22.5 -65.5t62.5 -25.5q39 0 62.5 26t23.5 65q0 38 -23.5 64t-64.5 26q-37 0 -60 -26t-23 -64zM271 542v-48q-58 0 -94.5 38t-36.5 97q0 64 36.5 103.5t94.5 37.5v-49q-33 0 -52.5 -24.5t-19.5 -63.5q0 -40 19.5 -65t52.5 -26z
" />
    <glyph glyph-name="tlAI" unicode="&#xc10;" horiz-adv-x="677" 
d="M454 -9q-51 0 -90.5 29t-64.5 78q-10 -49 -45.5 -78.5t-87.5 -29.5q-64 0 -103 38.5t-39 101.5q0 60 41.5 100.5t99.5 40.5q41 0 73.5 -17t52 -42t39 -55t34.5 -55t38.5 -42t51.5 -17q56 0 85.5 59.5t29.5 158.5q0 114 -32 178t-89 64q-47 0 -75.5 -33.5t-28.5 -88.5v-29
h-61v29q0 55 -28.5 88.5t-75.5 33.5q-42 0 -66 -29t-24 -67q0 -36 12 -71h-62q-11 32 -11 69q0 63 41.5 107t107.5 44q55 0 93 -31.5t44 -79.5q7 48 43 79.5t91 31.5q87 0 135.5 -78.5t48.5 -216.5q0 -125 -46.5 -197.5t-131.5 -72.5zM82 131q0 -40 22.5 -65.5t62.5 -25.5
t63 25.5t23 65.5q0 39 -23 64.5t-64 25.5q-37 0 -60.5 -26t-23.5 -64z" />
    <glyph glyph-name="tlO" unicode="&#xc12;" horiz-adv-x="689" 
d="M346 99q-12 -52 -52 -80t-101 -28q-70 0 -114 39t-44 102q0 38 16.5 69.5t41.5 51.5t54.5 41t54.5 37.5t41.5 40t16.5 50.5q0 38 -18.5 60t-52.5 22t-55 -21.5t-21 -62.5q0 -16 5 -41h-60q-6 23 -6 44q0 59 37 96.5t100 37.5q62 0 97.5 -39.5t35.5 -94.5q0 -41 -23 -74
t-56 -56t-66 -45t-56 -51.5t-23 -64.5q0 -41 26 -65t73 -24q53 0 85.5 34.5t32.5 87.5v44h62v-44q0 -55 30 -88.5t83 -33.5q48 0 76.5 35.5t28.5 86.5t-24.5 82.5t-69.5 31.5q-16 0 -28 -4v57q15 4 33 4q67 0 108.5 -45t41.5 -125q0 -76 -45.5 -125.5t-120.5 -49.5
q-61 0 -98.5 28t-45.5 80z" />
    <glyph glyph-name="tlOO" unicode="&#xc13;" horiz-adv-x="689" 
d="M346 99q-12 -52 -52 -80t-101 -28q-70 0 -114 39t-44 102q0 38 16.5 69.5t41.5 51.5t54.5 41t54.5 37.5t41.5 40t16.5 50.5q0 38 -18.5 60t-52.5 22t-55 -21.5t-21 -62.5q0 -16 5 -41h-60q-6 23 -6 44q0 59 37 96.5t100 37.5h5q-41 33 -41 79q0 22 9 41h63q-9 -24 -9 -48
q0 -57 64 -104h-1q43 -38 43 -102q0 -41 -23 -74t-56 -56t-66 -45t-56 -51.5t-23 -64.5q0 -41 26 -65t73 -24q53 0 85.5 34.5t32.5 87.5v44h62v-44q0 -55 30 -88.5t83 -33.5q48 0 76.5 35.5t28.5 86.5t-24.5 82.5t-69.5 31.5q-16 0 -28 -4v57q15 4 33 4q67 0 108.5 -45
t41.5 -125q0 -76 -45.5 -125.5t-120.5 -49.5q-61 0 -98.5 28t-45.5 80z" />
    <glyph glyph-name="tlAU" unicode="&#xc14;" horiz-adv-x="733" 
d="M347 99q-12 -51 -53 -79.5t-101 -28.5q-70 0 -114 39t-44 102q0 44 23.5 79t56.5 57t66.5 42t57 46t23.5 58t-19.5 53t-53.5 21q-37 0 -56.5 -21t-19.5 -58q0 -18 4 -34h-59q-4 17 -4 38q0 50 29 82h-38v51h187q29 0 45 14t16 36q0 56 -73 56h-176v54h479
q84 0 124.5 -41.5t40.5 -104.5q0 -52 -35.5 -88t-91.5 -36q-59 0 -95 33t-36 85q0 66 42 98h-147q31 -22 31 -62q0 -33 -18.5 -56t-51.5 -33q36 -34 36 -86q0 -41 -23 -73.5t-56 -54t-66 -42t-56 -49t-23 -64.5q0 -41 26 -65t73 -24q53 0 86.5 35t33.5 87v44h61v-44
q0 -54 31 -88t85 -34q49 0 77 31t28 81q0 46 -24.5 71.5t-62.5 25.5q-27 0 -51 -9v57q26 8 53 8q65 0 106 -42.5t41 -111.5q0 -72 -46 -117.5t-121 -45.5q-64 0 -101.5 28t-45.5 80zM491 563q0 -33 17.5 -54t50.5 -21q31 0 49 21t18 52q0 34 -17.5 57.5t-49.5 23.5
q-33 0 -50.5 -23.5t-17.5 -55.5z" />
    <glyph glyph-name="tlKA" unicode="&#xc15;" horiz-adv-x="399" 
d="M351 149q0 -67 -49.5 -110t-126.5 -43q-87 0 -154 35v59q79 -42 152 -42q56 0 85 27.5t29 72.5q0 39 -27.5 63.5t-66.5 38t-77.5 28.5t-66 46t-27.5 80q0 43 26 78t72 52l-88 108h77l76 -96l161 211h73l-165 -215q28 -4 58 -15v-57q-51 23 -109 23q-55 0 -87 -24.5
t-32 -64.5q0 -34 27.5 -55.5t67 -34.5t78.5 -29.5t66.5 -50.5t27.5 -85z" />
    <glyph glyph-name="tlKHA" unicode="&#xc16;" horiz-adv-x="830" 
d="M505 330q0 -138 -84 -236q73 -49 132 -49q77 0 123 62t46 158q0 95 -42 156.5t-120 68.5v56q103 -4 164 -82t61 -196q0 -121 -64 -199t-167 -78q-83 0 -174 64q-80 -64 -183 -64q-81 0 -129 34t-48 93q0 49 38 83t93 34q37 0 78 -16.5t65 -32.5t67 -49l12 -9
q69 83 69 203q0 70 -31.5 121t-80.5 51q-35 0 -53.5 -20t-18.5 -49q0 -28 18.5 -45.5t50.5 -17.5q37 0 65 14v-50q-33 -17 -73 -17q-53 0 -88 31t-35 83t37.5 88t94.5 36q79 0 128 -66t49 -160zM199 43q75 0 134 46q-3 2 -19.5 15t-20 16t-18 13.5t-20 14t-18 11t-19.5 10
t-18 6.5t-20 5.5t-19 1.5q-37 0 -58 -18.5t-21 -47.5q0 -35 32 -54t85 -19zM424 -173h-83v14l25 163h33l25 -163v-14z" />
    <glyph glyph-name="tlGA" unicode="&#xc17;" horiz-adv-x="519" 
d="M431 0h-65q32 101 32 223q0 117 -37.5 194t-110.5 77t-111.5 -77t-38.5 -194q0 -122 32 -223h-66q-28 99 -28 223q0 114 38 198.5t109 112.5l-88 108h78l76 -96l160 211h73l-170 -222q72 -27 109 -112t37 -200q0 -121 -29 -223z" />
    <glyph glyph-name="tlGHA" unicode="&#xc18;" horiz-adv-x="1026" 
d="M340 -173h-82v14l24 162h33l25 -162v-14zM80 131q0 -40 22 -65.5t62 -25.5t63 25.5t23 65.5q0 39 -23 64.5t-65 25.5q-36 0 -59 -26t-23 -64zM185 493h-65l-120 149h77l75 -96l161 211h74zM981 261q0 -132 -59 -201.5t-150 -69.5q-123 0 -161 112q-48 -111 -160 -111
q-102 0 -155 109q-10 -50 -45.5 -80t-87.5 -30q-64 0 -103.5 38.5t-39.5 101.5q0 60 41.5 100.5t100.5 40.5q46 0 82 -23.5t58 -57t42.5 -67t47 -57t59.5 -23.5q58 0 91 56.5t33 151.5q0 104 -55 174.5t-148 70.5q-42 0 -75 -9v54q38 8 73 8q128 0 198 -81t70 -217v-2
q0 -96 33.5 -151.5t97.5 -55.5q62 0 106 56t44 157t-57.5 168.5t-146.5 67.5v55q121 0 193.5 -83.5t72.5 -201.5z" />
    <glyph glyph-name="tlNGA" unicode="&#xc19;" horiz-adv-x="698" 
d="M346 99q-12 -52 -52 -80t-101 -28q-70 0 -114 39t-44 102q0 38 16.5 69.5t41.5 51.5t54.5 41t54.5 37.5t41.5 40t16.5 50.5q0 38 -18.5 60t-52.5 22t-55 -21.5t-21 -62.5q0 -16 5 -41h-60q-6 23 -6 44q0 59 37 96.5t100 37.5q48 0 80.5 -24.5t45.5 -63.5h112v90h64v-90
h131v-54h-300q-2 -39 -26 -70.5t-56.5 -54t-64.5 -44t-54.5 -50.5t-22.5 -64q0 -41 26 -65t73 -24q53 0 85.5 34.5t32.5 87.5v44h62v-44q0 -55 29.5 -88.5t81.5 -33.5q47 0 75.5 33t28.5 86q0 51 -27 79.5t-80 28.5q-13 0 -28 -3v57q15 3 32 3q77 0 120.5 -46t43.5 -121
q0 -71 -45.5 -120t-119.5 -49q-60 0 -97 28t-45 80z" />
    <glyph glyph-name="tlCA" unicode="&#xc1a;" horiz-adv-x="702" 
d="M361 99q-6 -46 -44 -77t-94 -31q-73 0 -117.5 40t-44.5 106q0 84 67 125h-98v54h211v-54q-57 -1 -87.5 -36t-30.5 -85q0 -45 27 -71.5t73 -26.5q48 0 77.5 34t29.5 88v44h61v-44q0 -54 27 -88t74 -34q50 0 79.5 44.5t29.5 112.5q0 123 -80.5 208t-205.5 85h-1l-121 149
h77l76 -96l161 211h73l-176 -230q118 -25 188 -112t70 -205q0 -99 -46 -159t-120 -60q-62 0 -97 30.5t-38 77.5z" />
    <glyph glyph-name="tlCHA" unicode="&#xc1b;" horiz-adv-x="702" 
d="M361 99q-6 -46 -44 -77t-94 -31q-73 0 -117.5 40t-44.5 106q0 84 67 125h-98v54h211v-54q-57 -1 -87.5 -36t-30.5 -85q0 -45 27 -71.5t73 -26.5q48 0 77.5 34t29.5 88v44h61v-44q0 -54 27 -88t74 -34q50 0 79.5 44.5t29.5 112.5q0 123 -80.5 208t-205.5 85h-1l-121 149
h77l76 -96l161 211h73l-176 -230q118 -25 188 -112t70 -205q0 -99 -46 -159t-120 -60q-62 0 -97 30.5t-38 77.5zM401 -172h-83v14l24 162h34l25 -162v-14z" />
    <glyph glyph-name="tlJA" unicode="&#xc1c;" horiz-adv-x="677" 
d="M346 99q-26 -108 -156 -108q-69 0 -112 38.5t-43 102.5q0 45 23.5 80.5t56.5 59.5t66 45.5t56.5 47.5t23.5 57q0 37 -19 59.5t-53 22.5q-33 0 -54.5 -22t-21.5 -62q0 -17 5 -40h-60q-6 22 -6 44q0 58 37 95.5t100 37.5q40 0 77 -23.5t62 -52t61.5 -52t74.5 -23.5
q39 0 60.5 22t21.5 58q0 31 -12 60h59q15 -32 15 -68q0 -56 -38.5 -91t-102.5 -35q-43 0 -82 19t-66 48q-2 -40 -25.5 -73t-56 -55.5t-64 -44t-53.5 -50.5t-22 -64q0 -40 26 -64.5t70 -24.5q53 0 87 33.5t34 88.5v43h62v-43q0 -52 30 -87t77 -35q45 0 69 29t24 76
q0 48 -23 100h63q20 -53 20 -101q0 -67 -41 -111.5t-109 -44.5q-58 0 -96 28t-45 80z" />
    <glyph glyph-name="tlJHA" unicode="&#xc1d;" horiz-adv-x="1245" 
d="M516 272v-2q0 -108 39 -167.5t104 -59.5q58 0 97.5 55.5t39.5 157.5q0 101 -57 168.5t-146 67.5v55q121 0 193 -83.5t72 -201.5v-1q0 -108 38.5 -163t104.5 -55q58 0 97.5 56t39.5 157t-57.5 168.5t-146.5 67.5v55q121 0 193.5 -83.5t72.5 -201.5q0 -136 -55 -203.5
t-144 -67.5q-122 0 -167 122q-49 -122 -175 -122q-62 0 -105.5 36t-64.5 102q-28 -66 -83 -102t-126 -36q-106 0 -171.5 76t-65.5 204q0 103 46 173.5t124 92.5l-86 105h78l76 -96l161 211h73l-169 -220q78 -21 124 -91t46 -174zM106 271q0 -103 49 -165.5t125 -62.5
q75 0 124.5 62.5t49.5 164.5q0 101 -49 162.5t-125 61.5t-125 -61.5t-49 -161.5zM877 -186h-87v14l30 176h27l30 -176v-14z" />
    <glyph glyph-name="tlNYA" unicode="&#xc1e;" horiz-adv-x="767" 
d="M482 -48h-60q0 50 -9 91q-68 -52 -153 -52q-75 0 -122 33t-47 95q0 57 47.5 94.5t115.5 37.5q118 0 181 -107q64 90 64 204q0 67 -24 111t-72 44q-44 0 -66.5 -32t-22.5 -84v-35h-62v37q0 48 -25 81t-68 33t-65.5 -30t-22.5 -75q0 -36 12 -72h-62q-11 32 -11 73
q0 66 39.5 111.5t105.5 45.5q55 0 88.5 -31t39.5 -80q5 49 39 80t86 31q59 0 95.5 -39t49.5 -104h58v133h64v-133h77v-54h-193v-12q0 -67 -25.5 -137.5t-72.5 -122.5q21 -60 21 -135zM260 43q75 0 136 56q-43 99 -141 99q-44 0 -72.5 -22.5t-28.5 -59.5q0 -35 27.5 -54
t78.5 -19z" />
    <glyph glyph-name="tlTTA" unicode="&#xc1f;" horiz-adv-x="762" 
d="M381 105q-29 -114 -147 -114q-85 0 -138 74t-53 200q0 112 45 194.5t120 93.5l-2 92h63l-2 -95q46 -12 74 -48.5t28 -83.5q0 -58 -39.5 -99.5t-98.5 -41.5q-45 0 -77.5 23t-45.5 64q-10 -53 -10 -88q0 -107 36.5 -170t100.5 -63q55 0 85.5 35t30.5 91v34h61v-33
q0 -55 29.5 -91t83.5 -36q62 0 95.5 59t33.5 167q0 105 -44.5 166.5t-123.5 61.5q-21 0 -40 -4v56q18 5 45 5q103 0 164.5 -77.5t61.5 -206.5q0 -131 -49.5 -205t-140.5 -74q-59 0 -98 31.5t-48 82.5zM140 413q0 -36 24 -60.5t63 -24.5q36 0 57.5 25.5t21.5 63.5
q0 37 -22.5 61.5t-59.5 24.5q-35 0 -59.5 -26.5t-24.5 -63.5z" />
    <glyph glyph-name="tlTTHA" unicode="&#xc20;" horiz-adv-x="526" 
d="M516 272q0 -129 -65.5 -205t-170.5 -76q-106 0 -171.5 76t-65.5 204q0 104 46 174t124 92l-87 105h78l76 -96l161 211h73l-168 -220q78 -21 124 -91t46 -174zM106 271q0 -103 49 -165.5t125 -62.5q75 0 124.5 62.5t49.5 164.5q0 101 -49 162.5t-125 61.5t-125 -61.5
t-49 -161.5zM333 269q0 -23 -14.5 -37.5t-37.5 -14.5t-37.5 14.5t-14.5 37.5t14.5 37.5t37.5 14.5t37.5 -14.5t14.5 -37.5z" />
    <glyph glyph-name="tlDDA" unicode="&#xc21;" horiz-adv-x="727" 
d="M354 101q-6 -48 -41.5 -79t-92.5 -31q-81 0 -130.5 57t-49.5 158q0 114 70.5 210t189.5 121l-85 105h77l76 -96l160 211h74l-165 -216q75 -11 152 -51v-64q-111 67 -216 67q-122 0 -196.5 -90.5t-74.5 -198.5q0 -77 32.5 -119t87.5 -42q46 0 72.5 33.5t26.5 88.5v44h62
v-34q0 -59 35.5 -98t95.5 -39q43 0 75.5 28.5t44.5 72.5q-28 -30 -73 -30q-50 0 -84 33t-34 82q0 50 35 88t88 38q58 0 93 -44t35 -106q0 -90 -48.5 -149.5t-132.5 -59.5q-64 0 -107 31.5t-52 78.5zM500 226q0 -29 18.5 -48.5t49.5 -19.5q30 0 48.5 21t18.5 50
q0 30 -18 50.5t-49 20.5q-32 0 -50 -21.5t-18 -52.5z" />
    <glyph glyph-name="tlDDHA" unicode="&#xc22;" horiz-adv-x="727" 
d="M354 101q-6 -48 -41.5 -79t-92.5 -31q-81 0 -130.5 57t-49.5 158q0 114 70.5 210t189.5 121l-85 105h77l76 -96l160 211h74l-165 -216q75 -11 152 -51v-64q-111 67 -216 67q-122 0 -196.5 -90.5t-74.5 -198.5q0 -77 32.5 -119t87.5 -42q46 0 72.5 33.5t26.5 88.5v44h62
v-34q0 -59 35.5 -98t95.5 -39q43 0 75.5 28.5t44.5 72.5q-28 -30 -73 -30q-50 0 -84 33t-34 82q0 50 35 88t88 38q58 0 93 -44t35 -106q0 -90 -48.5 -149.5t-132.5 -59.5q-64 0 -107 31.5t-52 78.5zM397 -172h-83v14l24 162h35l24 -162v-14zM500 226q0 -29 18.5 -48.5
t49.5 -19.5q30 0 48.5 21t18.5 50q0 30 -18 50.5t-49 20.5q-32 0 -50 -21.5t-18 -52.5z" />
    <glyph glyph-name="tlNNA" unicode="&#xc23;" horiz-adv-x="747" 
d="M318 9q-50 -19 -108 -19q-76 0 -123 39.5t-47 108.5q0 57 36.5 92t91.5 41q-52 9 -82 45t-30 91q0 62 47 105.5t120 43.5q54 0 94.5 -31.5t51.5 -79.5q8 49 44.5 80t94.5 31q93 0 143.5 -81.5t50.5 -216.5q0 -115 -46.5 -191t-132.5 -76q-62 0 -100 40.5t-38 95.5
q0 59 39 100t98 41q43 0 75.5 -22.5t45.5 -57.5q4 31 4 77q0 99 -36.5 168.5t-102.5 69.5q-50 0 -79 -33.5t-29 -88.5v-44h-63v43q0 55 -32 89t-82 34q-46 0 -75 -28.5t-29 -71.5q0 -46 28 -75.5t76 -29.5h32v-54h-32q-51 0 -86 -27.5t-35 -72.5q0 -49 32 -75.5t92 -26.5
q43 0 92 22v-55zM446 128q0 -35 22 -60t61 -25q35 0 59.5 26.5t24.5 61.5q0 36 -24.5 61t-60.5 25q-38 0 -60 -25.5t-22 -63.5z" />
    <glyph glyph-name="tlTA" unicode="&#xc24;" horiz-adv-x="738" 
d="M664 252q0 -109 -84 -185t-233 -76q-150 0 -233.5 76t-83.5 185q0 64 37.5 104.5t98.5 40.5q52 0 87 -34.5t35 -85.5q0 -54 -34.5 -88t-86.5 -34q-42 0 -68 20q25 -60 90.5 -96t157.5 -36q91 0 156.5 36t90.5 96q-26 -20 -66 -20q-53 0 -87.5 34t-34.5 88q0 51 35 85.5
t87 34.5q71 0 110 -55q3 17 3 35q0 54 -35.5 85t-107.5 31h-163l-120 149h77l76 -96l160 211h74l-162 -212h65q97 0 145 -46.5t48 -121.5q0 -64 -34 -121v-4zM89 272q0 -30 17 -48t50 -18q32 0 51 18.5t19 48.5q0 33 -18.5 53t-49.5 20q-32 0 -50.5 -20.5t-18.5 -53.5z
M467 273q0 -30 19.5 -48.5t50.5 -18.5q33 0 50 18t17 48q0 34 -18.5 54t-50.5 20q-30 0 -49 -20t-19 -53z" />
    <glyph glyph-name="tlTHA" unicode="&#xc25;" horiz-adv-x="713" 
d="M357 104q-16 -113 -136 -113q-82 0 -131.5 60t-49.5 162q0 120 69.5 211t179.5 115l-84 103h78l75 -96l161 211h73l-167 -218q109 -25 178.5 -115.5t69.5 -210.5q0 -102 -49.5 -162t-131.5 -60q-120 0 -135 113zM399 -172h-83v14l24 162h35l24 -162v-14zM102 212
q0 -76 33.5 -122.5t88.5 -46.5q49 0 75 36.5t26 94.5v35h62v-35q0 -58 27 -94.5t78 -36.5q53 0 86 46.5t33 122.5q0 116 -74 198.5t-181 82.5t-180.5 -82.5t-73.5 -198.5zM405 349q0 -20 -13.5 -34t-34.5 -14q-20 0 -33.5 14t-13.5 34t13.5 34t33.5 14q21 0 34.5 -14
t13.5 -34z" />
    <glyph glyph-name="tlDA" unicode="&#xc26;" horiz-adv-x="713" 
d="M357 104q-16 -113 -136 -113q-82 0 -131.5 60t-49.5 162q0 120 69.5 211t179.5 115l-84 103h78l75 -96l161 211h73l-167 -218q109 -25 178.5 -115.5t69.5 -210.5q0 -102 -49.5 -162t-131.5 -60q-120 0 -135 113zM102 212q0 -76 33.5 -122.5t88.5 -46.5q49 0 75 36.5
t26 94.5v35h62v-35q0 -58 27 -94.5t78 -36.5q53 0 86 46.5t33 122.5q0 116 -74 198.5t-181 82.5t-180.5 -82.5t-73.5 -198.5z" />
    <glyph glyph-name="tlDHA" unicode="&#xc27;" horiz-adv-x="713" 
d="M357 104q-16 -113 -136 -113q-82 0 -131.5 60t-49.5 162q0 120 69.5 211t179.5 115l-84 103h78l75 -96l161 211h73l-167 -218q109 -25 178.5 -115.5t69.5 -210.5q0 -102 -49.5 -162t-131.5 -60q-120 0 -135 113zM399 -172h-83v14l24 162h35l24 -162v-14zM102 212
q0 -76 33.5 -122.5t88.5 -46.5q49 0 75 36.5t26 94.5v35h62v-35q0 -58 27 -94.5t78 -36.5q53 0 86 46.5t33 122.5q0 116 -74 198.5t-181 82.5t-180.5 -82.5t-73.5 -198.5z" />
    <glyph glyph-name="tlNA" unicode="&#xc28;" horiz-adv-x="699" 
d="M236 1q-21 -10 -56 -10q-60 0 -100 45.5t-40 117.5q0 76 43.5 123t116.5 47q45 0 79 -21t53.5 -52t38 -67.5t33 -67.5t38.5 -52t55 -21q47 0 73.5 45t26.5 125q0 121 -72 200.5t-195 79.5h-15l-121 149h77l76 -96l161 211h73l-173 -226q108 -11 179.5 -100t71.5 -206
q0 -111 -44 -172.5t-124 -61.5q-48 0 -83 29t-56.5 70t-40.5 82t-46.5 70t-63.5 29q-45 0 -72 -30.5t-27 -83.5t23 -83.5t63 -30.5q27 0 48 7v-49z" />
    <glyph glyph-name="tlPA" unicode="&#xc2a;" horiz-adv-x="683" 
d="M451 -9q-102 0 -155 109q-10 -50 -45.5 -80t-87.5 -30q-64 0 -103.5 38.5t-39.5 101.5q0 60 41.5 100.5t100.5 40.5q46 0 82 -23.5t58 -57t42.5 -67t47 -57t59.5 -23.5q58 0 91 56.5t33 151.5q0 104 -55 174.5t-148 70.5q-42 0 -75 -9v54q38 8 73 8q128 0 198 -81
t70 -217q0 -122 -50 -191t-137 -69zM80 131q0 -40 22 -65.5t62 -25.5t63 25.5t23 65.5q0 39 -23 64.5t-65 25.5q-36 0 -59 -26t-23 -64zM185 493h-65l-120 149h77l75 -96l161 211h74z" />
    <glyph glyph-name="tlPHA" unicode="&#xc2b;" horiz-adv-x="683" 
d="M451 -9q-102 0 -155 109q-10 -50 -45.5 -80t-87.5 -30q-64 0 -103.5 38.5t-39.5 101.5q0 60 41.5 100.5t100.5 40.5q46 0 82 -23.5t58 -57t42.5 -67t47 -57t59.5 -23.5q58 0 91 56.5t33 151.5q0 104 -55 174.5t-148 70.5q-42 0 -75 -9v54q38 8 73 8q128 0 198 -81
t70 -217q0 -122 -50 -191t-137 -69zM341 -172h-84v14l25 162h34l25 -162v-14zM80 131q0 -40 22 -65.5t62 -25.5t63 25.5t23 65.5q0 39 -23 64.5t-65 25.5q-36 0 -59 -26t-23 -64zM185 493h-65l-120 149h77l75 -96l161 211h74z" />
    <glyph glyph-name="tlBA" unicode="&#xc2c;" horiz-adv-x="711" 
d="M346 99q-13 -52 -52.5 -80t-100.5 -28q-70 0 -114 39t-44 102q0 38 16.5 69.5t41.5 51.5t54.5 41t54.5 37.5t41.5 40t16.5 50.5q0 38 -18.5 60t-52.5 22t-55 -21.5t-21 -62.5q0 -16 5 -41h-60q-6 23 -6 44q0 59 37 96.5t100 37.5q62 0 97.5 -39.5t35.5 -94.5
q0 -41 -23 -74t-56 -56t-66 -45t-56 -51.5t-23 -64.5q0 -41 26 -65t73 -24q53 0 85.5 34.5t32.5 87.5v44h62v-44q0 -54 28.5 -88t77.5 -34q60 0 90.5 60t30.5 153q0 108 -43.5 173.5t-124.5 65.5q-16 0 -32 -3v57q14 3 30 3q110 0 171 -84t61 -214q0 -122 -48.5 -192.5
t-133.5 -70.5q-57 0 -93.5 28t-44.5 80z" />
    <glyph glyph-name="tlBHA" unicode="&#xc2d;" horiz-adv-x="687" 
d="M346 99q-13 -52 -52.5 -80t-100.5 -28q-70 0 -114 39t-44 102q0 38 16.5 69.5t41.5 51.5t54.5 41t54.5 37.5t41.5 40t16.5 50.5q0 38 -18.5 60t-52.5 22t-55 -21.5t-21 -62.5q0 -16 5 -41h-60q-6 23 -6 44q0 59 37 96.5t100 37.5q62 0 97.5 -39.5t35.5 -94.5
q0 -41 -23 -74t-56 -56t-66 -45t-56 -51.5t-23 -64.5q0 -41 26 -65t73 -24q53 0 85.5 34.5t32.5 87.5v44h62v-44q0 -54 28.5 -88t77.5 -34q58 0 89 52.5t31 137.5q0 102 -55 181t-142 79l-121 149h77l76 -96l161 211h73l-182 -238q79 -24 127 -104t48 -182
q0 -115 -48.5 -178.5t-132.5 -63.5q-57 0 -93.5 28t-44.5 80zM387 -172h-82v14l24 162h33l25 -162v-14z" />
    <glyph glyph-name="tlMA" unicode="&#xc2e;" horiz-adv-x="1020" 
d="M79 131q0 -40 22.5 -65.5t62.5 -25.5q39 0 62.5 26t23.5 65q0 38 -23.5 64t-64.5 26q-37 0 -60 -26t-23 -64zM975 261q0 -132 -59 -201.5t-150 -69.5q-120 0 -159 93q-46 -92 -150 -92q-107 0 -162 109q-9 -49 -45 -79.5t-87 -30.5q-64 0 -103.5 38.5t-39.5 101.5
q0 60 41.5 100.5t99.5 40.5q46 0 82 -23.5t59 -57t43.5 -67t48.5 -57t63 -23.5q52 0 82.5 43.5t30.5 116.5q0 123 -88.5 206.5t-237.5 83.5h-11l-120 149h76l76 -96l161 211h74l-172 -225q125 -8 214.5 -101.5t89.5 -221.5q0 -77 36 -122t95 -45q62 0 106 56t44 157
t-57.5 168.5t-146.5 67.5v55q121 0 193.5 -83.5t72.5 -201.5z" />
    <glyph glyph-name="tlYA" unicode="&#xc2f;" horiz-adv-x="1245" 
d="M516 272v-2q0 -108 39 -167.5t104 -59.5q58 0 97.5 56t39.5 157t-57.5 169t-146.5 68l-120 149h77l75 -96l161 211h74l-182 -238q85 -25 133 -95t48 -163q0 -108 38.5 -163t104.5 -55q58 0 97.5 56t39.5 157t-57.5 168.5t-146.5 67.5v55q121 0 193.5 -83.5t72.5 -201.5
q0 -136 -55 -203.5t-144 -67.5q-121 0 -167 121q-49 -121 -175 -121q-62 0 -105.5 36t-64.5 102q-29 -66 -83.5 -102t-125.5 -36q-106 0 -171.5 76t-65.5 204q0 125 66 200t171 75t170.5 -74.5t65.5 -199.5zM106 271q0 -103 49 -165.5t125 -62.5q75 0 124.5 62.5t49.5 164.5
q0 101 -49 162.5t-125 61.5t-125 -61.5t-49 -161.5z" />
    <glyph glyph-name="tlRA" unicode="&#xc30;" horiz-adv-x="526" 
d="M516 272q0 -129 -65.5 -205t-170.5 -76q-106 0 -171.5 76t-65.5 204q0 104 46 174.5t125 91.5l-86 105h77l76 -96l161 211h73l-169 -220q78 -21 124 -91t46 -174zM106 271q0 -103 49 -165.5t125 -62.5q75 0 124.5 62.5t49.5 164.5q0 101 -49 162.5t-125 61.5t-125 -61.5
t-49 -161.5z" />
    <glyph glyph-name="tlRRA" unicode="&#xc31;" horiz-adv-x="799" 
d="M392 101q-29 -110 -146 -110q-92 0 -147.5 76.5t-55.5 205.5q0 116 50.5 199.5t136.5 83.5q60 0 99.5 -40.5t39.5 -97.5q0 -58 -39.5 -99.5t-98.5 -41.5q-45 0 -77.5 23.5t-45.5 63.5q-10 -52 -10 -87q0 -99 41 -166.5t110 -67.5q49 0 81 33.5t32 88.5v34h62v-34
q0 -54 34 -88t89 -34q65 0 104.5 69t39.5 177q0 98 -30 156.5t-81 58.5q-35 0 -56 -24t-21 -62q0 -37 24 -66t69 -36v-54h-184v54h93q-60 35 -60 108q0 55 37.5 93.5t96.5 38.5q81 0 128 -73.5t47 -196.5q0 -131 -56 -213t-151 -82q-58 0 -101.5 30t-53.5 80zM140 413
q0 -35 24 -59.5t63 -24.5q36 0 57.5 25.5t21.5 62.5t-22.5 61.5t-59.5 24.5q-35 0 -59.5 -26.5t-24.5 -63.5z" />
    <glyph glyph-name="tlLA" unicode="&#xc32;" horiz-adv-x="702" 
d="M657 296q0 -132 -85.5 -219t-220.5 -87q-141 0 -224.5 88.5t-83.5 236.5q0 103 47 172t127 69q64 0 101.5 -41.5t37.5 -100.5q0 -60 -40 -98.5t-97 -38.5q-45 0 -77 20t-45 57q-1 -8 -1 -26q0 -131 68 -208t189 -77q109 0 175 71.5t66 185.5q0 84 -44.5 141t-113.5 62v53
q98 0 159.5 -76t61.5 -184zM129 416q0 -42 24 -64.5t63 -22.5q34 0 56.5 23t22.5 62q0 37 -21.5 63t-60.5 26t-61.5 -26.5t-22.5 -60.5z" />
    <glyph glyph-name="tlLLA" unicode="&#xc33;" horiz-adv-x="609" 
d="M467 110q0 -54 -40 -86.5t-106 -32.5q-65 0 -103.5 33t-38.5 84q0 41 24.5 72t67.5 47q-10 4 -52 20t-64 25q-115 51 -115 138q0 50 35 84t94 34q58 0 93 -34t35 -83q0 -42 -28.5 -70.5t-70.5 -38.5q135 -50 142 -53q76 20 119 53.5t43 90.5q0 41 -33.5 70.5t-93.5 29.5
l-122 149h78l76 -96l178 211h74l-201 -241q50 -12 77.5 -45t27.5 -80q0 -62 -42.5 -107.5t-120.5 -65.5q67 -45 67 -108zM321 40q39 0 62 19.5t23 52.5q0 50 -75 89q-45 -10 -69 -34.5t-24 -56.5q0 -30 21.5 -50t61.5 -20zM97 407q0 -29 20.5 -48t50.5 -19q27 0 48 19t21 50
q0 30 -19.5 49.5t-50.5 19.5q-32 0 -51 -20t-19 -51z" />
    <glyph glyph-name="tlLLLA" unicode="&#xc34;" horiz-adv-x="791" 
d="M394 99q-8 -51 -47 -79.5t-98 -28.5q-107 0 -156.5 78t-49.5 211q0 113 48.5 194.5t138.5 81.5q60 0 99 -40.5t39 -97.5q0 -59 -39.5 -100t-98.5 -41q-43 0 -74.5 22t-46.5 60q-8 -60 -8 -82q0 -104 36.5 -169t111.5 -65q52 0 83 33.5t31 88.5v36h62v-36q0 -55 31 -88.5
t83 -33.5q75 0 111.5 65t36.5 169q0 36 -8 82q-14 -38 -45.5 -60t-75.5 -22q-60 0 -99 41t-39 100q0 57 39 97.5t100 40.5q89 0 138 -81.5t49 -194.5q0 -133 -50 -211t-156 -78q-60 0 -98.5 28.5t-47.5 79.5zM140 413q0 -35 23.5 -59.5t63.5 -24.5q36 0 57.5 25.5t21.5 62.5
t-22.5 61.5t-59.5 24.5q-35 0 -59.5 -26.5t-24.5 -63.5zM482 417q0 -37 21.5 -62.5t57.5 -25.5q39 0 63 24.5t24 59.5q0 37 -24.5 63.5t-60.5 26.5q-37 0 -59 -24.5t-22 -61.5z" />
    <glyph glyph-name="tlVA" unicode="&#xc35;" horiz-adv-x="672" 
d="M79 131q0 -40 22.5 -65.5t62.5 -25.5q39 0 62.5 26t23.5 65q0 38 -23.5 64t-64.5 26q-37 0 -60 -26t-23 -64zM113 642h76l76 -96l161 211h74l-172 -225q125 -8 214.5 -102t89.5 -224q0 -102 -47.5 -158.5t-127.5 -56.5q-107 0 -162 109q-9 -49 -45 -79.5t-87 -30.5
q-64 0 -103.5 38.5t-39.5 101.5q0 60 41.5 100.5t99.5 40.5q46 0 82 -23.5t59 -57t43.5 -67t48.5 -57t63 -23.5q52 0 82.5 43.5t30.5 116.5q0 123 -88.5 206.5t-237.5 83.5h-11z" />
    <glyph glyph-name="tlSHA" unicode="&#xc36;" horiz-adv-x="551" 
d="M296 493h-27l-121 149h78l76 -96l160 211h73l-172 -225q62 -7 99.5 -43t37.5 -86q0 -63 -52 -107q54 -60 54 -139q0 -73 -46.5 -119.5t-116.5 -46.5q-66 0 -107 36.5t-41 96.5q0 25 8.5 47t18.5 36.5t31.5 30t34 23t40 21.5t37.5 19q-44 30 -102 30q-80 0 -129.5 -48.5
t-49.5 -121.5q0 -13 4 -39h-60q-4 20 -4 43q0 93 68.5 153.5t168.5 60.5q85 0 151 -46q33 28 33 68q0 43 -38 67.5t-107 24.5zM341 39q46 0 74 32.5t28 84.5q0 60 -41 109q-13 -8 -41.5 -22.5t-43 -24t-33 -24t-26.5 -31.5t-8 -38q0 -40 24 -63t67 -23z" />
    <glyph glyph-name="tlSSA" unicode="&#xc37;" horiz-adv-x="663" 
d="M60 131q0 -40 22 -65.5t62 -25.5t63 25.5t23 65.5q0 39 -23 64.5t-65 25.5q-36 0 -59 -26t-23 -64zM583 -153h-79q-14 29 -14 75q0 47 18 87q-33 -18 -77 -18q-102 0 -155 109q-10 -50 -45.5 -80t-87.5 -30q-64 0 -103.5 38.5t-39.5 101.5q0 60 41.5 100.5t100.5 40.5
q46 0 82 -23.5t58 -57t42.5 -67t47 -57t59.5 -23.5q58 0 91 56.5t33 151.5q0 104 -55 174.5t-148 70.5q-42 0 -75 -9v54q38 8 73 8q128 0 198 -81t70 -217q0 -94 -31 -159q-35 -76 -35 -142q0 -52 31 -103zM185 493h-65l-120 149h77l75 -96l161 211h74z" />
    <glyph glyph-name="tlSA" unicode="&#xc38;" horiz-adv-x="678" 
d="M197 1q-21 -10 -57 -10q-60 0 -100 45.5t-40 117.5q0 76 43.5 123t117.5 47q52 0 89 -29t58.5 -70t40 -82.5t45 -70.5t62.5 -29q52 0 83 56t31 152q0 103 -59.5 174t-153.5 71q-42 0 -75 -9v54q38 8 73 8q129 0 203.5 -81.5t74.5 -216.5q0 -121 -48 -190.5t-129 -69.5
q-51 0 -88 29t-58.5 70t-40 82t-45.5 70t-62 29q-45 0 -72 -30.5t-27 -83.5t22.5 -83.5t62.5 -30.5q27 0 49 7v-49zM211 493h-65l-121 149h78l76 -96l160 211h74z" />
    <glyph glyph-name="tlHA" unicode="&#xc39;" horiz-adv-x="951" 
d="M70 131q0 -40 22 -65.5t62 -25.5t63 25.5t23 65.5q0 39 -23 64.5t-65 25.5q-36 0 -59 -26t-23 -64zM185 493h-64l-121 149h77l76 -96l161 211h73zM931 401q0 -52 -35 -88.5t-91 -36.5q-59 0 -95 33t-36 85q0 66 41 98h-227q66 -32 103 -97.5t37 -153.5
q0 -115 -50.5 -182.5t-136.5 -67.5q-102 0 -155 109q-10 -50 -45.5 -80t-87.5 -30q-64 0 -103.5 38.5t-39.5 101.5q0 60 41.5 100.5t100.5 40.5q46 0 82 -23.5t58 -57t42.5 -67t47 -57t59.5 -23.5q57 0 90.5 55t33.5 143q0 113 -72.5 182t-205.5 69v54h480q84 0 124 -41
t40 -104zM734 404q0 -34 18 -55t50 -21t50 21.5t18 52.5q0 34 -17.5 57t-50.5 23q-32 0 -50 -23.5t-18 -54.5z" />
    <glyph glyph-name="tlAvagraha" unicode="&#xc3d;" horiz-adv-x="603" 
d="M583 0h-390q-71 0 -114.5 34.5t-43.5 97.5q0 43 24 78t58.5 58t69 44.5t58.5 49t24 60.5q0 38 -18 60t-52 22t-55.5 -21.5t-21.5 -62.5q0 -16 5 -41h-60q-5 19 -5 44q0 59 37 96.5t100 37.5q62 0 97 -39.5t35 -94.5q0 -43 -24 -77t-58.5 -57t-68.5 -44.5t-58 -50
t-24 -62.5q0 -80 99 -80h386v-52z" />
    <glyph glyph-name="tlmAA" unicode="&#xc3e;" horiz-adv-x="569" 
d="M668 401q0 -52 -34.5 -88.5t-91.5 -36.5q-59 0 -94.5 33t-35.5 85q0 67 41 98h-315v54h367q84 0 123.5 -41t39.5 -104zM473 404q0 -34 17 -55t50 -21q32 0 50 21.5t18 52.5q0 34 -17.5 57t-50.5 23t-50 -23.5t-17 -54.5z" />
    <glyph glyph-name="tlmI" unicode="&#xc3f;" horiz-adv-x="444" 
d="M251 672q30 0 49 15t19 39q0 23 -17.5 39t-49.5 16q-28 0 -46.5 -15.5t-18.5 -38.5q0 -25 18 -40t46 -15zM71 550q60 -28 122 -28q70 0 107.5 39t37.5 102q-30 -42 -95 -42q-45 0 -81 29t-36 74q0 46 31.5 77t86.5 31q69 0 110 -47.5t41 -120.5q0 -81 -53 -139t-142 -58
q-71 0 -129 30v53z" />
    <glyph glyph-name="tlmII" unicode="&#xc40;" horiz-adv-x="569" 
d="M455 961v-52h-56q-50 0 -50 -42q0 -14 7 -27t15 -22t27 -27q47 -47 47 -127q0 -81 -53 -139t-142 -58q-71 0 -129 30v53q60 -28 122 -28q70 0 107.5 39t37.5 102q-30 -42 -95 -42q-45 0 -81 29t-36 74q0 46 31.5 77t86.5 31h12q-18 26 -18 56q0 32 23.5 52.5t66.5 20.5
h77zM301 672q30 0 49 15t19 39q0 23 -17.5 39t-49.5 16q-28 0 -46.5 -15.5t-18.5 -38.5q0 -25 18 -40t46 -15z" />
    <glyph glyph-name="tlmU" unicode="&#xc41;" horiz-adv-x="280" 
d="M-79 155h45q0 -54 34.5 -83.5t91.5 -29.5q66 0 110.5 55.5t44.5 157.5q0 101 -57.5 168.5t-146.5 67.5v55q121 0 193.5 -83.5t72.5 -201.5q0 -133 -59 -202t-155 -69q-84 0 -129 44t-45 121z" />
    <glyph glyph-name="tlmUU" unicode="&#xc42;" horiz-adv-x="569" 
d="M309 261q0 -133 -59 -202t-155 -69q-84 0 -129 44t-45 121h45q0 -54 34.5 -83.5t91.5 -29.5q66 0 110.5 55.5t44.5 157.5q0 101 -57.5 168.5t-146.5 67.5v55h401q84 0 124 -41t40 -104q0 -52 -35 -88.5t-91 -36.5q-60 0 -96 33.5t-36 87.5q0 64 41 95h-186
q50 -39 77 -100t27 -131zM411 404q0 -34 18 -55t50 -21q31 0 49.5 21.5t18.5 52.5q0 34 -18 57t-50 23t-50 -23.5t-18 -54.5z" />
    <glyph glyph-name="tlmvR" unicode="&#xc43;" horiz-adv-x="569" 
d="M489 108q0 -143 -65 -226.5t-175 -83.5q-96 0 -155 61t-59 159q0 76 40 128.5t104 52.5q56 0 91.5 -34.5t35.5 -87.5t-35 -87t-86 -34q-69 0 -95 48q7 -75 50.5 -114.5t107.5 -39.5q85 0 132 68.5t47 186.5q0 231 -147 441h73q136 -213 136 -438zM110 77q0 -31 17.5 -50
t52.5 -19q30 0 47.5 18.5t17.5 51.5q0 30 -18 49t-49 19t-49.5 -19.5t-18.5 -49.5z" />
    <glyph glyph-name="tlmvRR" unicode="&#xc44;" horiz-adv-x="796" 
d="M489 139q0 -164 -64.5 -252.5t-175.5 -88.5q-96 0 -155 61t-59 159q0 76 40 128.5t104 52.5q56 0 91.5 -34.5t35.5 -87.5t-35 -87t-86 -34q-69 0 -95 48q7 -75 50.5 -114.5t107.5 -39.5q86 0 132.5 73t46.5 212q0 104 -41.5 207.5t-114.5 149.5v54h352q84 0 124 -41
t40 -104q0 -52 -35 -88.5t-91 -36.5q-59 0 -95.5 33t-36.5 85q0 66 42 98h-217q66 -55 100.5 -158t34.5 -195zM110 77q0 -31 17.5 -50t52.5 -19q30 0 47.5 18.5t17.5 51.5q0 30 -18 49t-49 19t-49.5 -19.5t-18.5 -49.5zM590 404q0 -34 18 -55t50 -21q31 0 49.5 21.5
t18.5 52.5q0 34 -18 57t-50 23t-50 -23.5t-18 -54.5z" />
    <glyph glyph-name="tlmE" unicode="&#xc46;" horiz-adv-x="569" 
d="M96 721h258q73 0 110.5 -31t37.5 -82q0 -52 -34 -82.5t-93 -30.5h-63v51h58q34 0 52 15.5t18 44.5q0 63 -83 63h-261v52z" />
    <glyph glyph-name="tlmEE" unicode="&#xc47;" horiz-adv-x="569" 
d="M375 495h-63v51h58q34 0 52 15.5t18 43.5q0 64 -83 64h-261v52h271q-42 28 -42 77q0 34 24 55.5t70 21.5h74v-52h-58q-48 0 -48 -43q0 -42 49 -70q32 -14 49 -43t17 -60q0 -51 -34.5 -81.5t-92.5 -30.5z" />
    <glyph glyph-name="tlmAI" unicode="&#xc48;" horiz-adv-x="569" 
d="M518 -310h-367q-84 0 -123.5 41t-39.5 104q0 52 35 88.5t90 36.5q59 0 95 -33.5t36 -85.5q0 -66 -41 -97h315v-54zM48 -166q0 -34 18 -57.5t50 -23.5q33 0 50.5 23.5t17.5 55.5q0 34 -17.5 55t-50.5 21q-31 0 -49.5 -21.5t-18.5 -52.5zM375 493h-63v52h58q33 0 51.5 16
t18.5 44q0 30 -18.5 45t-64.5 15h-259v52h256q75 0 111.5 -29.5t36.5 -80.5q0 -52 -34.5 -83t-92.5 -31z" />
    <glyph glyph-name="tlmO" unicode="&#xc4a;" horiz-adv-x="743" 
d="M281 546v-47q-90 0 -142 51t-52 136q0 57 33.5 101.5t91.5 44.5q89 0 103 -101q14 46 50 74.5t95 28.5q56 0 94.5 -29t38.5 -79q0 -45 -28.5 -72t-73.5 -27q-41 0 -70 24.5t-29 63.5q0 41 27 65q-36 -10 -55.5 -40t-19.5 -72v-16h-61v16q0 46 -16 79t-51 33
q-32 0 -49.5 -29t-17.5 -67q0 -63 33.5 -100t98.5 -38zM446 725q0 -23 12 -37.5t33 -14.5t34 15t13 38q0 22 -12 38t-34 16t-34 -17t-12 -38z" />
    <glyph glyph-name="tlmOO" unicode="&#xc4b;" horiz-adv-x="724" 
d="M281 546v-47q-90 0 -142 51t-52 136q0 57 33.5 101.5t91.5 44.5q45 0 71 -27.5t32 -73.5q14 46 50 74.5t95 28.5h13q-32 23 -32 58q0 26 20.5 44.5t59.5 18.5h77v-53h-56q-39 0 -39 -33q0 -30 35 -53q55 -30 55 -90q0 -45 -28.5 -72t-73.5 -27q-41 0 -70 24.5t-29 63.5
q0 41 27 65q-36 -10 -55.5 -40t-19.5 -72v-16h-61v16q0 46 -16 79t-51 33q-32 0 -49.5 -29t-17.5 -67q0 -63 33.5 -100t98.5 -38zM446 725q0 -23 12 -37.5t33 -14.5t34 15t13 38q0 22 -12 38t-34 16t-34 -17t-12 -38z" />
    <glyph glyph-name="tlmAU" unicode="&#xc4c;" horiz-adv-x="668" 
d="M651 572q0 -52 -35 -89t-90 -37q-59 0 -95 33t-36 85q0 67 41 98h-143q30 -22 30 -62q0 -43 -30.5 -69.5t-83.5 -26.5h-130v54h120q63 0 63 50q0 54 -74 54h-193v54h493q84 0 123.5 -40.5t39.5 -103.5zM455 575q0 -35 17.5 -56t50.5 -21q31 0 49.5 21.5t18.5 53.5
q0 33 -18 56t-50 23q-33 0 -50.5 -23.5t-17.5 -53.5z" />
    <glyph glyph-name="tlVirama" unicode="&#xc4d;" horiz-adv-x="489" 
d="M499 811h-312q-36 0 -55.5 -15.5t-19.5 -42.5q0 -55 83 -55h146v-53h-157q-28 0 -46 -14t-18 -36q0 -54 74 -54h17v-36h-45q-48 0 -77.5 25t-29.5 68q0 28 15.5 53t43.5 37q-30 7 -49.5 28t-19.5 53q0 44 35 69.5t106 25.5h309v-53z" />
    <glyph glyph-name="tlLengthmark" unicode="&#xc55;" horiz-adv-x="569" 
d="M383 856v-52q-33 17 -67 17q-39 0 -61.5 -24t-22.5 -70q0 -68 68 -142h-58q-72 62 -72 148q0 64 39 101.5t99 37.5q43 0 75 -16z" />
    <glyph glyph-name="tlAIlengthmark" unicode="&#xc56;" 
d="M272 -292h-381q-84 0 -123.5 41t-39.5 104q0 52 35 88.5t91 36.5q58 0 94.5 -33.5t36.5 -84.5q0 -66 -41 -98h328v-54zM-212 -148q0 -34 18 -57t50 -23q33 0 50.5 23.5t17.5 54.5q0 34 -17.5 55t-50.5 21q-31 0 -49.5 -21.5t-18.5 -52.5z" />
    <glyph glyph-name="tlTSA" unicode="&#xc58;" horiz-adv-x="686" 
d="M345 99q-6 -46 -44 -77t-94 -31q-73 0 -117.5 40t-44.5 106q0 84 67 125h-98v54h211v-54q-57 -1 -87.5 -36t-30.5 -85q0 -45 27 -71.5t73 -26.5q48 0 77.5 34t29.5 88v44h61v-44q0 -54 27 -88t74 -34q50 0 79.5 44.5t29.5 112.5q0 123 -80.5 208t-205.5 85h-1l-112 139
h77l67 -86l151 183h74l-166 -203q117 -25 187 -112t70 -204q0 -99 -46 -159t-120 -60q-62 0 -97 30.5t-38 77.5zM482 756h-437v54h385q-41 31 -41 98q0 51 36.5 85t94.5 34q56 0 91 -37t35 -90q0 -63 -40 -103.5t-124 -40.5zM449 898q0 -31 18 -54.5t50 -23.5t50 23t18 57
q0 31 -18 52.5t-50 21.5t-50 -21.5t-18 -54.5z" />
    <glyph glyph-name="tlDZA" unicode="&#xc59;" horiz-adv-x="678" 
d="M346 99q-26 -108 -156 -108q-69 0 -112 38.5t-43 102.5q0 45 23.5 80.5t56.5 59.5t66 45.5t56.5 47.5t23.5 57q0 37 -19 59.5t-53 22.5q-33 0 -54.5 -22t-21.5 -62q0 -17 5 -40h-60q-6 22 -6 44q0 58 37 95.5t100 37.5q40 0 77 -23.5t62 -52t61.5 -52t74.5 -23.5
q39 0 60.5 22t21.5 58q0 31 -12 60h59q15 -32 15 -68q0 -56 -38.5 -91t-102.5 -35q-43 0 -82 19t-66 48q-2 -40 -25.5 -73t-56 -55.5t-64 -44t-53.5 -50.5t-22 -64q0 -40 26 -64.5t70 -24.5q53 0 87 33.5t34 88.5v43h62v-43q0 -52 30 -87t77 -35q45 0 69 29t24 76
q0 48 -23 100h63q20 -53 20 -101q0 -67 -41 -111.5t-109 -44.5q-58 0 -96 28t-45 80zM474 610h-438v54h387q-42 32 -42 98q0 52 36 85t95 33q56 0 91 -36.5t35 -89.5q0 -63 -40 -103.5t-124 -40.5zM442 752q0 -31 17.5 -54.5t50.5 -23.5q32 0 49.5 23t17.5 57q0 31 -18 52.5
t-49 21.5q-33 0 -50.5 -21t-17.5 -55z" />
    <glyph glyph-name="tlvRR" unicode="&#xc60;" horiz-adv-x="1666" 
d="M346 99q-13 -52 -52.5 -80t-100.5 -28q-70 0 -114 39t-44 102q0 38 16.5 69.5t41.5 51.5t54.5 41t54.5 37.5t41.5 40t16.5 50.5q0 38 -18.5 60t-52.5 22t-55 -21.5t-21 -62.5q0 -16 5 -41h-60q-6 23 -6 44q0 59 37 96.5t100 37.5q62 0 97.5 -39.5t35.5 -94.5
q0 -41 -23 -74t-56 -56t-66 -45t-56 -51.5t-23 -64.5q0 -41 26 -65t73 -24q53 0 85.5 34.5t32.5 87.5v44h62v-44q0 -54 28.5 -88t77.5 -34q60 0 90.5 60t30.5 153q0 108 -43.5 173.5t-124.5 65.5q-16 0 -32 -3v57q14 3 30 3q107 0 167.5 -79t64.5 -203h2q0 -108 39 -167.5
t104 -59.5q58 0 97.5 55.5t39.5 157.5q0 101 -57 168.5t-146 67.5v55q121 0 193 -83.5t72 -201.5v-1q0 -108 38.5 -163t104.5 -55q58 0 97.5 56t39.5 157t-57.5 168.5t-146.5 67.5v54h397q84 0 123.5 -41t39.5 -104q0 -52 -35 -88.5t-91 -36.5q-59 0 -95 33t-36 85
q0 66 42 98h-192q57 -35 85 -96t28 -134q0 -136 -55 -203.5t-144 -67.5q-122 0 -167 122q-49 -122 -175 -122q-119 0 -166 126q-21 -60 -62.5 -93t-98.5 -33t-93.5 28t-44.5 80zM1450 404q0 -34 17.5 -55t49.5 -21t50 21.5t18 52.5q0 34 -17.5 57t-50.5 23
q-32 0 -49.5 -23.5t-17.5 -54.5z" />
    <glyph glyph-name="tlvLL" unicode="&#xc61;" horiz-adv-x="1215" 
d="M894 244q0 -161 -97.5 -260t-235.5 -99q-102 0 -165.5 46t-63.5 127q0 50 26 88.5t63.5 63.5t75 48.5t63.5 57t26 76.5q0 49 -29.5 80t-78.5 31q-58 0 -87 -39.5t-29 -92.5v-40h-61v40q0 56 -29 94t-86 38q-49 0 -76.5 -35.5t-27.5 -81.5q0 -48 24 -97h-63
q-23 45 -23 100q0 67 45 117t120 50q67 0 105 -35.5t42 -84.5q2 47 42.5 83.5t104.5 36.5q77 0 123 -47.5t46 -115.5q0 -54 -26 -94.5t-63 -65.5t-74.5 -48t-63.5 -55t-26 -73q0 -57 45.5 -88.5t121.5 -31.5q113 0 192 87.5t79 219.5q0 39 -8.5 80t-25 79.5t-47 63.5
t-68.5 25v54h348q84 0 123.5 -41t39.5 -103q0 -53 -35 -89.5t-91 -36.5q-59 0 -95 33t-36 85q0 66 42 98h-180q94 -65 94 -248zM999 404q0 -34 17.5 -55t50.5 -21q31 0 49.5 21.5t18.5 52.5q0 34 -18 57t-50 23q-33 0 -50.5 -23.5t-17.5 -54.5z" />
    <glyph glyph-name="tlmvL" unicode="&#xc62;" 
d="M110 -93v48q66 1 105.5 -52.5t39.5 -144.5q0 -101 -62.5 -168t-155.5 -67q-69 0 -111 31.5t-42 83.5q0 41 25.5 71t56 45.5t56 41t25.5 57.5q0 29 -17.5 47.5t-45.5 18.5q-33 0 -51.5 -22t-18.5 -59v-30h-49v30q0 38 -18.5 59.5t-50.5 21.5q-27 0 -44.5 -20.5
t-17.5 -50.5q0 -29 18 -66h-49q-18 33 -18 69q0 47 31.5 78.5t79.5 31.5q34 0 59 -15.5t35 -41.5q9 26 35 41.5t60 15.5q49 0 80.5 -30.5t31.5 -77.5q0 -36 -16.5 -63t-40.5 -43.5t-48 -31t-40.5 -34t-16.5 -44.5q0 -33 27.5 -52.5t75.5 -19.5q71 0 119.5 55.5t48.5 137.5
q0 63 -24 107.5t-72 41.5z" />
    <glyph glyph-name="tlmvLL" unicode="&#xc63;" 
d="M255 -243q0 -101 -62.5 -167.5t-155.5 -66.5q-69 0 -111 31.5t-42 83.5q0 41 25.5 71t56 45.5t56 41t25.5 57.5q0 29 -17.5 47.5t-45.5 18.5q-33 0 -51.5 -22t-18.5 -59v-30h-49v30q0 38 -18.5 59.5t-50.5 21.5q-27 0 -44.5 -20.5t-17.5 -50.5q0 -29 18 -66h-49
q-18 33 -18 69q0 47 31.5 78.5t79.5 31.5q34 0 59 -15.5t35 -41.5q9 26 35 41.5t60 15.5q49 0 80.5 -30.5t31.5 -77.5q0 -36 -16.5 -63t-40.5 -43.5t-48 -31t-40.5 -34t-16.5 -44.5q0 -33 27.5 -52.5t75.5 -19.5q71 0 119.5 55.5t48.5 137.5q0 63 -24 109t-72 46v42h268
q65 0 96 -31.5t31 -80.5q0 -41 -27 -69t-71 -28q-46 0 -74 25.5t-28 65.5q0 51 32 76h-134q52 -46 52 -156zM353 -155q0 -27 13 -43.5t38 -16.5t39 17t14 41q0 26 -13.5 44t-39.5 18q-24 0 -37.5 -18t-13.5 -42z" />
    <glyph glyph-name="zerowidthnonjoiner" unicode="&#x200c;" 
d="M24 -230h-47v1041h47v-1041z" />
    <glyph glyph-name="zerowidthjoiner" unicode="&#x200d;" 
d="M24 -230h-47v865l-69 -73l-33 33l93 93l-95 95l33 33l95 -95l96 95l32 -32l-96 -96l96 -95l-33 -33l-72 75v-865z" />
    <glyph glyph-name="endash" unicode="&#x2013;" horiz-adv-x="536" 
d="M476 243h-416v55h416v-55z" />
    <glyph glyph-name="emdash" unicode="&#x2014;" horiz-adv-x="819" 
d="M759 245h-699v55h699v-55z" />
    <glyph glyph-name="quoteleft" unicode="&#x2018;" horiz-adv-x="157" 
d="M88 481h-81l115 214h45z" />
    <glyph glyph-name="quoteright" unicode="&#x2019;" horiz-adv-x="158" 
d="M53 481h-45l79 214h81z" />
    <glyph glyph-name="quotesinglbase" unicode="&#x201a;" horiz-adv-x="158" 
d="M49 -122h-45l79 214h81z" />
    <glyph glyph-name="quotedblleft" unicode="&#x201c;" horiz-adv-x="290" 
d="M89 481h-81l115 214h45zM221 481h-81l115 214h45z" />
    <glyph glyph-name="quotedblright" unicode="&#x201d;" horiz-adv-x="289" 
d="M53 481h-45l79 214h81zM185 481h-45l79 214h81z" />
    <glyph glyph-name="quotedblbase" unicode="&#x201e;" horiz-adv-x="289" 
d="M49 -122h-45l79 214h81zM181 -122h-45l79 214h81z" />
    <glyph glyph-name="dagger" unicode="&#x2020;" horiz-adv-x="514" 
d="M469 442h-188v-442h-57v442h-179v56h179v176h57v-176h188v-56z" />
    <glyph glyph-name="daggerdbl" unicode="&#x2021;" horiz-adv-x="514" 
d="M469 189h-188v-189h-57v189h-179v56h179v197h-179v56h179v176h57v-176h188v-56h-188v-197h188v-56z" />
    <glyph glyph-name="bullet" unicode="&#x2022;" horiz-adv-x="455" 
d="M360 356q0 -56 -38 -94.5t-94 -38.5q-57 0 -95 38t-38 95t37.5 95t94.5 38q56 0 94.5 -38.5t38.5 -94.5z" />
    <glyph glyph-name="ellipsis" unicode="&#x2026;" horiz-adv-x="662" 
d="M132 43q0 -22 -14.5 -36.5t-36.5 -14.5t-36.5 14.5t-14.5 36.5t14.5 36.5t36.5 14.5t36.5 -14.5t14.5 -36.5zM382 43q0 -22 -14.5 -36.5t-36.5 -14.5t-36.5 14.5t-14.5 36.5t14.5 36.5t36.5 14.5t36.5 -14.5t14.5 -36.5zM632 43q0 -22 -14.5 -36.5t-36.5 -14.5
t-36.5 14.5t-14.5 36.5t14.5 36.5t36.5 14.5t36.5 -14.5t14.5 -36.5z" />
    <glyph glyph-name="perthousand" unicode="&#x2030;" horiz-adv-x="1159" 
d="M256 -1h-61l352 655h62zM345 510q0 -62 -44 -106t-106 -44t-106 44t-44 106t44 106t106 44q61 0 105.5 -44t44.5 -106zM101 510q0 -39 27.5 -66.5t66.5 -27.5t66.5 27.5t27.5 66.5t-27.5 66.5t-66.5 27.5t-66.5 -27.5t-27.5 -66.5zM759 143q0 -62 -44 -106t-106 -44
t-106 44t-44 106t44 106t106 44q61 0 105.5 -44.5t44.5 -105.5zM515 143q0 -39 27.5 -66.5t66.5 -27.5t66.5 27.5t27.5 66.5t-27.5 66.5t-66.5 27.5t-66.5 -27.5t-27.5 -66.5zM1134 143q0 -62 -44 -106t-106 -44t-106 44t-44 106t44 106t106 44t106 -44.5t44 -105.5z
M890 143q0 -39 27.5 -66.5t66.5 -27.5t66.5 27.5t27.5 66.5t-27.5 66.5t-66.5 27.5t-66.5 -27.5t-27.5 -66.5z" />
    <glyph glyph-name="guilsinglleft" unicode="&#x2039;" horiz-adv-x="280" 
d="M103 253l147 -162h-70l-150 162l150 162h70z" />
    <glyph glyph-name="guilsinglright" unicode="&#x203a;" horiz-adv-x="277" 
d="M250 253l-150 -162h-70l147 162l-147 162h70z" />
    <glyph glyph-name="fraction" unicode="&#x2044;" horiz-adv-x="324" 
d="M-9 0h-61l456 712h62z" />
    <glyph glyph-name="Euro" unicode="&#x20ac;" horiz-adv-x="582" 
d="M542 13q-41 -21 -117 -21q-96 0 -169 63t-97 171h-104v49h97q-3 24 -3 50q0 35 4 60h-98v49h106q26 106 98.5 165.5t172.5 59.5q72 0 110 -19v-59q-37 19 -104 19q-78 0 -133.5 -42.5t-77.5 -123.5h203v-49h-213q-4 -25 -4 -60q0 -26 3 -50h214v-49h-205
q22 -83 78.5 -129t129.5 -46q71 0 109 21v-59z" />
    <glyph glyph-name="indianrupee" unicode="&#x20b9;" horiz-adv-x="536" 
d="M166 264h-28l208 -264h-77l-204 264v55h101q76 0 118.5 33t47.5 93h-267v57h263q-24 115 -162 115h-101v57h421v-57h-167q60 -36 72 -115h95v-57h-92q-5 -82 -66.5 -131.5t-161.5 -49.5z" />
    <glyph glyph-name="uni20BA" unicode="&#x20ba;" horiz-adv-x="578" 
d="M204 0h-44v297l-95 -50v61l95 50v84l-95 -50v61l95 50v152h61v-120l116 61v-61l-116 -61v-84l116 61v-61l-116 -61v-273q107 7 175.5 96.5t68.5 210.5h59q0 -161 -91 -262t-229 -101z" />
    <glyph glyph-name="uni20BD" unicode="&#x20bd;" horiz-adv-x="594" 
d="M299 600h-87v-289h98q81 0 126.5 35t45.5 102q0 73 -47.5 112.5t-135.5 39.5zM418 91h-206v-91h-62v91h-112v55h112v110h-112v55h112v344h142q119 0 186 -54.5t67 -150.5q0 -89 -64 -141.5t-178 -52.5h-91v-110h206v-55z" />
    <glyph glyph-name="uni2113" unicode="&#x2113;" horiz-adv-x="496" 
d="M225 478v-201q72 26 111 87t39 141q0 51 -19.5 85t-55.5 34q-38 0 -56.5 -39.5t-18.5 -106.5zM449 27q-49 -32 -114 -32q-78 0 -124.5 47t-46.5 137v26q-22 -3 -47 -3q-43 0 -72 11v58q36 -12 71 -12q26 0 48 3v219q0 89 33 143.5t101 54.5q69 0 103.5 -50t34.5 -127
q0 -98 -56.5 -176.5t-154.5 -108.5v-6q0 -81 25.5 -121t88.5 -40q58 0 110 31v-54z" />
    <glyph glyph-name="trademark" unicode="&#x2122;" horiz-adv-x="678" 
d="M308 331h-53l27 343h72l63 -180l31 -98q16 49 34 98l67 180h74l23 -343h-52l-11 167l-5 113q-9 -26 -41 -113l-60 -159h-57l-56 159l-39 113q-3 -27 -8 -113zM139 330h-51v298h-88v46h224v-46h-85v-298z" />
    <glyph glyph-name="uni2126" unicode="&#x2126;" horiz-adv-x="778" 
d="M344 0h-289v57h165q-64 40 -97.5 114.5t-33.5 173.5q0 153 80.5 248t214.5 95q139 0 217.5 -94.5t78.5 -248.5q0 -210 -123 -288h166v-57h-289v57q91 15 136.5 93t45.5 195q0 129 -61 206t-171 77q-107 0 -169 -77.5t-62 -205.5q0 -114 51.5 -193.5t139.5 -94.5v-57z" />
    <glyph glyph-name="partialdiff" unicode="&#x2202;" horiz-adv-x="506" 
d="M462 286q0 -130 -59 -212t-170 -82q-90 0 -141.5 63.5t-51.5 150.5q0 97 63 154.5t145 57.5q87 0 144 -63q-22 97 -94 186.5t-146 132.5h88q81 -49 151.5 -162t70.5 -226zM241 50q77 0 117 65t42 163q-60 84 -155 84q-63 0 -102 -42t-39 -114q0 -67 37 -111.5t100 -44.5z
" />
    <glyph glyph-name="uni2206" unicode="&#x2206;" horiz-adv-x="601" 
d="M30 0v57l228 617h90l223 -617v-57h-541zM170 260l-73 -205h408l-72 206l-130 364q-26 -68 -133 -365z" />
    <glyph glyph-name="product" unicode="&#x220f;" horiz-adv-x="580" 
d="M162 -17q0 -167 -146 -167q-35 0 -61 11v60q24 -12 55 -12q90 0 90 98v701h404v-854h-62v797h-280v-634z" />
    <glyph glyph-name="summation" unicode="&#x2211;" horiz-adv-x="430" 
d="M102 -143h373v-57h-445v57l188 387l-188 373v57h445v-57h-373l188 -373z" />
    <glyph glyph-name="minus" unicode="&#x2212;" horiz-adv-x="544" 
d="M484 312h-424v56h424v-56z" />
    <glyph glyph-name="uni2215" unicode="&#x2215;" horiz-adv-x="324" 
d="M-9 0h-61l456 712h62z" />
    <glyph glyph-name="uni2219" unicode="&#x2219;" horiz-adv-x="222" 
d="M162 337q0 -22 -14.5 -36.5t-36.5 -14.5t-36.5 14.5t-14.5 36.5t14.5 36.5t36.5 14.5t36.5 -14.5t14.5 -36.5z" />
    <glyph glyph-name="radical" unicode="&#x221a;" horiz-adv-x="736" 
d="M455 -200h-96l-204 555h-121l11 56h157l114 -312l90 -253q29 118 72 260l240 789h64z" />
    <glyph glyph-name="infinity" unicode="&#x221e;" horiz-adv-x="836" 
d="M416 307q-96 -122 -200 -122q-78 0 -122 44.5t-44 116.5t46.5 118t125.5 46q60 0 105.5 -32.5t91.5 -92.5q46 60 92.5 93t106.5 33q79 0 123.5 -44t44.5 -115q0 -72 -46.5 -119.5t-125.5 -47.5q-62 0 -106 31t-92 91zM110 351q0 -47 30.5 -80t82.5 -33q77 0 154 109
q-24 32 -42.5 53t-49.5 39t-63 18q-53 0 -82.5 -29.5t-29.5 -76.5zM459 347q40 -54 74 -81t81 -27q54 0 82.5 30.5t28.5 78.5q0 45 -31 77t-83 32q-77 0 -152 -110z" />
    <glyph glyph-name="integral" unicode="&#x222b;" horiz-adv-x="311" 
d="M184 -7q0 -69 -36 -110t-101 -41q-19 0 -41 6v60q21 -8 44 -8q30 0 51.5 23.5t21.5 70.5v561q0 69 36 110t101 41q19 0 41 -6v-60q-21 8 -44 8q-30 0 -51.5 -23.5t-21.5 -70.5v-561z" />
    <glyph glyph-name="approxequal" unicode="&#x2248;" horiz-adv-x="625" 
d="M217 451q-70 0 -119 -72l-40 37q65 91 152 91q50 0 118.5 -40t102.5 -40q56 0 88 60l47 -32q-53 -85 -135 -85q-45 0 -116.5 40.5t-97.5 40.5zM217 252q-70 0 -119 -72l-40 37q65 91 152 91q50 0 118.5 -40t102.5 -40q56 0 88 60l47 -32q-53 -85 -135 -85
q-45 0 -116.5 40.5t-97.5 40.5z" />
    <glyph glyph-name="notequal" unicode="&#x2260;" horiz-adv-x="544" 
d="M484 215h-241l-40 -90h-51l40 90h-132v56h156l61 139h-217v55h241l40 90h51l-40 -90h132v-55h-156l-61 -139h217v-56z" />
    <glyph glyph-name="lessequal" unicode="&#x2264;" horiz-adv-x="539" 
d="M479 489l-404 -89l404 -90v-60l-424 101v97l424 101v-60zM479 130h-424v55h424v-55z" />
    <glyph glyph-name="greaterequal" unicode="&#x2265;" horiz-adv-x="539" 
d="M484 448v-97l-424 -101v60l404 90l-404 89v60zM484 130h-424v55h424v-55z" />
    <glyph glyph-name="lozenge" unicode="&#x25ca;" horiz-adv-x="553" 
d="M130 337l49 -95l97 -188q32 63 98 188l49 95l-49 95l-98 188q-32 -62 -97 -188zM315 0h-82l-175 337l175 337h82l180 -337z" />
    <glyph glyph-name="dottedcircle" unicode="&#x25cc;" horiz-adv-x="660" 
d="M286 90q0 -20 -12.5 -33t-31.5 -13t-32 13t-13 33q0 18 13 31t32 13t31.5 -13t12.5 -31zM184 165q0 -19 -12.5 -31.5t-31.5 -12.5q-20 0 -32 12.5t-12 31.5t12.5 31.5t31.5 12.5t31.5 -12.5t12.5 -31.5zM132 281q0 -19 -12.5 -31t-31.5 -12t-31.5 12t-12.5 31t12.5 32
t31.5 13t31.5 -12.5t12.5 -32.5zM413 74q0 -19 -12.5 -31.5t-32.5 -12.5t-32 12t-12 32t12 32t32 12t32.5 -12.5t12.5 -31.5zM147 407q0 -19 -13 -31.5t-31 -12.5q-20 0 -33 12.5t-13 31.5t13 31.5t33 12.5q18 0 31 -12.5t13 -31.5zM534 127q0 -19 -13 -31.5t-32 -12.5
t-31.5 12.5t-12.5 31.5t12.5 31.5t31.5 12.5t32 -12.5t13 -31.5zM227 517q0 -20 -12.5 -32.5t-31.5 -12.5t-31.5 12.5t-12.5 32.5q0 19 12.5 31.5t31.5 12.5t31.5 -12.5t12.5 -31.5zM606 225q0 -19 -12.5 -31.5t-30.5 -12.5q-19 0 -32 12.5t-13 31.5t13 32t32 13
q18 0 30.5 -13t12.5 -32zM345 560q0 -20 -12.5 -32t-31.5 -12t-31.5 12t-12.5 32t12.5 32t31.5 12t31.5 -12t12.5 -32zM616 359q0 -19 -12.5 -31.5t-31.5 -12.5q-20 0 -32 12.5t-12 31.5t12 31.5t32 12.5q19 0 31.5 -12.5t12.5 -31.5zM471 545q0 -18 -12.5 -31t-30.5 -13
q-19 0 -32 13t-13 31q0 19 12.5 32t32.5 13q19 0 31 -12.5t12 -32.5zM566 477q0 -19 -12.5 -31.5t-31.5 -12.5t-31.5 12.5t-12.5 31.5t12.5 32t31.5 13t31.5 -12.5t12.5 -32.5z" />
    <glyph glyph-name="fi" unicode="&#xfb01;" horiz-adv-x="498" 
d="M184 0h-61v455h-93v52h93v54q0 69 36.5 110t105.5 41q66 0 125 -32v-60q-65 34 -128 34q-78 0 -78 -94v-53h238v-507h-61v455h-177v-455z" />
    <glyph glyph-name="fl" unicode="&#xfb02;" horiz-adv-x="488" 
d="M300 455h-116v-455h-61v455h-93v52h93v54q0 70 36.5 110.5t104.5 40.5q78 0 148 -45v-667h-61v635q-47 19 -84 19q-83 0 -83 -94v-53h116v-52z" />
    <glyph glyph-name="ITF" horiz-adv-x="1623" 
d="M1292 0h-208v674h208v-674zM288 0h-208v674h208v-674zM539 477h-208v197h208v-197zM790 0h-208v674h208v-674zM1041 477h-208v197h208v-197zM1543 238h-209v197h209v-197zM1543 477h-209v197h209v-197z" />
    <glyph glyph-name="tlTick" horiz-adv-x="569" 
d="M321 495h-67l-120 147h78l75 -96l162 211h73z" />
    <glyph glyph-name="tlTeardrop" horiz-adv-x="569" 
d="M326 -172h-83v14l24 162h35l24 -162v-14z" />
    <glyph glyph-name="tlKAc2" horiz-adv-x="326" 
d="M355 -267q0 -79 -54.5 -130.5t-140.5 -51.5q-95 0 -152.5 54.5t-57.5 148.5q0 66 30.5 143.5t66.5 137.5t66.5 138t30.5 145q0 61 -16.5 113t-57.5 115h64q65 -105 65 -228q0 -73 -30.5 -155.5t-66.5 -142.5t-66.5 -133.5t-30.5 -132.5q0 -68 41.5 -111.5t114.5 -43.5
q60 0 99.5 39.5t39.5 97.5q0 53 -35.5 95.5t-101.5 52.5v50h210v-50h-110q43 -20 67.5 -60.5t24.5 -90.5z" />
    <glyph glyph-name="tlKHAc2" 
d="M-166 -471q60 0 107 36q-34 27 -48.5 38t-41 23.5t-48.5 12.5q-28 0 -45.5 -14t-17.5 -38q0 -27 25 -42.5t69 -15.5zM86 -239q0 -113 -68 -192q58 -39 105 -39q61 0 99 49.5t38 128.5q0 80 -35 128.5t-98 53.5v50q84 -3 135.5 -66.5t51.5 -161.5q0 -101 -53 -164.5
t-137 -63.5q-67 0 -142 51q-65 -52 -150 -52q-68 0 -107 28t-39 77q0 42 31 69.5t78 27.5q32 0 68 -15.5t54.5 -28t58.5 -42.5q55 68 55 163q0 56 -26 97.5t-65 41.5q-25 0 -40.5 -15t-15.5 -39t14.5 -37t40.5 -13q24 0 53 12v-45q-28 -14 -61 -14q-45 0 -73.5 26t-28.5 68
q0 44 31.5 73.5t78.5 29.5q66 0 106.5 -54.5t40.5 -131.5zM20 -650h-72v13l20 134h31l21 -134v-13z" />
    <glyph glyph-name="tlGAc2" 
d="M148 -495h-57q26 81 26 178q0 92 -29.5 150t-86.5 58q-58 0 -88 -58t-30 -150q0 -102 25 -178h-55q-23 76 -23 177q0 112 44 185.5t127 73.5q82 0 125.5 -73.5t43.5 -185.5q0 -94 -22 -177z" />
    <glyph glyph-name="tlGHAc2" 
d="M-90 -632h-72v13l20 135h32l20 -135v-13zM-295 -379q0 -32 16.5 -50.5t46.5 -18.5q29 0 46.5 18.5t17.5 50.5q0 29 -18 48t-47 19q-26 0 -44 -19.5t-18 -47.5zM344 -281q0 -98 -35 -153.5t-97 -55.5q-77 0 -102 79q-39 -79 -123 -79q-77 0 -118 82q-8 -37 -35.5 -60
t-66.5 -23q-49 0 -80 30.5t-31 80.5q0 46 32.5 78t77.5 32q36 0 63.5 -18t44.5 -44t32.5 -51.5t35.5 -43.5t45 -18q45 0 70.5 42t25.5 116q0 80 -33 132.5t-91 52.5q-24 0 -42 -8v47q25 5 43 5q81 0 127.5 -62t46.5 -167v-2q0 -156 79 -156q38 0 58.5 41.5t20.5 118.5
q0 82 -28.5 131t-76.5 48v46q78 0 117.5 -62.5t39.5 -158.5z" />
    <glyph glyph-name="tlNGAc2" 
d="M-1 -422q-11 -35 -42 -55.5t-74 -20.5q-55 0 -90 31.5t-35 80.5q0 35 18 63.5t43.5 46.5t51 34.5t43.5 37t18 43.5q0 27 -13.5 43.5t-38.5 16.5q-26 0 -41.5 -17.5t-15.5 -46.5q0 -17 6 -33l-52 -1q-7 18 -7 38q0 47 30.5 76.5t79.5 29.5q77 0 100 -69h81v72h55v-72h103
v-46h-233q-3 -36 -31 -66t-59.5 -47.5t-57 -44.5t-25.5 -58t19.5 -48t53.5 -17q40 0 64.5 25.5t24.5 65.5v37h53v-37q0 -42 22 -66.5t61 -24.5q36 0 56.5 23t20.5 62q0 40 -19.5 62t-55.5 22q-15 0 -29 -3l1 49q11 4 29 4q58 0 93 -37t35 -98q0 -57 -38 -94t-93 -37
q-42 0 -71.5 21t-40.5 55z" />
    <glyph glyph-name="tlCAc2" horiz-adv-x="290" 
d="M20 -395q-10 -35 -40 -57.5t-69 -22.5q-59 0 -95 32.5t-36 85.5q0 63 48 97h-70v43h170v-43q-45 0 -69.5 -27t-24.5 -67q0 -34 21 -54.5t56 -20.5q37 0 59.5 26.5t22.5 68.5v36h53v-37q0 -44 20 -69t55 -25q88 0 88 200q0 156 -44 367.5t-119 407.5h59q157 -443 157 -775
q0 -117 -35.5 -181.5t-105.5 -64.5q-41 0 -68.5 23t-32.5 57z" />
    <glyph glyph-name="tlCHAc2" horiz-adv-x="290" 
d="M20 -395q-10 -35 -40 -57.5t-69 -22.5q-59 0 -95 32.5t-36 85.5q0 63 48 97h-70v43h170v-43q-45 0 -69.5 -27t-24.5 -67q0 -34 21 -54.5t56 -20.5q37 0 59.5 26.5t22.5 68.5v36h53v-37q0 -44 20 -69t55 -25q88 0 88 200q0 156 -44 367.5t-119 407.5h59q157 -443 157 -775
q0 -117 -35.5 -181.5t-105.5 -64.5q-41 0 -68.5 23t-32.5 57zM54 -617h-72v13l20 134h32l20 -134v-13z" />
    <glyph glyph-name="tlJAc2" 
d="M7 -403q-18 -84 -120 -84q-53 0 -86.5 30.5t-33.5 79.5q0 34 18 62t43.5 46t50.5 34.5t43 36.5t18 43q0 59 -53 59q-25 0 -40.5 -16.5t-15.5 -44.5q0 -9 4 -33h-50q-4 22 -4 36q0 46 29 74.5t77 28.5q31 0 59.5 -18t47.5 -39.5t47 -39.5t57 -18q28 0 44.5 16t16.5 43
q0 23 -11 48h50q11 -25 11 -54q0 -44 -30 -71t-79 -27q-65 0 -112 49q-3 -36 -30 -66t-57.5 -47.5t-55.5 -44t-25 -57.5t19 -48t52 -17q41 0 66 25t25 65v34h51v-34q0 -40 22 -65t58 -25q33 0 51 20.5t18 57.5q0 40 -16 77h50q17 -43 17 -78q0 -54 -33 -88t-84 -34
q-45 0 -74 22.5t-35 61.5z" />
    <glyph glyph-name="tlJHAc2" 
d="M-39 -263q0 -17 -1 -26q3 -149 81 -149q39 0 59.5 42t20.5 120q0 83 -29 132.5t-77 48.5v46q79 0 118.5 -63t39.5 -160v-8q0 -158 80 -158q38 0 59 42t21 120q0 84 -29 133t-77 48v46q78 0 118 -63.5t40 -159.5q0 -99 -35 -155t-97 -56q-77 0 -103 79q-36 -79 -109 -79
q-85 0 -108 92q-47 -92 -145 -92q-77 0 -125 60t-48 160q0 98 48 156.5t125 58.5t125 -58.5t48 -156.5zM-333 -264q0 -78 34.5 -126t86.5 -48t86 48t34 126t-33.5 124.5t-86.5 46.5t-87 -46.5t-34 -124.5zM174 -616h-71v13l20 134h31l20 -134v-13z" />
    <glyph glyph-name="tlNYAc2" 
d="M141 -525h-49q-8 60 -31 102q-64 -71 -154 -71q-62 0 -99.5 28.5t-37.5 77.5q0 42 38 74t99 32q88 0 152 -62q29 58 29 124q0 53 -17.5 88t-54.5 35q-30 0 -48 -24.5t-18 -63.5v-30h-52v33q0 35 -18.5 60t-49.5 25q-64 0 -64 -79q0 -35 11 -58h-53q-10 24 -10 56
q0 56 31.5 91t82.5 35q37 0 62.5 -21.5t32.5 -56.5q8 35 34.5 56.5t63.5 21.5q69 0 101 -75h50v78h52v-78h62v-45h-151q4 -19 4 -44q0 -90 -48 -166q44 -66 50 -143zM-93 -450q76 0 128 66q-51 59 -126 59q-40 0 -63.5 -17.5t-23.5 -46.5t22.5 -45t62.5 -16z" />
    <glyph glyph-name="tlTTAc2" 
d="M259 -269q0 -101 -38.5 -157.5t-107.5 -56.5q-41 0 -71 21.5t-41 58.5q-27 -80 -112 -80q-67 0 -107.5 58.5t-40.5 153.5q0 91 40.5 156.5t110.5 65.5q49 0 82.5 -33t33.5 -80q0 -50 -33.5 -83.5t-82.5 -33.5q-35 0 -62 18t-38 48q-4 -34 -4 -51q0 -80 27.5 -127.5
t74.5 -47.5q40 0 63 25t23 68v28h52v-27q0 -41 21.5 -67.5t61.5 -26.5q46 0 71 44.5t25 125.5q0 79 -33.5 125t-91.5 46q-22 0 -33 -2v46q11 3 36 3q79 0 126.5 -59.5t47.5 -158.5zM-180 -164q0 -33 18.5 -52t51.5 -19q29 0 47 20.5t18 52.5q0 29 -19.5 49t-47.5 20
q-29 0 -48.5 -20.5t-19.5 -50.5z" />
    <glyph glyph-name="tlTTHAc2" 
d="M173 -269q0 -98 -48.5 -156.5t-123.5 -58.5q-77 0 -125.5 58t-48.5 156q0 94 48.5 152t125.5 58q75 0 123.5 -58t48.5 -151zM-121 -271q0 -75 34.5 -122.5t87.5 -47.5q51 0 85.5 47.5t34.5 122.5q0 74 -34.5 120.5t-85.5 46.5q-53 0 -87.5 -46.5t-34.5 -120.5zM44 -271
q0 -19 -12 -30.5t-30 -11.5q-19 0 -30.5 11.5t-11.5 30.5q0 17 12 29t30 12t30 -12t12 -29z" />
    <glyph glyph-name="tlDDAc2" 
d="M249 -330q0 -70 -38 -112t-100 -42q-45 0 -78.5 21.5t-42.5 56.5q-7 -35 -34 -56.5t-67 -21.5q-64 0 -101 44t-37 120q0 101 70.5 180.5t185.5 79.5q83 0 163 -44v-49q-90 49 -165 49q-92 0 -147.5 -67.5t-55.5 -148.5q0 -55 24 -87t65 -32q34 0 53 24t19 65v35h52v-27
q0 -45 26.5 -73t69.5 -28q66 0 87 56q-23 -20 -58 -20q-43 0 -69.5 27t-26.5 70t28.5 72t71.5 29q47 0 76 -33t29 -88zM88 -310q0 -27 16 -43t43 -16q25 0 40.5 17t15.5 42q0 27 -15.5 44t-42.5 17q-25 0 -41 -17t-16 -44z" />
    <glyph glyph-name="tlDDHAc2" 
d="M249 -330q0 -70 -38 -112t-100 -42q-45 0 -78.5 21.5t-42.5 56.5q-7 -35 -34 -56.5t-67 -21.5q-64 0 -101 44t-37 120q0 101 70.5 180.5t185.5 79.5q83 0 163 -44v-49q-90 49 -165 49q-92 0 -147.5 -67.5t-55.5 -148.5q0 -55 24 -87t65 -32q34 0 53 24t19 65v35h52v-27
q0 -45 26.5 -73t69.5 -28q66 0 87 56q-23 -20 -58 -20q-43 0 -69.5 27t-26.5 70t28.5 72t71.5 29q47 0 76 -33t29 -88zM30 -625h-73v13l20 136h33l20 -136v-13zM88 -310q0 -27 16 -43t43 -16q25 0 40.5 17t15.5 42q0 27 -15.5 44t-42.5 17q-25 0 -41 -17t-16 -44z" />
    <glyph glyph-name="tlNNAc2" 
d="M-38 -463q-38 -17 -85 -17q-59 0 -94.5 31.5t-35.5 83.5q0 41 25 67.5t63 32.5q-35 10 -55 37t-20 66q0 49 36.5 82t90.5 33q39 0 69.5 -21.5t41.5 -55.5q11 36 38.5 56.5t68.5 20.5q70 0 109 -62.5t39 -173.5q0 -83 -37.5 -139.5t-106.5 -56.5q-49 0 -82 32.5t-33 79.5
q0 50 32.5 83t81.5 33q71 0 98 -58q1 9 1 26q0 85 -26.5 138.5t-76.5 53.5q-37 0 -58 -24.5t-21 -65.5v-36h-53v35q0 40 -23 65.5t-62 25.5q-34 0 -55.5 -20.5t-21.5 -53.5q0 -35 21.5 -56t56.5 -21h26v-45h-27q-38 0 -63 -21t-25 -53q0 -36 23.5 -56t66.5 -20q31 0 73 17
v-43zM46 -367q0 -29 19 -49t48 -20t48.5 20.5t19.5 51.5q0 32 -18.5 51t-49.5 19t-49 -20t-18 -53z" />
    <glyph glyph-name="tlTAc2" 
d="M100 -329h-361v50h315q-45 29 -45 93q0 52 35.5 87.5t92.5 35.5q55 0 89.5 -36.5t34.5 -87.5q0 -62 -39.5 -102t-121.5 -40zM65 -190q0 -36 18.5 -58t51.5 -22q35 0 53 22t18 60q0 34 -18.5 56t-52.5 22t-52 -23t-18 -57z" />
    <glyph glyph-name="tlTHAc2" 
d="M0 -405q-17 -78 -103 -78q-64 0 -102 47t-38 124q0 108 70 182t174 74q103 0 172.5 -74t69.5 -182q0 -77 -38 -124t-102 -47q-86 0 -103 78zM37 -616h-72v13l20 134h32l20 -134v-13zM-192 -312q0 -56 25 -91t66 -35q35 0 54.5 25.5t19.5 71.5v28h53v-28q0 -46 20.5 -71.5
t56.5 -25.5q40 0 64.5 35t24.5 91q0 88 -56 150.5t-137 62.5q-80 0 -135.5 -62.5t-55.5 -150.5zM39 -208q0 -16 -11 -27t-27 -11t-27 11t-11 27q0 17 11 28t27 11t27 -11t11 -28z" />
    <glyph glyph-name="tlDAc2" 
d="M0 -405q-17 -78 -103 -78q-64 0 -102 47t-38 124q0 108 70 182t174 74q103 0 172.5 -74t69.5 -182q0 -77 -38 -124t-102 -47q-86 0 -103 78zM-192 -312q0 -56 25 -91t66 -35q35 0 54.5 25.5t19.5 71.5v28h53v-28q0 -46 20.5 -71.5t56.5 -25.5q40 0 64.5 35t24.5 91
q0 88 -56 150.5t-137 62.5q-80 0 -135.5 -62.5t-55.5 -150.5z" />
    <glyph glyph-name="tlDHAc2" 
d="M0 -405q-17 -78 -103 -78q-64 0 -102 47t-38 124q0 108 70 182t174 74q103 0 172.5 -74t69.5 -182q0 -77 -38 -124t-102 -47q-86 0 -103 78zM37 -616h-72v13l20 134h32l20 -134v-13zM-192 -312q0 -56 25 -91t66 -35q35 0 54.5 25.5t19.5 71.5v28h53v-28q0 -46 20.5 -71.5
t56.5 -25.5q40 0 64.5 35t24.5 91q0 88 -56 150.5t-137 62.5q-80 0 -135.5 -62.5t-55.5 -150.5z" />
    <glyph glyph-name="tlNAc2" horiz-adv-x="259" 
d="M231 -451h-52q-28 82 -67 134q-76 -104 -190 -104q-74 0 -117.5 34t-43.5 92t46.5 93t120.5 35q95 0 175 -69q38 89 38 210q0 236 -126 572h60q68 -184 94 -317t26 -255q0 -144 -56 -248q60 -69 92 -177zM-78 -375q96 0 158 95q-68 68 -151 68q-52 0 -83.5 -23.5
t-31.5 -62.5q0 -35 29 -56t79 -21z" />
    <glyph glyph-name="tlPAc2" horiz-adv-x="286" 
d="M105 -387q-79 0 -124 84q-9 -38 -38.5 -61.5t-69.5 -23.5q-52 0 -84.5 32t-32.5 83q0 49 33.5 83t82.5 34q38 0 67 -19t47 -46.5t34.5 -55t39 -46.5t50.5 -19q94 0 94 185q0 288 -163 703h58q82 -213 120 -375t38 -328q0 -230 -152 -230zM-192 -271q0 -33 17.5 -52.5
t48.5 -19.5t49 20t18 52q0 31 -18.5 50t-49.5 19q-28 0 -46.5 -19.5t-18.5 -49.5z" />
    <glyph glyph-name="tlPHAc2" horiz-adv-x="286" 
d="M105 -387q-79 0 -124 84q-9 -38 -38.5 -61.5t-69.5 -23.5q-52 0 -84.5 32t-32.5 83q0 49 33.5 83t82.5 34q38 0 67 -19t47 -46.5t34.5 -55t39 -46.5t50.5 -19q94 0 94 185q0 288 -163 703h58q82 -213 120 -375t38 -328q0 -230 -152 -230zM20 -526h-72v13l20 136h32
l20 -136v-13zM-192 -271q0 -33 17.5 -52.5t48.5 -19.5t49 20t18 52q0 31 -18.5 50t-49.5 19q-28 0 -46.5 -19.5t-18.5 -49.5z" />
    <glyph glyph-name="tlBAc2" horiz-adv-x="283" 
d="M3 -417q-11 -37 -42 -57.5t-76 -20.5q-55 0 -89.5 31t-34.5 81q0 35 18 62.5t43.5 46t51 34.5t43.5 36.5t18 44.5q0 29 -14 45t-39 16q-27 0 -42.5 -16.5t-15.5 -47.5q0 -8 4 -32h-48q-6 16 -6 37q0 46 30 75t78 29q49 0 76.5 -30.5t27.5 -73.5q0 -32 -18 -58t-43 -44
t-50.5 -35t-43.5 -39.5t-18 -49.5q0 -31 20 -49t55 -18q40 0 64.5 25.5t24.5 66.5v37h52v-36q0 -43 21.5 -68t58.5 -25q49 0 70.5 47.5t21.5 141.5q0 161 -45 386.5t-121 420.5h59q75 -212 117.5 -422.5t42.5 -384.5q0 -112 -36.5 -173t-107.5 -61q-43 0 -71 20.5t-36 57.5z
" />
    <glyph glyph-name="tlBHAc2" horiz-adv-x="283" 
d="M3 -417q-11 -37 -42 -57.5t-76 -20.5q-55 0 -89.5 31t-34.5 81q0 35 18 62.5t43.5 46t51 34.5t43.5 36.5t18 44.5q0 29 -14 45t-39 16q-27 0 -42.5 -16.5t-15.5 -47.5q0 -8 4 -32h-48q-6 16 -6 37q0 46 30 75t78 29q49 0 76.5 -30.5t27.5 -73.5q0 -32 -18 -58t-43 -44
t-50.5 -35t-43.5 -39.5t-18 -49.5q0 -31 20 -49t55 -18q40 0 64.5 25.5t24.5 66.5v37h52v-36q0 -43 21.5 -68t58.5 -25q49 0 70.5 47.5t21.5 141.5q0 161 -45 386.5t-121 420.5h59q75 -212 117.5 -422.5t42.5 -384.5q0 -112 -36.5 -173t-107.5 -61q-43 0 -71 20.5t-36 57.5z
M37 -641h-72v13l20 135h32l20 -135v-13z" />
    <glyph glyph-name="tlMAc2" horiz-adv-x="236" 
d="M49 -249q22 0 34.5 16t12.5 38q0 26 -17.5 42t-49.5 16q-24 -33 -24 -64q0 -22 11.5 -35t32.5 -13zM207 -408q-67 -40 -150 -40q-88 0 -143.5 51.5t-55.5 135.5q0 66 39.5 113.5t104.5 54.5q81 175 81 326q0 160 -80 313h64q68 -155 68 -313q0 -170 -77 -328
q42 -9 66 -37t24 -63q0 -45 -28 -72t-72 -27q-42 0 -67 25.5t-25 62.5q0 28 15 57q-30 -16 -46.5 -46t-16.5 -66q0 -64 42 -103t111 -39q73 0 146 42v-47z" />
    <glyph glyph-name="tlYAc2" horiz-adv-x="257" 
d="M340 -234q0 -85 -41 -146t-100.5 -88t-127.5 -27q-66 0 -107.5 30.5t-41.5 81.5q0 35 18 62.5t43.5 46t51 34.5t43.5 36.5t18 44.5q0 29 -14 45t-39 16q-27 0 -42 -17t-15 -47q0 -8 4 -32h-49q-5 16 -5 37q0 46 29.5 75t77.5 29q49 0 77 -30.5t28 -73.5q0 -39 -27 -70.5
t-59 -49.5t-59 -46t-27 -60q0 -30 27.5 -48.5t70.5 -18.5q83 0 148 56.5t65 159.5q0 62 -22.5 130.5t-54.5 130t-64 121.5t-54.5 124.5t-22.5 119.5q0 62 33.5 104.5t91.5 42.5q61 0 91 -44t30 -119h-58q0 114 -62 114q-33 0 -51 -28t-18 -72q0 -49 22 -109t53.5 -119.5
t63 -122t53.5 -134.5t22 -139z" />
    <glyph glyph-name="tlRAc2" 
d="M0 -273q-156 0 -233.5 58.5t-77.5 146.5h47q0 -64 65 -112t199 -48q136 0 201 48t65 112h47q0 -88 -78 -146.5t-235 -58.5z" />
    <glyph glyph-name="tlLAc2" 
d="M-143 -288h-53q-17 40 -17 80q0 57 32 93t84 36q37 0 63.5 -22t33.5 -57q7 35 33 57t63 22q53 0 85 -36t32 -93q0 -40 -17 -80h-53q18 43 18 81t-17.5 59.5t-48.5 21.5q-32 0 -50 -25t-18 -62v-37h-54v37q0 37 -18 62t-50 25q-31 0 -48.5 -21.5t-17.5 -59.5t18 -81z" />
    <glyph glyph-name="tlVAc2" horiz-adv-x="266" 
d="M100 -387q-78 0 -119 81q-11 -37 -40 -59.5t-68 -22.5q-52 0 -84.5 32t-32.5 83q0 49 33.5 83t82.5 34q38 0 67 -19t46.5 -46.5t33.5 -55t36 -46.5t45 -19q40 0 59.5 36t19.5 90q0 57 -22.5 122t-54.5 124.5t-63.5 119t-54 123.5t-22.5 119q0 62 33.5 104.5t91.5 42.5
q61 0 90.5 -44t29.5 -119h-58q0 114 -62 114q-32 0 -50.5 -28t-18.5 -72q0 -49 22 -109t53.5 -118.5t63.5 -119t54 -129t22 -130.5q0 -77 -33.5 -124t-99.5 -47zM-192 -271q0 -33 17.5 -52.5t48.5 -19.5t49 20t18 52q0 31 -18.5 50t-49.5 19q-28 0 -46.5 -19.5t-18.5 -49.5z
" />
    <glyph glyph-name="tlSHAc2" horiz-adv-x="183" 
d="M45 546h53q55 -142 55 -287q0 -65 -10.5 -124t-35.5 -121t-38 -88t-46 -90q57 -20 91.5 -66t34.5 -100q0 -59 -34.5 -96.5t-89.5 -37.5q-52 0 -84.5 34t-31.5 93q2 56 45 141q-58 0 -99.5 -38.5t-41.5 -97.5q0 -25 7 -43h-53q-4 24 -4 40q0 80 55 131t135 51q15 0 22 -1
q32 62 45 89t37.5 86.5t34.5 117t10 120.5q0 154 -57 287zM28 -421q33 0 51.5 24.5t18.5 64.5q0 41 -26 77.5t-69 50.5q-43 -86 -43 -139q0 -39 18 -58.5t50 -19.5z" />
    <glyph glyph-name="tlSSAc2" 
d="M-186 -367q0 -30 16 -48t44 -18q30 0 47 18t17 48t-17.5 48t-46.5 18q-27 0 -43.5 -18.5t-16.5 -47.5zM211 -584h-65q-11 23 -11 58q0 32 12 62q-25 -11 -55 -11q-76 0 -118 79q-8 -36 -35 -58t-65 -22q-48 0 -78.5 30t-30.5 78q0 46 31.5 78t76.5 32q36 0 63 -18t44 -43
t32 -50.5t35 -43.5t45 -18q43 0 67 41.5t24 113.5q0 78 -31 130t-87 52q-25 0 -42 -6v45q23 6 43 6q78 0 123.5 -61.5t45.5 -165.5q0 -68 -22 -117l2 1q-29 -59 -29 -112q0 -42 25 -80z" />
    <glyph glyph-name="tlSAc2" horiz-adv-x="278" 
d="M-83 -456q-20 -8 -47 -8q-50 0 -81 37.5t-31 95.5q0 64 34.5 106t93.5 42q41 0 70.5 -22.5t46 -54.5t31 -64t35 -54.5t47.5 -22.5q81 0 81 171q0 157 -44 368.5t-120 407.5h59q157 -444 157 -776q0 -102 -34 -159t-99 -57q-40 0 -69 22.5t-46 54.5t-32 64t-35.5 54.5
t-47.5 22.5q-36 0 -55.5 -29t-19.5 -73q0 -40 17.5 -64.5t48.5 -24.5q22 0 40 7v-44z" />
    <glyph glyph-name="tlHAc2" 
d="M-300 -369q0 -30 17 -48.5t45 -18.5t45.5 19t17.5 48t-18 47t-47 18q-26 0 -43 -18.5t-17 -46.5zM348 -166q0 -42 -27 -69.5t-69 -27.5q-45 0 -73 25.5t-28 66.5q0 47 27 71h-143q40 -25 62.5 -73.5t22.5 -111.5q0 -91 -37.5 -141.5t-105.5 -50.5q-73 0 -115 77
q-10 -36 -37 -57t-64 -21q-49 0 -79 29.5t-30 77.5q0 46 31 77.5t77 31.5q42 0 74 -27t48.5 -59t41 -59t53.5 -27q43 0 67.5 39.5t24.5 109.5q0 86 -43 136t-118 49v45h315q64 0 94.5 -31t30.5 -80zM201 -165q0 -54 49 -54q22 0 35.5 14.5t13.5 39.5q0 24 -12.5 40.5
t-36.5 16.5t-36.5 -16.5t-12.5 -40.5z" />
    <glyph glyph-name="tlRRAc2" 
d="M-199 -172q0 -32 19 -52t51 -20q29 0 47.5 20.5t18.5 53.5q0 29 -19.5 49t-48.5 20t-48.5 -20.5t-19.5 -50.5zM152 -285h-143v45h67q-41 28 -41 80q0 44 29.5 73t72.5 29q63 0 99 -55.5t36 -150.5q0 -102 -43.5 -164.5t-115.5 -62.5q-43 0 -75 21.5t-43 57.5
q-25 -79 -110 -79q-70 0 -113.5 60.5t-43.5 157.5q0 92 37 153.5t108 61.5q49 0 82 -32.5t33 -79.5q0 -50 -32.5 -83.5t-82.5 -33.5q-33 0 -58.5 16t-37.5 43q-2 -16 -2 -46q0 -74 30 -123.5t82 -49.5q37 0 60.5 25t23.5 65v28h52v-27q0 -41 25 -66t66 -25q48 0 77.5 51.5
t29.5 133.5q0 73 -22.5 117.5t-59.5 44.5q-25 0 -41 -18t-16 -46q0 -29 18.5 -50t49.5 -26h2v-45z" />
    <glyph glyph-name="tlKSSAc2" 
d="M123 -386q0 -56 -42 -91t-107 -35q-74 0 -131 30v51q69 -36 129 -36q95 0 95 80q0 31 -23 52t-56 33.5t-65.5 26t-55.5 39.5t-23 65q0 51 40 84t108 33q54 0 98 -16v-50q-43 20 -93 20q-47 0 -72.5 -18.5t-25.5 -52.5q0 -25 23 -43.5t56 -31.5t66 -28.5t56 -43.5t23 -68z
M220 -658q-30 0 -55.5 14.5t-38.5 38.5q-20 -53 -79 -53q-28 0 -51 13t-32 38q-9 -24 -30.5 -37.5t-49.5 -13.5q-50 0 -76.5 34t-26.5 95h48q0 -85 55 -85q29 0 42.5 22t13.5 54h49q0 -76 56 -76q55 0 55 85h48q0 -32 16.5 -58.5t55.5 -26.5v-44z" />
    <glyph glyph-name="tlTAc2_RAc2" 
d="M100 -329h-361v50h315q-45 29 -45 93q0 52 35.5 87.5t92.5 35.5q55 0 89.5 -36.5t34.5 -87.5q0 -62 -39.5 -102t-121.5 -40zM65 -190q0 -36 18.5 -58t51.5 -22q35 0 53 22t18 60q0 34 -18.5 56t-52.5 22t-52 -23t-18 -57zM184 -401h47q0 -78 -59.5 -123t-164.5 -45
t-163.5 45t-58.5 123h47q0 -52 45.5 -87.5t129.5 -35.5q86 0 131.5 35.5t45.5 87.5z" />
    <glyph glyph-name="tlRAc2.spacing" horiz-adv-x="444" 
d="M211 -259h-76v4q79 76 146 218.5t67 273.5q0 54 -8 100q-54 -59 -145 -59q-65 0 -110 42t-45 109q0 61 41.5 104t106.5 43q104 0 160 -92t56 -248q0 -136 -55.5 -265t-137.5 -230zM196 334q77 0 129 64q-20 60 -56.5 90.5t-80.5 30.5q-39 0 -64 -26.5t-25 -64.5
q0 -44 26 -69t71 -25z" />
    <glyph glyph-name="tlK" horiz-adv-x="444" 
d="M350 149q0 -67 -49.5 -110t-126.5 -43q-86 0 -153 35v59q79 -42 152 -42q56 0 85 27.5t29 72.5q0 39 -27.5 63.5t-66.5 38t-77.5 28.5t-66 46t-27.5 80q0 77 72 118q-40 26 -40 76q0 28 15.5 53t43.5 37q-30 7 -49.5 28t-19.5 53q0 44 35 69.5t106 25.5h309v-53h-312
q-36 0 -55.5 -15.5t-19.5 -42.5q0 -55 83 -55h146v-53h-157q-28 0 -46 -14t-18 -36q0 -43 46 -52q17 3 36 3q67 0 115 -19v-57q-53 23 -109 23q-55 0 -87 -24.5t-32 -64.5q0 -34 27.5 -55.5t66.5 -34.5t78 -29.5t66.5 -50.5t27.5 -85z" />
    <glyph glyph-name="tlKH" horiz-adv-x="852" 
d="M504 330q0 -138 -84 -236q74 -49 133 -49q75 0 122 58t47 147q0 54 -19.5 97t-48 70.5t-56.5 52.5t-47.5 56t-19.5 68q0 67 59 94q-30 7 -49 28.5t-19 52.5q0 95 141 95h309v-53h-312q-36 0 -56 -15.5t-20 -42.5q0 -55 83 -55h147v-53h-157q-63 0 -63 -52q0 -22 14 -43
t35.5 -38.5t46 -42.5t46 -52t35.5 -68.5t14 -91.5q0 -117 -64.5 -191.5t-166.5 -74.5q-83 0 -174 64q-80 -64 -183 -64q-81 0 -129 34t-48 93q0 49 38 83t93 34q30 0 58.5 -7.5t61.5 -28t48 -31t54 -39.5q68 84 68 202q0 70 -31.5 121t-80.5 51q-35 0 -53.5 -20t-18.5 -49
q0 -28 18.5 -45.5t50.5 -17.5q37 0 65 14v-50q-33 -17 -73 -17q-53 0 -88 31t-35 83t37.5 88t94.5 36q79 0 128 -66t49 -160zM199 43q75 0 134 46q-3 2 -19.5 15t-20 16t-18 13.5t-20 14t-18 11t-19.5 10t-18 6.5t-20 5.5t-19 1.5q-37 0 -58 -18.5t-21 -47.5q0 -35 32 -54
t85 -19zM424 -173h-83v14l25 163h33l25 -163v-14z" />
    <glyph glyph-name="tlG" horiz-adv-x="486" 
d="M393 0h-65q32 101 32 223q0 117 -37.5 194t-110.5 77t-111.5 -77t-38.5 -194q0 -121 32 -222h-66q-28 99 -28 222q0 109 34.5 191.5t99.5 114.5q-31 25 -31 69q0 29 15.5 53t43.5 37q-30 7 -49 28.5t-19 52.5q0 43 34.5 69t105.5 26h235v-53h-237q-36 0 -56 -15.5
t-20 -42.5q0 -55 84 -55h98v-53h-109q-29 0 -46.5 -14t-17.5 -36q0 -38 35 -49h12q102 0 156 -91.5t54 -231.5q0 -121 -29 -223z" />
    <glyph glyph-name="tlGH" horiz-adv-x="1026" 
d="M340 -173h-82v14l24 162h33l25 -162v-14zM80 131q0 -40 22 -65.5t62 -25.5t63 25.5t23 65.5q0 39 -23 64.5t-65 25.5q-36 0 -59 -26t-23 -64zM981 261q0 -132 -59 -201.5t-150 -69.5q-123 0 -161 112q-48 -111 -160 -111q-102 0 -155 109q-10 -50 -45.5 -80t-87.5 -30
q-64 0 -103.5 38.5t-39.5 101.5q0 60 41.5 100.5t100.5 40.5q46 0 82 -23.5t58 -57t42.5 -67t47 -57t59.5 -23.5q58 0 91 56.5t33 151.5q0 104 -55 174.5t-148 70.5q-42 0 -75 -9v54q38 8 73 8q128 0 198 -81t70 -217v-2q0 -96 33.5 -151.5t97.5 -55.5q62 0 106 56t44 157
t-57.5 168.5t-146.5 67.5v55q121 0 193.5 -83.5t72.5 -201.5zM498 811h-312q-36 0 -55.5 -15.5t-19.5 -42.5q0 -55 83 -55h146v-53h-157q-28 0 -46 -14t-18 -36q0 -54 74 -54h17v-36h-45q-48 0 -77.5 25t-29.5 68q0 28 15.5 53t43.5 37q-30 7 -49.5 28t-19.5 53
q0 44 35 69.5t106 25.5h309v-53z" />
    <glyph glyph-name="tlNG" horiz-adv-x="684" 
d="M346 99q-12 -52 -52 -80t-101 -28q-70 0 -114 39t-44 102q0 38 16.5 69.5t41.5 51.5t54.5 41t54.5 37.5t41.5 40t16.5 50.5q0 38 -18.5 60t-52.5 22t-55 -21.5t-21 -62.5q0 -16 5 -41h-60q-6 23 -6 44q0 59 37 96.5t100 37.5q62 0 97.5 -39t35.5 -91h105v78
q-45 3 -71.5 27.5t-26.5 65.5q0 29 16 53t44 37q-30 7 -49 28t-19 53q0 44 34.5 69.5t105.5 25.5h250v-53h-252q-37 0 -57 -15.5t-20 -42.5q0 -55 83 -55h107v-53h-117q-28 0 -45.5 -13.5t-17.5 -36.5q0 -54 72 -54h27v-114h131v-54h-310q-12 -28 -38.5 -53.5t-55.5 -44.5
t-56.5 -39t-45.5 -46.5t-18 -57.5q0 -41 26 -65t73 -24q53 0 85.5 34.5t32.5 87.5v44h62v-44q0 -55 29.5 -88.5t81.5 -33.5q47 0 75.5 33t28.5 86q0 50 -26.5 79t-79.5 29q-14 0 -29 -3v56q13 4 32 4q77 0 120.5 -46t43.5 -121q0 -71 -45 -120t-119 -49q-61 0 -98 28t-45 80
z" />
    <glyph glyph-name="tlC" horiz-adv-x="687" 
d="M345 99q-6 -46 -44 -77t-94 -31q-73 0 -117.5 40t-44.5 106q0 84 67 125h-98v54h211v-54q-57 -1 -87.5 -36t-30.5 -85q0 -45 27 -71.5t73 -26.5q48 0 77.5 34t29.5 88v44h61v-44q0 -54 27 -88t74 -34q51 0 80 42t29 110q0 48 -17.5 86t-45.5 60.5t-64 42t-74 32t-74 28.5
t-64 32.5t-45.5 44t-17.5 63.5q0 33 17.5 61.5t48.5 42.5q-30 7 -49 28t-19 53q0 44 34.5 69.5t104.5 25.5h273v-53h-274q-37 0 -57 -15.5t-20 -42.5q0 -55 84 -55h109v-53h-120q-31 0 -50 -16.5t-19 -42.5q0 -28 22 -49.5t57.5 -36.5t78 -30t85.5 -36.5t78.5 -50.5
t57.5 -77t22 -110q0 -92 -47.5 -148.5t-119.5 -56.5q-62 0 -97 30.5t-38 77.5z" />
    <glyph glyph-name="tlCH" horiz-adv-x="687" 
d="M345 99q-6 -46 -44 -77t-94 -31q-73 0 -117.5 40t-44.5 106q0 84 67 125h-98v54h211v-54q-57 -1 -87.5 -36t-30.5 -85q0 -45 27 -71.5t73 -26.5q48 0 77.5 34t29.5 88v44h61v-44q0 -54 27 -88t74 -34q51 0 80 42t29 110q0 48 -17.5 86t-45.5 60.5t-64 42t-74 32t-74 28.5
t-64 32.5t-45.5 44t-17.5 63.5q0 33 17.5 61.5t48.5 42.5q-30 7 -49 28t-19 53q0 44 34.5 69.5t104.5 25.5h273v-53h-274q-37 0 -57 -15.5t-20 -42.5q0 -55 84 -55h109v-53h-120q-31 0 -50 -16.5t-19 -42.5q0 -28 22 -49.5t57.5 -36.5t78 -30t85.5 -36.5t78.5 -50.5
t57.5 -77t22 -110q0 -92 -47.5 -148.5t-119.5 -56.5q-62 0 -97 30.5t-38 77.5zM385 -172h-83v14l24 162h34l25 -162v-14z" />
    <glyph glyph-name="tlJ" horiz-adv-x="700" 
d="M346 99q-26 -108 -156 -108q-69 0 -112 38.5t-43 102.5q0 45 23.5 80.5t56.5 59.5t66 45.5t56.5 47.5t23.5 57q0 37 -19 59.5t-53 22.5q-33 0 -54.5 -22t-21.5 -62q0 -17 5 -40h-60q-6 22 -6 44q0 58 37 95.5t100 37.5q35 0 67 -18t57.5 -43.5t51 -51.5t59.5 -44t73 -18
q27 0 44 12.5t17 34.5q0 17 -17.5 32.5t-43 29t-50.5 29t-42.5 38.5t-17.5 51q0 57 56 80q-29 8 -47.5 28.5t-18.5 51.5q0 44 35 69.5t106 25.5h242v-52h-244q-37 0 -56.5 -15.5t-19.5 -43.5q0 -54 83 -54h98v-54h-108q-64 0 -64 -41q0 -19 26.5 -38.5t58 -34.5t58 -42
t26.5 -60q0 -43 -33 -71t-87 -28q-48 0 -98 25t-81 61q-3 -34 -20.5 -62.5t-42 -47t-52.5 -39t-51.5 -37.5t-39 -42.5t-15.5 -55.5q0 -40 26 -64.5t70 -24.5q53 0 87 33.5t34 88.5v43h62v-43q0 -52 30 -87t77 -35q45 0 69 29t24 76q0 48 -23 100h63q20 -53 20 -101
q0 -67 -41 -111.5t-109 -44.5q-58 0 -96 28t-45 80z" />
    <glyph glyph-name="tlJH" horiz-adv-x="1245" 
d="M516 272v-2q0 -108 39 -167.5t104 -59.5q58 0 97.5 55.5t39.5 157.5q0 101 -57 168.5t-146 67.5v55q121 0 193 -83.5t72 -201.5v-1q0 -108 38.5 -163t104.5 -55q58 0 97.5 56t39.5 157t-57.5 168.5t-146.5 67.5v55q121 0 193.5 -83.5t72.5 -201.5q0 -136 -55 -203.5
t-144 -67.5q-122 0 -167 122q-49 -122 -175 -122q-62 0 -105.5 36t-64.5 102q-28 -66 -83 -102t-126 -36q-106 0 -171.5 76t-65.5 204q0 92 36.5 158t100.5 96q-36 25 -36 73q0 28 15.5 53t43.5 37q-30 7 -49.5 28t-19.5 53q0 44 35 69.5t106 25.5h309v-53h-312
q-36 0 -55.5 -15.5t-19.5 -42.5q0 -55 83 -55h146v-53h-157q-28 0 -46 -14t-18 -36q0 -42 43 -51q20 2 32 2q105 0 170.5 -74.5t65.5 -199.5zM106 271q0 -103 49 -165.5t125 -62.5q75 0 124.5 62.5t49.5 164.5q0 101 -49 162.5t-125 61.5t-125 -61.5t-49 -161.5zM877 -186
h-87v14l30 176h27l30 -176v-14z" />
    <glyph glyph-name="tlNY" horiz-adv-x="791" 
d="M482 -48h-60q0 50 -9 91q-68 -52 -153 -52q-75 0 -122 33t-47 95q0 57 47.5 94.5t115.5 37.5q118 0 181 -107q64 90 64 204q0 67 -24 111t-72 44q-44 0 -66.5 -32t-22.5 -84v-35h-62v37q0 48 -25 81t-68 33t-65.5 -30t-22.5 -75q0 -36 12 -72h-62q-11 32 -11 73
q0 66 39.5 111.5t105.5 45.5q55 0 88.5 -31t39.5 -80q5 49 39 80t86 31q59 0 95.5 -39t49.5 -104h54v93q-41 5 -65 29t-24 63q0 29 15.5 53t43.5 37q-30 7 -49 28t-19 53q0 43 34.5 69t105.5 26h262v-53h-264q-36 0 -56 -15.5t-20 -42.5q0 -55 84 -55h90v-53h-101
q-29 0 -46.5 -14t-17.5 -36q0 -54 73 -54h17v-128h82v-54h-193v-12q0 -67 -25.5 -137.5t-72.5 -122.5q21 -60 21 -135zM260 43q75 0 136 56q-43 99 -141 99q-44 0 -72.5 -22.5t-28.5 -59.5q0 -35 27.5 -54t78.5 -19z" />
    <glyph glyph-name="tlTT" horiz-adv-x="757" 
d="M381 105q-29 -114 -147 -114q-85 0 -138 74t-53 200q0 112 45 194.5t120 93.5l-2 92h63l-2 -95q46 -12 74 -48.5t28 -83.5q0 -58 -39.5 -99.5t-98.5 -41.5q-45 0 -77.5 23t-45.5 64q-10 -53 -10 -88q0 -107 36.5 -170t100.5 -63q55 0 85.5 35t30.5 91v34h61v-33
q0 -55 29.5 -91t83.5 -36q61 0 95.5 52.5t34.5 143.5q0 55 -22 99t-53.5 72.5t-62.5 54.5t-53 58t-22 69q0 31 15.5 57t44.5 39q-30 7 -49.5 28t-19.5 53q0 44 35 69.5t106 25.5h243v-53h-245q-76 0 -76 -58q0 -55 83 -55h99v-53h-110q-30 0 -46.5 -14.5t-16.5 -39.5
t22 -50.5t53.5 -51.5t62.5 -57.5t53 -80.5t22 -109q0 -113 -50.5 -182t-140.5 -69q-59 0 -98 31.5t-48 82.5zM140 413q0 -36 24 -60.5t63 -24.5q36 0 57.5 25.5t21.5 63.5q0 37 -22.5 61.5t-59.5 24.5q-35 0 -59.5 -26.5t-24.5 -63.5z" />
    <glyph glyph-name="tlTTH" horiz-adv-x="561" 
d="M516 272q0 -129 -65.5 -205t-170.5 -76q-106 0 -171.5 76t-65.5 204q0 100 42.5 168.5t115.5 93.5q-26 24 -26 65q0 29 15.5 53t43.5 37q-30 7 -49 28.5t-19 52.5q0 43 34.5 69t105.5 26h235v-53h-237q-36 0 -56 -15.5t-20 -42.5q0 -55 84 -55h89v-53h-100
q-29 0 -46.5 -14t-17.5 -36q0 -38 35 -49h8q105 0 170.5 -74.5t65.5 -199.5zM106 271q0 -103 49 -165.5t125 -62.5q75 0 124.5 62.5t49.5 164.5q0 101 -49 162.5t-125 61.5t-125 -61.5t-49 -161.5zM333 269q0 -23 -14.5 -37.5t-37.5 -14.5t-37.5 14.5t-14.5 37.5t14.5 37.5
t37.5 14.5t37.5 -14.5t14.5 -37.5z" />
    <glyph glyph-name="tlDD" horiz-adv-x="746" 
d="M354 101q-6 -48 -41.5 -79t-92.5 -31q-81 0 -130.5 57t-49.5 158q0 113 69 208t187 122q-23 25 -23 62q0 28 15.5 53t43.5 37q-30 7 -49.5 28t-19.5 53q0 44 35 69.5t106 25.5h309v-53h-312q-36 0 -55.5 -15.5t-19.5 -42.5q0 -55 83 -55h146v-53h-157q-28 0 -46 -14
t-18 -36q0 -39 39 -50h1q108 0 215 -55v-64q-111 67 -216 67q-122 0 -196.5 -90.5t-74.5 -198.5q0 -77 32.5 -119t87.5 -42q46 0 72.5 33.5t26.5 88.5v44h62v-34q0 -59 35.5 -98t95.5 -39q43 0 75.5 28.5t44.5 72.5q-28 -30 -73 -30q-50 0 -84 33t-34 82q0 50 35 88t88 38
q58 0 93 -44t35 -106q0 -90 -48.5 -149.5t-132.5 -59.5q-64 0 -107 31.5t-52 78.5zM500 226q0 -29 18.5 -48.5t49.5 -19.5q30 0 48.5 21t18.5 50q0 30 -18 50.5t-49 20.5q-32 0 -50 -21.5t-18 -52.5z" />
    <glyph glyph-name="tlDDH" horiz-adv-x="746" 
d="M354 101q-6 -48 -41.5 -79t-92.5 -31q-81 0 -130.5 57t-49.5 158q0 113 69 208t187 122q-23 25 -23 62q0 28 15.5 53t43.5 37q-30 7 -49.5 28t-19.5 53q0 44 35 69.5t106 25.5h309v-53h-312q-36 0 -55.5 -15.5t-19.5 -42.5q0 -55 83 -55h146v-53h-157q-28 0 -46 -14
t-18 -36q0 -39 39 -50h1q108 0 215 -55v-64q-111 67 -216 67q-122 0 -196.5 -90.5t-74.5 -198.5q0 -77 32.5 -119t87.5 -42q46 0 72.5 33.5t26.5 88.5v44h62v-34q0 -59 35.5 -98t95.5 -39q43 0 75.5 28.5t44.5 72.5q-28 -30 -73 -30q-50 0 -84 33t-34 82q0 50 35 88t88 38
q58 0 93 -44t35 -106q0 -90 -48.5 -149.5t-132.5 -59.5q-64 0 -107 31.5t-52 78.5zM396 -172h-83v14l25 162h34l24 -162v-14zM500 226q0 -29 18.5 -48.5t49.5 -19.5q30 0 48.5 21t18.5 50q0 30 -18 50.5t-49 20.5q-32 0 -50 -21.5t-18 -52.5z" />
    <glyph glyph-name="tlNN" horiz-adv-x="1004" 
d="M1084 811h-226q-36 0 -56 -15.5t-20 -42.5q0 -55 83 -55h76v-53h-86q-31 0 -47.5 -16.5t-16.5 -42.5q0 -37 25 -88.5t55.5 -97t55.5 -108t25 -118.5q0 -80 -46 -131.5t-119 -51.5q-87 0 -138 66q-48 -66 -126 -66q-62 0 -100 40.5t-38 95.5q0 59 39 100t98 41
q43 0 75.5 -22.5t45.5 -57.5q4 31 4 77q0 99 -36.5 168.5t-102.5 69.5q-50 0 -79 -33.5t-29 -88.5v-44h-63v43q0 55 -32 89t-82 34q-46 0 -75 -28.5t-29 -71.5q0 -46 28 -75.5t76 -29.5h32v-54h-32q-51 0 -86 -27.5t-35 -72.5q0 -49 32 -75.5t92 -26.5q43 0 92 22v-55
q-50 -19 -108 -19q-76 0 -123 39.5t-47 108.5q0 57 36.5 92t91.5 41q-52 9 -82 45t-30 91q0 62 47 105.5t120 43.5q54 0 94.5 -31.5t51.5 -79.5q8 49 44.5 80t94.5 31q93 0 143.5 -81.5t50.5 -216.5q0 -79 -23 -143q42 -71 105 -71q49 0 77.5 35t28.5 92q0 51 -25 110.5
t-55.5 104t-55.5 100.5t-25 101q0 74 60 101q-31 7 -50 28t-19 53q0 43 34.5 69t105.5 26h224v-53zM446 128q0 -35 22 -60t61 -25q35 0 59.5 26.5t24.5 61.5q0 36 -24.5 61t-60.5 25q-38 0 -60 -25.5t-22 -63.5z" />
    <glyph glyph-name="tlT" horiz-adv-x="707" 
d="M664 252q0 -109 -84 -185t-233 -76q-150 0 -233.5 76t-83.5 185q0 64 37.5 104.5t98.5 40.5q52 0 87 -34.5t35 -85.5q0 -54 -34.5 -88t-86.5 -34q-42 0 -68 20q25 -60 90.5 -96t157.5 -36q91 0 156.5 36t90.5 96q-26 -20 -66 -20q-53 0 -87.5 34t-34.5 88q0 51 35 85.5
t87 34.5q74 0 112 -57q3 17 3 37q0 51 -27.5 79.5t-76.5 28.5q-48 0 -76.5 30t-28.5 76q0 31 16 57.5t44 39.5q-31 7 -50.5 28t-19.5 53q0 44 35 69.5t106 25.5h242v-53h-244q-76 0 -76 -58q0 -55 83 -55h95v-53h-105q-29 0 -46.5 -14.5t-17.5 -38.5q0 -56 65 -56
q64 0 101.5 -44t37.5 -115q0 -65 -36 -124v-1zM89 272q0 -30 17 -48t50 -18q32 0 51 18.5t19 48.5q0 33 -18.5 53t-49.5 20q-32 0 -50.5 -20.5t-18.5 -53.5zM467 273q0 -30 19.5 -48.5t50.5 -18.5q33 0 50 18t17 48q0 34 -18.5 54t-50.5 20q-30 0 -49 -20t-19 -53z" />
    <glyph glyph-name="tlTH" horiz-adv-x="737" 
d="M357 104q-16 -113 -136 -113q-82 0 -131.5 60t-49.5 162q0 117 67 207t173 116q-23 25 -23 62q0 28 15.5 53t43.5 37q-30 7 -49.5 28t-19.5 53q0 44 35 69.5t106 25.5h309v-53h-312q-36 0 -55.5 -15.5t-19.5 -42.5q0 -55 83 -55h146v-53h-157q-28 0 -46 -14t-18 -36
q0 -38 35 -49h4q134 0 225 -97t91 -236q0 -102 -49.5 -162t-131.5 -60q-120 0 -135 113zM399 -172h-83v14l24 162h35l24 -162v-14zM102 212q0 -76 33.5 -122.5t88.5 -46.5q49 0 75 36.5t26 94.5v35h62v-35q0 -58 27 -94.5t78 -36.5q53 0 86 46.5t33 122.5q0 116 -74 198.5
t-181 82.5t-180.5 -82.5t-73.5 -198.5zM405 349q0 -20 -13.5 -34t-34.5 -14q-20 0 -33.5 14t-13.5 34t13.5 34t33.5 14q21 0 34.5 -14t13.5 -34z" />
    <glyph glyph-name="tlD" horiz-adv-x="737" 
d="M357 104q-16 -113 -136 -113q-82 0 -131.5 60t-49.5 162q0 117 67 207t173 116q-23 25 -23 62q0 28 15.5 53t43.5 37q-30 7 -49.5 28t-19.5 53q0 44 35 69.5t106 25.5h309v-53h-312q-36 0 -55.5 -15.5t-19.5 -42.5q0 -55 83 -55h146v-53h-157q-28 0 -46 -14t-18 -36
q0 -38 35 -49h4q134 0 225 -97t91 -236q0 -102 -49.5 -162t-131.5 -60q-120 0 -135 113zM102 212q0 -76 33.5 -122.5t88.5 -46.5q49 0 75 36.5t26 94.5v35h62v-35q0 -58 27 -94.5t78 -36.5q53 0 86 46.5t33 122.5q0 116 -74 198.5t-181 82.5t-180.5 -82.5t-73.5 -198.5z" />
    <glyph glyph-name="tlDH" horiz-adv-x="737" 
d="M357 104q-16 -113 -136 -113q-82 0 -131.5 60t-49.5 162q0 117 67 207t173 116q-23 25 -23 62q0 28 15.5 53t43.5 37q-30 7 -49.5 28t-19.5 53q0 44 35 69.5t106 25.5h309v-53h-312q-36 0 -55.5 -15.5t-19.5 -42.5q0 -55 83 -55h146v-53h-157q-28 0 -46 -14t-18 -36
q0 -38 35 -49h4q134 0 225 -97t91 -236q0 -102 -49.5 -162t-131.5 -60q-120 0 -135 113zM399 -172h-83v14l24 162h35l24 -162v-14zM102 212q0 -76 33.5 -122.5t88.5 -46.5q49 0 75 36.5t26 94.5v35h62v-35q0 -58 27 -94.5t78 -36.5q53 0 86 46.5t33 122.5q0 116 -74 198.5
t-181 82.5t-180.5 -82.5t-73.5 -198.5z" />
    <glyph glyph-name="tlN" horiz-adv-x="728" 
d="M236 1q-21 -10 -56 -10q-60 0 -100 45.5t-40 117.5q0 76 43.5 123t116.5 47q45 0 79 -21t53.5 -52t38 -67.5t33 -67.5t38.5 -52t55 -21q46 0 73 43.5t27 118.5q0 58 -16 101.5t-42 69.5t-57.5 46.5t-63 36t-57.5 33t-42 44t-16 62.5q0 29 16 53t44 37q-30 7 -49 28
t-19 53q0 43 34.5 69t105.5 26h253v-53h-255q-36 0 -56 -15.5t-20 -42.5q0 -55 84 -55h108v-53h-119q-28 0 -46 -14t-18 -36q0 -23 16 -41t42 -33t57 -31t62.5 -39.5t57.5 -54t42 -79.5t16 -111q0 -98 -44.5 -156.5t-123.5 -58.5q-48 0 -83 29t-56.5 70t-40.5 82t-46.5 70
t-63.5 29q-45 0 -72 -30.5t-27 -83.5t23 -83.5t63 -30.5q27 0 48 7v-49z" />
    <glyph glyph-name="tlP" horiz-adv-x="703" 
d="M471 -9q-102 0 -155 109q-10 -50 -45.5 -80t-87.5 -30q-64 0 -103.5 38.5t-39.5 101.5q0 60 41.5 100.5t100.5 40.5q46 0 82 -23.5t58 -57t42.5 -67t47 -57t59.5 -23.5q58 0 91 56.5t33 151.5q0 104 -55 174.5t-148 70.5q-42 0 -75 -9v54q38 8 73 8q128 0 198 -81
t70 -217q0 -122 -50 -191t-137 -69zM100 131q0 -40 22 -65.5t62 -25.5t63 25.5t23 65.5q0 39 -23 64.5t-65 25.5q-36 0 -59 -26t-23 -64zM501 811h-312q-36 0 -55.5 -15.5t-19.5 -42.5q0 -55 83 -55h146v-53h-157q-28 0 -46 -14t-18 -36q0 -54 74 -54h17v-36h-45
q-48 0 -77.5 25t-29.5 68q0 28 15.5 53t43.5 37q-30 7 -49.5 28t-19.5 53q0 44 35 69.5t106 25.5h309v-53z" />
    <glyph glyph-name="tlPH" horiz-adv-x="703" 
d="M471 -9q-102 0 -155 109q-10 -50 -45.5 -80t-87.5 -30q-64 0 -103.5 38.5t-39.5 101.5q0 60 41.5 100.5t100.5 40.5q46 0 82 -23.5t58 -57t42.5 -67t47 -57t59.5 -23.5q58 0 91 56.5t33 151.5q0 104 -55 174.5t-148 70.5q-42 0 -75 -9v54q38 8 73 8q128 0 198 -81
t70 -217q0 -122 -50 -191t-137 -69zM361 -172h-84v14l25 162h34l25 -162v-14zM100 131q0 -40 22 -65.5t62 -25.5t63 25.5t23 65.5q0 39 -23 64.5t-65 25.5q-36 0 -59 -26t-23 -64zM501 811h-312q-36 0 -55.5 -15.5t-19.5 -42.5q0 -55 83 -55h146v-53h-157q-28 0 -46 -14
t-18 -36q0 -54 74 -54h17v-36h-45q-48 0 -77.5 25t-29.5 68q0 28 15.5 53t43.5 37q-30 7 -49.5 28t-19.5 53q0 44 35 69.5t106 25.5h309v-53z" />
    <glyph glyph-name="tlB" horiz-adv-x="719" 
d="M346 99q-13 -52 -52.5 -80t-100.5 -28q-70 0 -114 39t-44 102q0 38 16.5 69.5t41.5 51.5t54.5 41t54.5 37.5t41.5 40t16.5 50.5q0 38 -18.5 60t-52.5 22t-55 -21.5t-21 -62.5q0 -16 5 -41h-60q-6 23 -6 44q0 59 37 96.5t100 37.5q62 0 97.5 -39.5t35.5 -94.5
q0 -41 -23 -74t-56 -56t-66 -45t-56 -51.5t-23 -64.5q0 -41 26 -65t73 -24q53 0 85.5 34.5t32.5 87.5v44h62v-44q0 -54 29 -88t79 -34q57 0 88.5 41.5t31.5 110.5q0 49 -23.5 93t-57 78.5t-66.5 67.5t-56.5 73.5t-23.5 83.5q0 70 60 97q-30 7 -49 28.5t-19 52.5
q0 44 34.5 69.5t105.5 25.5h239v-53h-241q-37 0 -57 -15.5t-20 -42.5q0 -55 84 -55h99v-53h-109q-29 0 -46 -15t-17 -43q0 -31 23 -64t56 -64.5t65.5 -67t55.5 -85.5t23 -106q0 -95 -49 -152t-132 -57q-57 0 -93.5 28t-44.5 80z" />
    <glyph glyph-name="tlBH" horiz-adv-x="719" 
d="M346 99q-13 -52 -52.5 -80t-100.5 -28q-70 0 -114 39t-44 102q0 38 16.5 69.5t41.5 51.5t54.5 41t54.5 37.5t41.5 40t16.5 50.5q0 38 -18.5 60t-52.5 22t-55 -21.5t-21 -62.5q0 -16 5 -41h-60q-6 23 -6 44q0 59 37 96.5t100 37.5q62 0 97.5 -39.5t35.5 -94.5
q0 -41 -23 -74t-56 -56t-66 -45t-56 -51.5t-23 -64.5q0 -41 26 -65t73 -24q53 0 85.5 34.5t32.5 87.5v44h62v-44q0 -54 29 -88t79 -34q57 0 88.5 41.5t31.5 110.5q0 49 -23.5 93t-57 78.5t-66.5 67.5t-56.5 73.5t-23.5 83.5q0 70 60 97q-30 7 -49 28.5t-19 52.5
q0 44 34.5 69.5t105.5 25.5h239v-53h-241q-37 0 -57 -15.5t-20 -42.5q0 -55 84 -55h99v-53h-109q-29 0 -46 -15t-17 -43q0 -31 23 -64t56 -64.5t65.5 -67t55.5 -85.5t23 -106q0 -95 -49 -152t-132 -57q-57 0 -93.5 28t-44.5 80zM387 -172h-82v14l24 162h33l25 -162v-14z" />
    <glyph glyph-name="tlM" horiz-adv-x="1020" 
d="M79 131q0 -40 22.5 -65.5t62.5 -25.5q39 0 62.5 26t23.5 65q0 38 -23.5 64t-64.5 26q-37 0 -60 -26t-23 -64zM975 261q0 -132 -59 -201.5t-150 -69.5q-118 0 -159 93q-44 -92 -150 -92q-107 0 -162 109q-9 -49 -45 -79.5t-87 -30.5q-64 0 -103.5 38.5t-39.5 101.5
q0 60 41.5 100.5t99.5 40.5q46 0 82 -23.5t59 -57t43.5 -67t48.5 -57t63 -23.5q52 0 82.5 43t30.5 116q0 50 -17.5 90t-45 66.5t-61 48.5t-67.5 41t-61.5 39t-45 48t-17.5 62q0 29 16 53.5t44 37.5q-30 7 -49 28.5t-19 52.5q0 44 34.5 69.5t106.5 25.5h251v-53h-254
q-36 0 -56 -15.5t-20 -42.5q0 -55 83 -55h99v-53h-109q-28 0 -45.5 -13.5t-17.5 -36.5q0 -27 23 -51t58 -42.5t75.5 -45.5t75.5 -57t58 -79.5t23 -110.5q0 -77 36 -122t95 -45q62 0 106 56t44 157t-57.5 168.5t-146.5 67.5v55q121 0 193.5 -83.5t72.5 -201.5z" />
    <glyph glyph-name="tlY" horiz-adv-x="1245" 
d="M516 272v-2q0 -108 39 -167.5t104 -59.5q59 0 98 50t39 150q-1 49 -20 89.5t-44.5 69.5t-51 57t-43 62.5t-17.5 74.5q0 30 15.5 54.5t43.5 37.5q-30 7 -49.5 28t-19.5 53q0 44 35 69.5t106 25.5h261v-53h-263q-76 0 -76 -58q0 -55 83 -55h108v-53h-118q-30 0 -47 -14.5
t-17 -41.5q0 -25 17.5 -52t42.5 -54t50.5 -57.5t44.5 -73.5t21 -91q0 -106 37.5 -162t105.5 -56q58 0 97.5 56t39.5 157t-57.5 168.5t-146.5 67.5v55q121 0 193.5 -83.5t72.5 -201.5q0 -136 -55 -203.5t-144 -67.5q-122 0 -167 119q-48 -119 -175 -119q-62 0 -105.5 36
t-64.5 102q-29 -66 -83.5 -102t-125.5 -36q-106 0 -171.5 76t-65.5 204q0 125 66 200t171 75t170.5 -74.5t65.5 -199.5zM106 271q0 -103 49 -165.5t125 -62.5q75 0 124.5 62.5t49.5 164.5q0 101 -49 162.5t-125 61.5t-125 -61.5t-49 -161.5z" />
    <glyph glyph-name="tlR" horiz-adv-x="551" 
d="M516 272q0 -129 -65.5 -205t-170.5 -76q-106 0 -171.5 76t-65.5 204q0 101 44 170.5t119 93.5q-25 23 -25 63q0 28 16 52.5t44 37.5q-30 7 -49.5 28t-19.5 53q0 44 35 69.5t106 25.5h233v-53h-236q-36 0 -55.5 -15.5t-19.5 -42.5q0 -55 83 -55h90v-53h-101
q-29 0 -46.5 -14t-17.5 -36q0 -38 35 -49h2q105 0 170.5 -74.5t65.5 -199.5zM106 271q0 -103 49 -165.5t125 -62.5q75 0 124.5 62.5t49.5 164.5q0 101 -49 162.5t-125 61.5t-125 -61.5t-49 -161.5z" />
    <glyph glyph-name="tlL" horiz-adv-x="722" 
d="M657 280q0 -127 -85.5 -208.5t-220.5 -81.5q-141 0 -224.5 88.5t-83.5 237.5q0 103 47 171.5t127 68.5q64 0 101.5 -41.5t37.5 -100.5q0 -60 -40 -98.5t-97 -38.5q-45 0 -77 20t-45 57q-1 -8 -1 -26q0 -131 68 -208t189 -77q106 0 174 66t68 166q0 40 -14 73.5t-35 55
t-46 44.5t-46 42.5t-35 47.5t-14 60q0 29 16 53t44 37q-30 7 -49 28t-19 53q0 43 34.5 69t105.5 26h243v-53h-245q-36 0 -56 -15.5t-20 -42.5q0 -55 84 -55h98v-53h-109q-28 0 -45.5 -14t-17.5 -36q0 -27 19.5 -53t47 -50t55 -51t47 -69t19.5 -92zM129 416q0 -42 24 -64.5
t63 -22.5q34 0 56.5 23t22.5 62q0 37 -21.5 63t-60.5 26t-61.5 -26.5t-22.5 -60.5z" />
    <glyph glyph-name="tlV" horiz-adv-x="679" 
d="M457 -9q-107 0 -162 109q-9 -49 -45 -79.5t-87 -30.5q-64 0 -103.5 38.5t-39.5 101.5q0 60 41.5 100.5t99.5 40.5q46 0 82 -23.5t59 -57t43.5 -67t48.5 -57t63 -23.5q52 0 82.5 43t30.5 116q0 50 -17.5 90t-45 66.5t-61 48.5t-67.5 41t-61.5 39t-45 48t-17.5 62
q0 29 16 53.5t44 37.5q-30 7 -49 28.5t-19 52.5q0 44 34.5 69.5t106.5 25.5h251v-53h-254q-36 0 -56 -15.5t-20 -42.5q0 -55 83 -55h99v-53h-109q-28 0 -45.5 -13.5t-17.5 -36.5t17.5 -44t45 -38.5t60.5 -36.5t66.5 -43.5t61 -54.5t45 -74.5t17.5 -98.5q0 -101 -48 -157.5
t-127 -56.5zM79 131q0 -40 22.5 -65.5t62.5 -25.5q39 0 62.5 26t23.5 65q0 38 -23.5 64t-64.5 26q-37 0 -60 -26t-23 -64z" />
    <glyph glyph-name="tlSH" horiz-adv-x="564" 
d="M503 157q0 -73 -46.5 -119.5t-117.5 -46.5q-65 0 -106 36.5t-41 96.5q0 25 8.5 47t18 35.5t32 30.5t33.5 23.5t41 22t37 19.5q-47 29 -102 29q-81 0 -130.5 -48t-49.5 -119q0 -19 5 -42h-60q-5 25 -5 44q0 91 68.5 152t169.5 61q84 0 151 -46q32 29 32 63q0 27 -26 42.5
t-63 24.5t-73.5 21t-62.5 40t-26 73q0 29 16 53.5t44 37.5q-30 7 -49.5 28t-19.5 53q0 44 34.5 69.5t105.5 25.5h253v-53h-255q-36 0 -56 -15.5t-20 -42.5q0 -55 83 -55h109v-53h-119q-29 0 -46.5 -14t-17.5 -36q0 -29 25.5 -46.5t62 -26.5t73.5 -20.5t62.5 -37t25.5 -66.5
q0 -60 -52 -102q54 -60 54 -139zM342 39q46 0 74 32.5t28 84.5q0 60 -41 109q-11 -7 -41 -22.5t-44 -24t-32.5 -23.5t-26.5 -32t-8 -38q0 -40 24 -63t67 -23z" />
    <glyph glyph-name="tlSS" horiz-adv-x="703" 
d="M100 131q0 -40 22 -65.5t62 -25.5t63 25.5t23 65.5q0 39 -23 64.5t-65 25.5q-36 0 -59 -26t-23 -64zM623 -153h-79q-14 29 -14 75q0 47 18 87q-33 -18 -77 -18q-102 0 -155 109q-10 -50 -45.5 -80t-87.5 -30q-64 0 -103.5 38.5t-39.5 101.5q0 60 41.5 100.5t100.5 40.5
q46 0 82 -23.5t58 -57t42.5 -67t47 -57t59.5 -23.5q58 0 91 56.5t33 151.5q0 104 -55 174.5t-148 70.5q-42 0 -75 -9v54q38 8 73 8q128 0 198 -81t70 -217q0 -94 -31 -159q-35 -76 -35 -142q0 -52 31 -103zM495 811h-312q-36 0 -55.5 -15.5t-19.5 -42.5q0 -55 83 -55h146
v-53h-157q-28 0 -46 -14t-18 -36q0 -54 74 -54h17v-36h-45q-48 0 -77.5 25t-29.5 68q0 28 15.5 53t43.5 37q-30 7 -49.5 28t-19.5 53q0 44 35 69.5t106 25.5h309v-53z" />
    <glyph glyph-name="tlS" horiz-adv-x="718" 
d="M237 1q-21 -10 -57 -10q-60 0 -100 45.5t-40 117.5q0 76 43.5 123t117.5 47q52 0 89 -29t58.5 -70t40 -82.5t45 -70.5t62.5 -29q52 0 83 56t31 152q0 103 -59.5 174t-153.5 71q-42 0 -75 -9v54q38 8 73 8q129 0 203.5 -81.5t74.5 -216.5q0 -121 -48 -190.5t-129 -69.5
q-51 0 -88 29t-58.5 70t-40 82t-45.5 70t-62 29q-45 0 -72 -30.5t-27 -83.5t22.5 -83.5t62.5 -30.5q27 0 49 7v-49zM498 811h-312q-36 0 -55.5 -15.5t-19.5 -42.5q0 -55 83 -55h146v-53h-157q-28 0 -46 -14t-18 -36q0 -54 74 -54h17v-36h-45q-48 0 -77.5 25t-29.5 68
q0 28 15.5 53t43.5 37q-30 7 -49.5 28t-19.5 53q0 44 35 69.5t106 25.5h309v-53z" />
    <glyph glyph-name="tlH" horiz-adv-x="981" 
d="M100 131q0 -40 22 -65.5t62 -25.5t63 25.5t23 65.5q0 39 -23 64.5t-65 25.5q-36 0 -59 -26t-23 -64zM961 401q0 -52 -35 -88.5t-91 -36.5q-59 0 -95 33t-36 85q0 66 41 98h-227q66 -32 103 -97.5t37 -153.5q0 -115 -50.5 -182.5t-136.5 -67.5q-102 0 -155 109
q-10 -50 -45.5 -80t-87.5 -30q-64 0 -103.5 38.5t-39.5 101.5q0 60 41.5 100.5t100.5 40.5q46 0 82 -23.5t58 -57t42.5 -67t47 -57t59.5 -23.5q57 0 90.5 55t33.5 143q0 113 -72.5 182t-205.5 69v54h480q84 0 124 -41t40 -104zM764 404q0 -34 18 -55t50 -21t50 21.5t18 52.5
q0 34 -17.5 57t-50.5 23q-32 0 -50 -23.5t-18 -54.5zM518 811h-312q-36 0 -55.5 -15.5t-19.5 -42.5q0 -55 83 -55h146v-53h-157q-28 0 -46 -14t-18 -36q0 -54 74 -54h17v-36h-45q-48 0 -77.5 25t-29.5 68q0 28 15.5 53t43.5 37q-30 7 -49.5 28t-19.5 53q0 44 35 69.5
t106 25.5h309v-53z" />
    <glyph glyph-name="tlRR" horiz-adv-x="797" 
d="M847 820h-235q-37 0 -57 -15.5t-20 -42.5q0 -55 83 -55h90v-53h-100q-28 0 -45.5 -13.5t-17.5 -36.5q0 -38 30 -48h4q81 0 128 -73.5t47 -196.5q0 -131 -56 -213t-151 -82q-58 0 -101.5 30t-53.5 80q-29 -110 -146 -110q-92 0 -147.5 76.5t-55.5 205.5q0 116 50.5 199.5
t136.5 83.5q60 0 99.5 -40.5t39.5 -97.5q0 -58 -39.5 -99.5t-98.5 -41.5q-45 0 -77.5 23.5t-45.5 63.5q-10 -52 -10 -87q0 -99 41 -166.5t110 -67.5q49 0 81 33.5t32 88.5v34h62v-34q0 -54 34 -88t89 -34q65 0 104.5 69t39.5 177q0 98 -30 156.5t-81 58.5q-35 0 -56 -24
t-21 -62q0 -37 24 -66t69 -36v-54h-184v54h93q-60 35 -60 108q0 36 18 67t49 48q-30 25 -30 69q0 29 16 52.5t45 35.5q-31 7 -50.5 28t-19.5 54q0 94 141 94h233v-52zM140 413q0 -35 24 -59.5t63 -24.5q36 0 57.5 25.5t21.5 62.5t-22.5 61.5t-59.5 24.5q-35 0 -59.5 -26.5
t-24.5 -63.5z" />
    <glyph glyph-name="tlLL" horiz-adv-x="652" 
d="M467 110q0 -54 -40 -86.5t-106 -32.5q-65 0 -103.5 33t-38.5 84q0 41 24.5 72t67.5 47q-10 4 -52 20t-64 25q-115 51 -115 138q0 50 35 84t94 34q58 0 93 -34t35 -83q0 -42 -28.5 -70.5t-70.5 -38.5q135 -50 142 -53q164 47 164 143q0 28 -24.5 54t-54.5 43t-54.5 46
t-24.5 63q0 29 15.5 53t43.5 37q-30 7 -49 28.5t-19 52.5q0 43 34.5 69t105.5 26h225v-53h-227q-36 0 -56 -15.5t-20 -42.5q0 -55 83 -55h91v-53h-100q-29 0 -47 -14t-18 -36q0 -18 16 -34.5t39 -31.5t45.5 -32.5t38.5 -44.5t16 -60q0 -56 -44 -104.5t-120 -69.5
q68 -43 68 -108zM321 40q39 0 62 19.5t23 52.5q0 50 -75 89q-45 -10 -69 -34.5t-24 -56.5q0 -30 21.5 -50t61.5 -20zM97 407q0 -29 20.5 -48t50.5 -19q27 0 48 19t21 50q0 30 -19.5 49.5t-50.5 19.5q-32 0 -51 -20t-19 -51z" />
    <glyph glyph-name="tlLLL" horiz-adv-x="814" 
d="M854 811h-226q-36 0 -56 -15.5t-20 -42.5q0 -55 83 -55h90v-53h-101q-28 0 -45.5 -14t-17.5 -36q0 -26 16 -40q27 -3 53 -16h2l4 -3q53 -31 81.5 -101.5t28.5 -154.5q0 -133 -50 -211t-156 -78q-60 0 -98.5 28.5t-47.5 79.5q-8 -51 -47 -79.5t-98 -28.5q-107 0 -156.5 78
t-49.5 211q0 113 48.5 194.5t138.5 81.5q60 0 99 -40.5t39 -97.5q0 -59 -39.5 -100t-98.5 -41q-43 0 -74.5 22t-46.5 60q-8 -60 -8 -82q0 -104 36.5 -169t111.5 -65q52 0 83 33.5t31 88.5v36h62v-36q0 -55 31 -88.5t83 -33.5q75 0 111.5 65t36.5 169q0 36 -8 82
q-14 -38 -45.5 -60t-75.5 -22q-60 0 -99 41t-39 100q0 45 25 81t67 50q-13 21 -13 49q0 29 15.5 53t43.5 37q-30 7 -49 28.5t-19 52.5q0 44 34.5 69.5t106.5 25.5h223v-53zM140 413q0 -35 23.5 -59.5t63.5 -24.5q36 0 57.5 25.5t21.5 62.5t-22.5 61.5t-59.5 24.5
q-35 0 -59.5 -26.5t-24.5 -63.5zM482 417q0 -37 21.5 -62.5t57.5 -25.5q39 0 63 24.5t24 59.5q0 37 -24.5 63.5t-60.5 26.5q-37 0 -59 -24.5t-22 -61.5z" />
    <glyph glyph-name="tlKAA" horiz-adv-x="674" 
d="M391 149q0 -67 -49.5 -110t-126.5 -43q-87 0 -154 35v59q79 -42 152 -42q56 0 85 27.5t29 72.5q0 39 -27.5 63.5t-66.5 38t-78 28.5t-66.5 46t-27.5 80q0 53 40 88h-80v54h470q84 0 123.5 -41t39.5 -104q0 -52 -35 -88.5t-90 -36.5q-59 0 -95.5 33t-36.5 85q0 66 42 98
h-86v-32q-62 32 -116 32q-51 0 -81.5 -24.5t-30.5 -63.5q0 -34 27.5 -55.5t66.5 -34.5t78 -29.5t66.5 -50.5t27.5 -85zM458 404q0 -34 17.5 -55t50.5 -21q31 0 49.5 21.5t18.5 52.5q0 34 -18 57t-50 23t-50 -23.5t-18 -54.5z" />
    <glyph glyph-name="tlKHAA" horiz-adv-x="1130" 
d="M1110 401q0 -52 -34.5 -88.5t-91.5 -36.5q-59 0 -94.5 34t-35.5 87q0 65 42 95h-198q87 -78 87 -224q0 -121 -64 -199t-167 -78q-83 0 -174 64q-80 -64 -183 -64q-81 0 -129 34t-48 93q0 49 38 83t93 34q37 0 78 -16.5t65 -32.5t67 -49l12 -9q69 83 69 203
q0 70 -31.5 121t-80.5 51q-35 0 -53.5 -20t-18.5 -49q0 -28 18.5 -45.5t50.5 -17.5q37 0 65 14v-50q-33 -17 -73 -17q-53 0 -88 31t-35 83t37.5 88t94.5 36q79 0 128 -66t49 -160q0 -138 -84 -236q73 -49 132 -49q77 0 123 62t46 158q0 95 -42 156.5t-120 68.5v2h-1v54h387
q84 0 124 -41t40 -104zM914 404q0 -34 17.5 -55t50.5 -21q32 0 49.5 21t17.5 53q0 34 -17 57t-50 23t-50.5 -23.5t-17.5 -54.5zM199 43q75 0 134 46q-3 2 -19.5 15t-20 16t-18 13.5t-20 14t-18 11t-19.5 10t-18 6.5t-20 5.5t-19 1.5q-37 0 -58 -18.5t-21 -47.5q0 -35 32 -54
t85 -19zM424 -173h-83v14l25 163h33l25 -163v-14z" />
    <glyph glyph-name="tlGAA" horiz-adv-x="783" 
d="M435 0h-65q32 106 32 223q0 107 -32.5 182t-94.5 87h-44q-62 -12 -94.5 -87t-32.5 -182q0 -120 31 -222h-65q-28 99 -28 222q0 182 84 269h-88v54h562q84 0 123.5 -41t39.5 -104q0 -52 -35 -88.5t-91 -36.5q-59 0 -95 33t-36 85q0 66 42 98h-167q84 -87 84 -269
q0 -122 -30 -223zM567 404q0 -34 17.5 -55t50.5 -21q31 0 49.5 21.5t18.5 52.5q0 34 -18 57t-50 23q-33 0 -50.5 -23.5t-17.5 -54.5z" />
    <glyph glyph-name="tlGHAA" horiz-adv-x="1293" 
d="M1273 402q0 -52 -35 -89t-91 -37q-59 0 -95 34t-36 87q0 65 42 95h-181q50 -39 77 -100t27 -131q0 -132 -59 -201.5t-150 -69.5q-123 0 -161 112q-48 -111 -160 -111q-102 0 -155 109q-10 -50 -45.5 -80t-87.5 -30q-64 0 -103.5 38.5t-39.5 101.5q0 60 41.5 100.5
t100.5 40.5q46 0 82 -23.5t58 -57t42.5 -67t47 -57t59.5 -23.5q58 0 91 56.5t33 151.5q0 104 -55 174.5t-148 70.5q-42 0 -75 -9v54q38 8 73 8q128 0 198 -81t70 -217v-2q0 -96 33.5 -151.5t97.5 -55.5q62 0 106 56t44 157t-57.5 168.5t-146.5 67.5v55h394q84 0 124 -41
t40 -103zM1076 404q0 -34 18 -55t50 -21t50 21.5t18 52.5q0 34 -17.5 57t-50.5 23q-32 0 -50 -23.5t-18 -54.5zM340 -173h-82v14l24 162h33l25 -162v-14zM80 131q0 -40 22 -65.5t62 -25.5t63 25.5t23 65.5q0 39 -23 64.5t-65 25.5q-36 0 -59 -26t-23 -64zM185 493h-65
l-120 149h77l75 -96l161 211h74z" />
    <glyph glyph-name="tlNGAA" horiz-adv-x="956" 
d="M346 99q-12 -52 -52 -80t-101 -28q-70 0 -114 39t-44 102q0 38 16.5 69.5t41.5 51.5t54.5 41t54.5 37.5t41.5 40t16.5 50.5q0 38 -18.5 60t-52.5 22t-55 -21.5t-21 -62.5q0 -16 5 -41h-60q-6 23 -6 44q0 59 37 96.5t100 37.5q59 0 94 -36t39 -88h105v91h-91v54h437
q84 0 123.5 -41t39.5 -104q0 -52 -34.5 -89t-91.5 -37q-58 0 -94 33.5t-36 84.5q0 68 41 99h-230v-91h131v-54h-308q-11 -29 -37.5 -55.5t-56 -46t-57.5 -40t-46.5 -47t-18.5 -58.5q0 -41 26 -65t73 -24q53 0 85.5 34.5t32.5 87.5v44h62v-44q0 -55 29.5 -88.5t81.5 -33.5
q47 0 75.5 33t28.5 86q0 51 -27 79.5t-80 28.5q-13 0 -28 -3v57q15 3 32 3q77 0 120.5 -46t43.5 -121q0 -71 -45.5 -120t-119.5 -49q-60 0 -97 28t-45 80zM741 436q0 -35 17 -56t50 -21q32 0 50 21.5t18 53.5q0 33 -17.5 56t-50.5 23t-50 -23t-17 -54z" />
    <glyph glyph-name="tlCAA" horiz-adv-x="966" 
d="M345 99q-6 -46 -44 -77t-94 -31q-73 0 -117.5 40t-44.5 106q0 84 67 125h-98v54h211v-54q-57 -1 -87.5 -36t-30.5 -85q0 -45 27 -71.5t73 -26.5q48 0 77.5 34t29.5 88v44h61v-44q0 -54 27 -88t74 -34q50 0 79.5 44.5t29.5 112.5q0 123 -80.5 207.5t-205.5 84.5v54h483
q84 0 124 -41t40 -104q0 -52 -35 -88.5t-91 -36.5q-59 0 -95 33t-36 85q0 66 42 98h-249q77 -41 120.5 -116t43.5 -166q0 -99 -46 -159t-120 -60q-62 0 -97 30.5t-38 77.5zM750 404q0 -34 17.5 -55t50.5 -21q31 0 49 21.5t18 52.5q0 34 -17.5 57t-50.5 23q-32 0 -49.5 -23.5
t-17.5 -54.5z" />
    <glyph glyph-name="tlCHAA" horiz-adv-x="966" 
d="M345 99q-6 -46 -44 -77t-94 -31q-73 0 -117.5 40t-44.5 106q0 84 67 125h-98v54h211v-54q-57 -1 -87.5 -36t-30.5 -85q0 -45 27 -71.5t73 -26.5q48 0 77.5 34t29.5 88v44h61v-44q0 -54 27 -88t74 -34q50 0 79.5 44.5t29.5 112.5q0 123 -80.5 207.5t-205.5 84.5v54h483
q84 0 124 -41t40 -104q0 -52 -35 -88.5t-91 -36.5q-59 0 -95 33t-36 85q0 66 42 98h-249q77 -41 120.5 -116t43.5 -166q0 -99 -46 -159t-120 -60q-62 0 -97 30.5t-38 77.5zM385 -172h-83v14l24 162h34l25 -162v-14zM750 404q0 -34 17.5 -55t50.5 -21q31 0 49 21.5t18 52.5
q0 34 -17.5 57t-50.5 23q-32 0 -49.5 -23.5t-17.5 -54.5z" />
    <glyph glyph-name="tlJAA" horiz-adv-x="934" 
d="M346 99q-26 -108 -156 -108q-69 0 -112 38.5t-43 102.5q0 45 23.5 80.5t56.5 59.5t66 45.5t56.5 47.5t23.5 57q0 37 -19 59.5t-53 22.5q-33 0 -54.5 -22t-21.5 -62q0 -17 5 -40h-60q-6 22 -6 44q0 58 37 95.5t100 37.5q39 0 69 -19t50.5 -46.5t41 -54.5t51 -46t68.5 -19
q27 0 46 16.5t19 41.5q0 62 -87 62v54h303q84 0 124 -41t40 -104q0 -52 -35 -88.5t-91 -36.5q-59 0 -95 33t-36 85q0 66 42 98h-131q24 -26 24 -65q0 -45 -33.5 -76t-88.5 -31q-96 0 -154 78q-7 -35 -32 -64.5t-55.5 -50t-60.5 -41.5t-50 -49t-20 -61q0 -40 26 -64.5
t70 -24.5q53 0 87 33.5t34 88.5v43h62v-43q0 -52 30 -87t77 -35q45 0 69 29t24 76q0 48 -23 100h63q20 -49 20 -101q0 -67 -41 -111.5t-109 -44.5q-58 0 -96 28t-45 80zM717 404q0 -34 18 -55t50 -21t50 21.5t18 52.5q0 34 -18 57t-50 23t-50 -23.5t-18 -54.5z" />
    <glyph glyph-name="tlJHAA" horiz-adv-x="1515" 
d="M1495 401q0 -52 -35 -88.5t-91 -36.5q-59 0 -95 33t-36 85q0 66 42 98h-182q49 -39 75.5 -100t26.5 -130q0 -136 -55 -203.5t-144 -67.5q-122 0 -167 122q-49 -122 -175 -122q-62 0 -105.5 36t-64.5 102q-28 -66 -83 -102t-126 -36q-106 0 -171.5 76t-65.5 204
q0 103 46 173.5t124 92.5l-86 105h78l76 -96l161 211h73l-169 -220q78 -21 124 -91t46 -174v-2q0 -108 39 -167.5t104 -59.5q58 0 97.5 55.5t39.5 157.5q0 101 -57 168.5t-146 67.5v55q121 0 193 -83.5t72 -201.5v-1q0 -108 38.5 -163t104.5 -55q58 0 97.5 56t39.5 157
t-57.5 168.5t-146.5 67.5v55q17 0 25 -1h372q84 0 124 -41t40 -104zM1299 404q0 -34 17.5 -55t50.5 -21q31 0 49 21.5t18 52.5q0 34 -17.5 57t-49.5 23q-33 0 -50.5 -23.5t-17.5 -54.5zM106 271q0 -103 49 -165.5t125 -62.5q75 0 124.5 62.5t49.5 164.5q0 101 -49 162.5
t-125 61.5t-125 -61.5t-49 -161.5zM877 -186h-87v14l30 176h27l30 -176v-14z" />
    <glyph glyph-name="tlNYAA" horiz-adv-x="1134" 
d="M482 -48h-60q0 50 -9 91q-68 -52 -153 -52q-75 0 -122 33t-47 95q0 57 47.5 94.5t115.5 37.5q118 0 181 -107q64 90 64 204q0 67 -24 111t-72 44q-44 0 -66.5 -32t-22.5 -84v-35h-62v37q0 48 -25 81t-68 33t-65.5 -30t-22.5 -75q0 -36 12 -72h-62q-11 32 -11 73
q0 66 39.5 111.5t105.5 45.5q55 0 88.5 -31t39.5 -80q5 49 39 80t86 31q68 0 106 -51t44 -131h87v118h-73v54h378q84 0 124 -41t40 -104q0 -52 -35 -88.5t-91 -36.5q-59 0 -95 33t-36 85q0 66 41 98h-189v-118h86v-54h-237q-10 -134 -97 -233q21 -60 21 -135zM260 43
q75 0 136 56q-43 99 -141 99q-44 0 -72.5 -22.5t-28.5 -59.5q0 -35 27.5 -54t78.5 -19zM917 404q0 -34 18 -55t50 -21t50 21.5t18 52.5q0 34 -17.5 57t-50.5 23q-32 0 -50 -23.5t-18 -54.5z" />
    <glyph glyph-name="tlTTAA" horiz-adv-x="1052" 
d="M381 105q-29 -114 -147 -114q-85 0 -138 74t-53 200q0 112 45 194.5t120 93.5l-2 92h63l-2 -95q46 -12 74 -48.5t28 -83.5q0 -58 -39.5 -99.5t-98.5 -41.5q-45 0 -77.5 23t-45.5 64q-10 -53 -10 -88q0 -107 36.5 -170t100.5 -63q55 0 85.5 35t30.5 91v34h61v-33
q0 -55 29.5 -91t83.5 -36q62 0 95.5 59t33.5 167q0 104 -44.5 162.5t-123.5 58.5q-21 0 -40 -4v56q19 4 45 4l377 1q84 0 124 -41t40 -104q0 -52 -35 -88.5t-91 -36.5q-59 0 -95 33t-36 85q0 66 42 98l-180 -1q80 -74 80 -222q0 -131 -49.5 -205t-140.5 -74q-59 0 -98 31.5
t-48 82.5zM140 413q0 -36 24 -60.5t63 -24.5q36 0 57.5 25.5t21.5 63.5q0 37 -22.5 61.5t-59.5 24.5q-35 0 -59.5 -26.5t-24.5 -63.5zM835 404q0 -33 18 -54t50 -21q31 0 49.5 21.5t18.5 52.5q0 34 -18 57t-50 23t-50 -24t-18 -55z" />
    <glyph glyph-name="tlTTHAA" horiz-adv-x="871" 
d="M547 272q0 -129 -66 -205t-171 -76q-106 0 -172 76t-66 204q0 151 94 221h-123v54h644q84 0 124 -41t40 -104q0 -52 -34.5 -88.5t-91.5 -36.5q-59 0 -94.5 33t-35.5 85q0 67 41 98h-183q94 -71 94 -220zM135 271q0 -103 49.5 -165.5t125.5 -62.5q75 0 124 62.5t49 164.5
q0 95 -43.5 154.5t-112.5 67.5h-36q-69 -8 -112.5 -67.5t-43.5 -153.5zM362 269q0 -23 -15 -37.5t-37 -14.5t-37 15t-15 37t15 37t37 15t37 -14.5t15 -37.5zM655 404q0 -34 17.5 -55t49.5 -21t50 21t18 53q0 34 -17.5 57t-50.5 23q-32 0 -49.5 -23.5t-17.5 -54.5z" />
    <glyph glyph-name="tlDDAA" horiz-adv-x="989" 
d="M368 101q-6 -48 -41.5 -79t-91.5 -31q-83 0 -132.5 56.5t-49.5 158.5q0 84 40 161.5t113 124.5h-166v54h766q84 0 123.5 -41t39.5 -104q0 -52 -35 -88.5t-90 -36.5q-59 0 -95.5 33t-36.5 85q0 66 42 98h-152v-56q-99 55 -215 55q-122 0 -196 -89.5t-74 -197.5
q0 -77 32.5 -119t86.5 -42q47 0 73.5 33.5t26.5 88.5v44h61v-34q0 -59 35 -98t95 -39q44 0 76 28.5t44 72.5q-27 -30 -72 -30q-51 0 -84 33t-33 82q0 51 34 88.5t88 37.5q58 0 92.5 -44t34.5 -106q0 -90 -48.5 -149.5t-131.5 -59.5q-65 0 -108 31.5t-51 78.5zM515 226
q0 -29 18 -48.5t49 -19.5q30 0 49 21.5t19 49.5q0 29 -18 50t-50 21t-49.5 -21.5t-17.5 -52.5zM773 404q0 -34 17.5 -55t50.5 -21q31 0 49.5 21.5t18.5 52.5q0 34 -18 57t-50 23q-33 0 -50.5 -23.5t-17.5 -54.5z" />
    <glyph glyph-name="tlDDHAA" horiz-adv-x="989" 
d="M368 101q-6 -48 -41.5 -79t-91.5 -31q-83 0 -132.5 56.5t-49.5 158.5q0 84 40 161.5t113 124.5h-166v54h766q84 0 123.5 -41t39.5 -104q0 -52 -35 -88.5t-90 -36.5q-59 0 -95.5 33t-36.5 85q0 66 42 98h-152v-56q-99 55 -215 55q-122 0 -196 -89.5t-74 -197.5
q0 -77 32.5 -119t86.5 -42q47 0 73.5 33.5t26.5 88.5v44h61v-34q0 -59 35 -98t95 -39q44 0 76 28.5t44 72.5q-27 -30 -72 -30q-51 0 -84 33t-33 82q0 51 34 88.5t88 37.5q58 0 92.5 -44t34.5 -106q0 -90 -48.5 -149.5t-131.5 -59.5q-65 0 -108 31.5t-51 78.5zM411 -172h-84
v14l25 162h34l25 -162v-14zM515 226q0 -29 18 -48.5t49 -19.5q30 0 49 21.5t19 49.5q0 29 -18 50t-50 21t-49.5 -21.5t-17.5 -52.5zM773 404q0 -34 17.5 -55t50.5 -21q31 0 49.5 21.5t18.5 52.5q0 34 -18 57t-50 23q-33 0 -50.5 -23.5t-17.5 -54.5z" />
    <glyph glyph-name="tlNNAA" horiz-adv-x="1059" 
d="M402 445q5 28 18 47h-41q17 -20 23 -47zM351 9q-50 -19 -108 -19q-76 0 -123 39.5t-47 108.5q0 57 36.5 92t91.5 41q-52 9 -82 45t-30 91q0 48 32 85h-81v54h836q84 0 123.5 -41t39.5 -104q0 -52 -34.5 -88.5t-91.5 -36.5q-59 0 -94.5 33t-35.5 85q0 66 42 98h-160
q70 -75 70 -234q0 -115 -46.5 -191t-132.5 -76q-62 0 -100.5 40.5t-38.5 95.5q0 59 39 100t99 41q43 0 75.5 -22.5t45.5 -56.5q4 29 4 76q0 93 -36.5 160t-102.5 67q-51 0 -80 -29t-29 -82v-44h-61v43q0 53 -32 82.5t-83 29.5q-47 0 -75.5 -24.5t-28.5 -67.5
q0 -45 28.5 -73.5t75.5 -28.5h32v-54h-32q-51 0 -85.5 -27.5t-34.5 -72.5q0 -49 31.5 -75.5t91.5 -26.5q45 0 92 22v-55zM480 128q0 -35 21 -60t60 -25q36 0 60.5 26.5t24.5 61.5q0 36 -24.5 61t-60.5 25q-38 0 -59.5 -25.5t-21.5 -63.5zM844 404q0 -34 17 -55t50 -21
q32 0 50 21.5t18 52.5q0 34 -17.5 57t-50.5 23t-50 -23.5t-17 -54.5z" />
    <glyph glyph-name="tlTAA" horiz-adv-x="1053" 
d="M89 272q0 -30 17 -48t50 -18q32 0 51 18.5t19 48.5q0 33 -18.5 53t-49.5 20t-50 -20.5t-19 -53.5zM664 252q0 -109 -84 -185t-233 -76q-150 0 -233.5 76t-83.5 185q0 64 37.5 104.5t98.5 40.5q52 0 87.5 -34.5t35.5 -85.5q0 -53 -35 -87.5t-87 -34.5q-42 0 -68 20
q25 -60 90.5 -96t157.5 -36t157 35.5t90 96.5q-26 -20 -66 -20q-53 0 -87.5 34t-34.5 88q0 51 35 85.5t87 34.5q74 0 112 -57q3 17 3 37q0 49 -29.5 79.5t-89.5 35.5h-484v54h809q84 0 124 -41t40 -104q0 -52 -34.5 -88.5t-91.5 -36.5q-59 0 -94.5 33t-35.5 85q0 66 41 98
h-141q43 -43 43 -115q0 -65 -36 -124v-1zM467 273q0 -30 19.5 -48.5t50.5 -18.5q33 0 50.5 18t17.5 48q0 33 -18.5 53.5t-51.5 20.5q-30 0 -49 -20t-19 -53zM817 404q0 -34 17.5 -55t50.5 -21q32 0 49.5 21t17.5 53q0 34 -17.5 57t-50.5 23q-32 0 -49.5 -23.5t-17.5 -54.5z
" />
    <glyph glyph-name="tlTHAA" horiz-adv-x="1003" 
d="M379 104q-15 -113 -135 -113q-83 0 -132.5 60t-49.5 162q0 87 39 160.5t105 118.5h-166v54h779q84 0 124 -41t40 -104q0 -52 -35 -88.5t-91 -36.5q-59 0 -95 33t-36 85q0 66 42 98h-215q67 -45 105 -118t38 -161q0 -101 -49.5 -161.5t-131.5 -60.5q-120 0 -136 113z
M422 -172h-84v14l25 162h34l25 -162v-14zM125 212q0 -77 33.5 -123t88.5 -46q49 0 75 36.5t26 94.5v35h62v-35q0 -58 27 -94.5t77 -36.5q53 0 86 46.5t33 122.5q0 116 -73.5 198t-181.5 82q-106 0 -179.5 -82t-73.5 -198zM427 349q0 -21 -13 -34.5t-34 -13.5q-20 0 -33.5 14
t-13.5 34t13.5 34t33.5 14q21 0 34 -13.5t13 -34.5zM786 404q0 -34 18 -55t50 -21q31 0 49.5 21.5t18.5 52.5q0 34 -18 57t-50 23t-50 -23.5t-18 -54.5z" />
    <glyph glyph-name="tlDAA" horiz-adv-x="1003" 
d="M379 104q-15 -113 -135 -113q-83 0 -132.5 60t-49.5 162q0 87 39 160.5t105 118.5h-166v54h779q84 0 124 -41t40 -104q0 -52 -35 -88.5t-91 -36.5q-59 0 -95 33t-36 85q0 66 42 98h-215q67 -45 105 -118t38 -161q0 -101 -49.5 -161.5t-131.5 -60.5q-120 0 -136 113z
M125 212q0 -77 33.5 -123t88.5 -46q49 0 75 36.5t26 94.5v35h62v-35q0 -58 27 -94.5t77 -36.5q53 0 86 46.5t33 122.5q0 116 -73.5 198t-181.5 82q-106 0 -179.5 -82t-73.5 -198zM786 404q0 -34 18 -55t50 -21q31 0 49.5 21.5t18.5 52.5q0 34 -18 57t-50 23t-50 -23.5
t-18 -54.5z" />
    <glyph glyph-name="tlDHAA" horiz-adv-x="1003" 
d="M379 104q-15 -113 -135 -113q-83 0 -132.5 60t-49.5 162q0 87 39 160.5t105 118.5h-166v54h779q84 0 124 -41t40 -104q0 -52 -35 -88.5t-91 -36.5q-59 0 -95 33t-36 85q0 66 42 98h-215q67 -45 105 -118t38 -161q0 -101 -49.5 -161.5t-131.5 -60.5q-120 0 -136 113z
M422 -172h-84v14l25 162h34l25 -162v-14zM125 212q0 -77 33.5 -123t88.5 -46q49 0 75 36.5t26 94.5v35h62v-35q0 -58 27 -94.5t77 -36.5q53 0 86 46.5t33 122.5q0 116 -73.5 198t-181.5 82q-106 0 -179.5 -82t-73.5 -198zM786 404q0 -34 18 -55t50 -21q31 0 49.5 21.5
t18.5 52.5q0 34 -18 57t-50 23t-50 -23.5t-18 -54.5z" />
    <glyph glyph-name="tlNAA" horiz-adv-x="982" 
d="M236 1q-21 -10 -56 -10q-60 0 -100 45.5t-40 117.5q0 76 43.5 123t116.5 47q45 0 79 -21t53.5 -52t38 -67.5t33 -67.5t38.5 -52t55 -21q47 0 73.5 45t26.5 125q0 122 -68.5 200.5t-191.5 78.5h-297v54h758q84 0 124 -41t40 -104q0 -52 -35 -88.5t-91 -36.5q-59 0 -95 33
t-36 85q0 66 42 98h-229q69 -37 105 -108t36 -159q0 -111 -44 -172.5t-124 -61.5q-48 0 -83 29t-56.5 70t-40.5 82t-46.5 70t-63.5 29q-45 0 -72 -30.5t-27 -83.5t23 -83.5t63 -30.5q27 0 48 7v-49zM765 404q0 -34 18 -55t50 -21t50 21.5t18 52.5q0 34 -18 57t-50 23
t-50 -23.5t-18 -54.5z" />
    <glyph glyph-name="tlPAA" horiz-adv-x="1005" 
d="M99 131q0 -40 22.5 -65.5t62.5 -25.5q39 0 62.5 26t23.5 65q0 38 -23.5 64t-64.5 26q-37 0 -60 -26t-23 -64zM985 401q0 -52 -35 -88.5t-90 -36.5q-59 0 -95.5 33t-36.5 85q0 66 42 98h-136q28 -90 28 -194q0 -153 -51.5 -230t-140.5 -77q-51 0 -91 29.5t-64 78.5
q-10 -49 -45.5 -79t-86.5 -30q-64 0 -103.5 38.5t-39.5 101.5q0 60 41.5 100.5t99.5 40.5q46 0 82 -23.5t58 -57t42 -67t46.5 -57t59.5 -23.5q61 0 95.5 65t34.5 190q0 104 -33 194h-526v54h502q-73 131 -206 131q-28 0 -54 -7v52q27 8 61 8q190 0 271 -184h208
q84 0 123.5 -41t39.5 -104zM789 404q0 -34 17.5 -55t50.5 -21q31 0 49.5 21.5t18.5 52.5q0 34 -18 57t-50 23t-50 -23.5t-18 -54.5z" />
    <glyph glyph-name="tlPHAA" horiz-adv-x="1005" 
d="M360 -172h-84v14l25 162h34l25 -162v-14zM99 131q0 -40 22.5 -65.5t62.5 -25.5q39 0 62.5 26t23.5 65q0 38 -23.5 64t-64.5 26q-37 0 -60 -26t-23 -64zM985 401q0 -52 -35 -88.5t-90 -36.5q-59 0 -95.5 33t-36.5 85q0 66 42 98h-136q28 -90 28 -194q0 -153 -51.5 -230
t-140.5 -77q-51 0 -91 29.5t-64 78.5q-10 -49 -45.5 -79t-86.5 -30q-64 0 -103.5 38.5t-39.5 101.5q0 60 41.5 100.5t99.5 40.5q46 0 82 -23.5t58 -57t42 -67t46.5 -57t59.5 -23.5q61 0 95.5 65t34.5 190q0 104 -33 194h-526v54h502q-73 131 -206 131q-28 0 -54 -7v52
q27 8 61 8q190 0 271 -184h208q84 0 123.5 -41t39.5 -104zM789 404q0 -34 17.5 -55t50.5 -21q31 0 49.5 21.5t18.5 52.5q0 34 -18 57t-50 23t-50 -23.5t-18 -54.5z" />
    <glyph glyph-name="tlBAA" horiz-adv-x="999" 
d="M346 99q-13 -52 -52.5 -80t-100.5 -28q-70 0 -114 39t-44 102q0 38 16.5 69.5t41.5 51.5t54.5 41t54.5 37.5t41.5 40t16.5 50.5q0 38 -18.5 60t-52.5 22t-55 -21.5t-21 -62.5q0 -16 5 -41h-60q-6 23 -6 44q0 59 37 96.5t100 37.5q62 0 97.5 -39.5t35.5 -94.5
q0 -41 -23 -74t-56 -56t-66 -45t-56 -51.5t-23 -64.5q0 -41 26 -65t73 -24q53 0 85.5 34.5t32.5 87.5v44h62v-44q0 -54 28.5 -88t77.5 -34q60 0 90.5 60t30.5 153q0 107 -43.5 171.5t-124.5 64.5h-32v54h411q84 0 124 -41t40 -104q0 -52 -35 -88.5t-91 -36.5
q-59 0 -95.5 33.5t-36.5 84.5q0 66 42 98h-182q85 -73 85 -238q0 -122 -48.5 -192.5t-133.5 -70.5q-57 0 -93.5 28t-44.5 80zM782 404q0 -34 18 -55t50 -21t50 21.5t18 52.5q0 34 -18 57t-50 23t-50 -23.5t-18 -54.5z" />
    <glyph glyph-name="tlBHAA" horiz-adv-x="999" 
d="M346 99q-13 -52 -52.5 -80t-100.5 -28q-70 0 -114 39t-44 102q0 38 16.5 69.5t41.5 51.5t54.5 41t54.5 37.5t41.5 40t16.5 50.5q0 38 -18.5 60t-52.5 22t-55 -21.5t-21 -62.5q0 -16 5 -41h-60q-6 23 -6 44q0 59 37 96.5t100 37.5q62 0 97.5 -39.5t35.5 -94.5
q0 -41 -23 -74t-56 -56t-66 -45t-56 -51.5t-23 -64.5q0 -41 26 -65t73 -24q53 0 85.5 34.5t32.5 87.5v44h62v-44q0 -54 28.5 -88t77.5 -34q60 0 90.5 60t30.5 153q0 100 -46.5 168t-121.5 68h-32v54h411q84 0 124 -41t40 -104q0 -52 -35 -88.5t-91 -36.5q-59 0 -95.5 33.5
t-36.5 84.5q0 66 42 98h-189q92 -78 92 -238q0 -122 -48.5 -192.5t-133.5 -70.5q-57 0 -93.5 28t-44.5 80zM384 -172h-83v14l24 162h34l25 -162v-14zM782 404q0 -34 18 -55t50 -21t50 21.5t18 52.5q0 34 -18 57t-50 23t-50 -23.5t-18 -54.5z" />
    <glyph glyph-name="tlMAA" horiz-adv-x="1296" 
d="M1276 401q0 -52 -34.5 -88.5t-91.5 -36.5q-59 0 -94.5 33t-35.5 85q0 66 41 98h-190q50 -39 77 -100t27 -131q0 -132 -59 -201.5t-150 -69.5q-120 0 -159 93q-46 -92 -150 -92q-107 0 -162 109q-9 -49 -45 -79.5t-87 -30.5q-64 0 -103.5 38.5t-39.5 101.5
q0 60 41.5 100.5t99.5 40.5q46 0 82 -23.5t59 -57t43.5 -67t48.5 -57t63 -23.5q52 0 82.5 43.5t30.5 116.5q0 123 -88.5 206.5t-237.5 83.5h-11l-120 149h76l76 -96l161 211h74l-172 -225q125 -8 214.5 -101.5t89.5 -221.5q0 -77 36 -122t95 -45q62 0 106 56t44 157
t-57.5 168.5t-146.5 67.5v55h403q84 0 124 -41t40 -104zM1080 404q0 -34 17.5 -55t50.5 -21q32 0 49.5 21t17.5 53q0 34 -17.5 57t-50.5 23q-32 0 -49.5 -23.5t-17.5 -54.5zM79 131q0 -40 22.5 -65.5t62.5 -25.5q39 0 62.5 26t23.5 65q0 38 -23.5 64t-64.5 26q-37 0 -60 -26
t-23 -64z" />
    <glyph glyph-name="tlYAA" horiz-adv-x="1515" 
d="M1495 401q0 -52 -35 -88.5t-91 -36.5q-59 0 -95 33t-36 85q0 66 42 98h-182q49 -39 75.5 -100t26.5 -130q0 -136 -55 -203.5t-144 -67.5q-121 0 -167 121q-49 -121 -175 -121q-62 0 -105.5 36t-64.5 102q-29 -66 -83.5 -102t-125.5 -36q-106 0 -171.5 76t-65.5 204
q0 125 66 200t171 75t170.5 -74.5t65.5 -199.5v-2q0 -108 39 -167.5t104 -59.5q58 0 97.5 56t39.5 157t-57.5 169t-146.5 68l-120 149h77l75 -96l161 211h74l-182 -238q85 -25 133 -95t48 -163q0 -108 38.5 -163t104.5 -55q58 0 97.5 56t39.5 157t-57.5 168.5t-146.5 67.5
v55q17 0 25 -1h372q84 0 124 -41t40 -104zM1299 404q0 -34 17.5 -55t50.5 -21q31 0 49 21.5t18 52.5q0 34 -17.5 57t-49.5 23q-33 0 -50.5 -23.5t-17.5 -54.5zM106 271q0 -103 49 -165.5t125 -62.5q75 0 124.5 62.5t49.5 164.5q0 101 -49 162.5t-125 61.5t-125 -61.5
t-49 -161.5z" />
    <glyph glyph-name="tlRAA" horiz-adv-x="876" 
d="M555 272q0 -129 -65.5 -205t-171.5 -76t-172 76t-66 204q0 146 88 221h-125v54h649q84 0 124 -41t40 -104q0 -52 -35 -88.5t-91 -36.5q-59 0 -95 33t-36 85q0 66 42 98h-173q87 -76 87 -220zM144 271q0 -103 49 -165.5t125 -62.5q75 0 124 62t49 165q0 95 -43 154.5
t-112 67.5h-36q-70 -8 -113 -67.5t-43 -153.5zM660 404q0 -34 17.5 -55t49.5 -21t50 21.5t18 52.5q0 34 -17.5 57t-50.5 23q-32 0 -49.5 -23.5t-17.5 -54.5z" />
    <glyph glyph-name="tlLAA" horiz-adv-x="988" 
d="M657 296q0 -132 -85.5 -219t-220.5 -87q-141 0 -224.5 88.5t-83.5 236.5q0 103 47 172t127 69q64 0 101.5 -41.5t37.5 -100.5q0 -60 -40 -98.5t-97 -38.5q-45 0 -77 20t-45 57q-1 -8 -1 -26q0 -131 68 -208t189 -77q109 0 175 71.5t66 185.5q0 83 -44 134.5t-114 56.5v55
h369q84 0 123.5 -41t39.5 -104q0 -52 -35 -88.5t-91 -36.5q-59 0 -95 33t-36 85q0 66 42 98h-184q88 -64 88 -196zM129 416q0 -42 24 -64.5t63 -22.5q34 0 56.5 23t22.5 62q0 37 -21.5 63t-60.5 26t-61.5 -26.5t-22.5 -60.5zM772 404q0 -34 17.5 -55t50.5 -21
q31 0 49.5 21.5t18.5 52.5q0 34 -18 57t-50 23q-33 0 -50.5 -23.5t-17.5 -54.5z" />
    <glyph glyph-name="tlVAA" horiz-adv-x="939" 
d="M79 131q0 -40 22.5 -65.5t62.5 -25.5q39 0 62.5 26t23.5 65q0 38 -23.5 64t-64.5 26q-37 0 -60 -26t-23 -64zM919 401q0 -52 -35 -88.5t-91 -36.5q-59 0 -95 33t-36 85q0 66 42 98h-237q75 -41 120 -116t45 -170q0 -102 -47.5 -158.5t-127.5 -56.5q-107 0 -162 109
q-9 -49 -45 -79.5t-87 -30.5q-64 0 -103.5 38.5t-39.5 101.5q0 60 41.5 100.5t99.5 40.5q46 0 82 -23.5t59 -57t43.5 -67t48.5 -57t63 -23.5q52 0 82.5 43.5t30.5 116.5q0 124 -88 206.5t-238 82.5h-224v54h736q84 0 123.5 -41t39.5 -104zM723 404q0 -34 17.5 -55t50.5 -21
q31 0 49.5 21.5t18.5 52.5q0 34 -18 57t-50 23q-33 0 -50.5 -23.5t-17.5 -54.5z" />
    <glyph glyph-name="tlSHAA" horiz-adv-x="836" 
d="M502 157q0 -73 -46.5 -119.5t-117.5 -46.5q-65 0 -106 36.5t-41 96.5q0 25 8.5 47t18.5 36.5t31.5 30t34 23t40 21.5t37.5 19q-44 30 -102 30q-80 0 -129.5 -48.5t-49.5 -121.5q0 -22 4 -39h-60q-4 20 -4 43q0 93 68.5 153.5t168.5 60.5q85 0 151 -46q33 28 33 68
q0 43 -38 67t-107 24h-272v54h627q85 0 125 -41t40 -104q0 -52 -35 -88.5t-91 -36.5q-59 0 -95 33t-36 85q0 66 42 98h-143q42 -36 42 -89q0 -63 -52 -107q54 -60 54 -139zM341 39q46 0 74 32.5t28 84.5q0 60 -41 109q-13 -8 -41.5 -22.5t-43 -24t-33 -24t-26.5 -31.5
t-8 -38q0 -40 24 -63t67 -23zM619 404q0 -34 18 -55t50 -21t49.5 21t17.5 53q0 34 -17 57t-50 23q-32 0 -50 -23.5t-18 -54.5z" />
    <glyph glyph-name="tlSSAA" horiz-adv-x="1005" 
d="M621 -153h-79q-15 32 -15 75q0 47 19 86q-36 -17 -76 -17q-51 0 -91 29.5t-64 78.5q-10 -49 -45.5 -79t-86.5 -30q-64 0 -103.5 38.5t-39.5 101.5q0 60 41.5 100.5t99.5 40.5q46 0 82 -23.5t58 -57t42 -67t46.5 -57t59.5 -23.5q61 0 95.5 65t34.5 190q0 104 -33 194h-526
v54h502q-73 131 -206 131q-28 0 -54 -7v52q27 8 61 8q190 0 271 -184h208q84 0 123.5 -41t39.5 -104q0 -52 -35 -88.5t-90 -36.5q-59 0 -95.5 33t-36.5 85q0 66 42 98h-136q28 -90 28 -194q0 -125 -36 -202q-35 -78 -35 -143q0 -59 30 -106zM99 131q0 -40 22.5 -65.5
t62.5 -25.5q39 0 62.5 26t23.5 65q0 38 -23.5 64t-64.5 26q-37 0 -60 -26t-23 -64zM789 404q0 -34 17.5 -55t50.5 -21q31 0 49.5 21.5t18.5 52.5q0 34 -18 57t-50 23t-50 -23.5t-18 -54.5z" />
    <glyph glyph-name="tlSAA" horiz-adv-x="1011" 
d="M236 1q-21 -10 -56 -10q-60 0 -100 45.5t-40 117.5q0 76 43.5 123t116.5 47q52 0 89.5 -29t58.5 -70t40 -82.5t45.5 -70.5t62.5 -29q49 0 76.5 64.5t27.5 190.5q0 104 -33 194h-527v54h503q-73 131 -206 131q-28 0 -54 -7v52q27 8 61 8q190 0 271 -184h212q84 0 124 -41
t40 -104q0 -52 -35 -88.5t-91 -36.5q-59 0 -95 33t-36 85q0 66 42 98h-141q28 -90 28 -194q0 -151 -44 -229t-123 -78q-51 0 -88.5 29t-58.5 70t-40 82t-45.5 70t-62.5 29q-45 0 -72 -30.5t-27 -83.5t23 -83.5t63 -30.5q27 0 48 7v-49zM794 404q0 -34 18 -55t50 -21t50 21.5
t18 52.5q0 34 -17.5 57t-50.5 23q-32 0 -50 -23.5t-18 -54.5z" />
    <glyph glyph-name="tlHAA" horiz-adv-x="951" 
d="M822 543l-7 -1q59 -11 87.5 -49.5t28.5 -91.5q0 -52 -35 -88.5t-91 -36.5q-59 0 -95 33t-36 85q0 66 41 98h-227q66 -32 103 -97.5t37 -153.5q0 -115 -50.5 -182.5t-136.5 -67.5q-102 0 -155 109q-10 -50 -45.5 -80t-87.5 -30q-64 0 -103.5 38.5t-39.5 101.5
q0 60 41.5 100.5t100.5 40.5q46 0 82 -23.5t58 -57t42.5 -67t47 -57t59.5 -23.5q57 0 90.5 55t33.5 143q0 113 -72.5 182t-205.5 69v54h466q-51 31 -51 86q0 36 23.5 59t68.5 23h84v-53h-67q-49 0 -49 -46q0 -49 60 -72zM70 131q0 -40 22 -65.5t62 -25.5t63 25.5t23 65.5
q0 39 -23 64.5t-65 25.5q-36 0 -59 -26t-23 -64zM185 493h-64l-121 149h77l76 -96l161 211h73zM734 404q0 -34 18 -55t50 -21t50 21.5t18 52.5q0 34 -17.5 57t-50.5 23q-32 0 -50 -23.5t-18 -54.5z" />
    <glyph glyph-name="tlRRAA" horiz-adv-x="1104" 
d="M419 101q-29 -110 -147 -110q-93 0 -148 71.5t-55 200.5q0 147 74 229h-100v54h878q84 0 123.5 -41t39.5 -104q0 -52 -35 -88.5t-90 -36.5q-59 0 -95.5 33t-36.5 85q0 66 42 98h-148q59 -67 59 -206q0 -131 -55.5 -213t-150.5 -82q-59 0 -102.5 30t-52.5 80zM166 402
q0 -36 24 -60t63 -24q36 0 58 25.5t22 61.5q0 38 -22.5 62.5t-60.5 24.5q-35 0 -59.5 -26.5t-24.5 -63.5zM622 262h-183v54h92q-59 34 -59 108q0 39 21 68h-127q29 -39 29 -86q0 -58 -39.5 -99.5t-98.5 -41.5q-44 0 -77 24t-46 64q-9 -56 -9 -87q0 -97 40.5 -160t109.5 -63
q49 0 81 33.5t32 88.5v34h62v-34q0 -54 34.5 -88t89.5 -34q64 0 103.5 69t39.5 177q0 97 -29.5 150t-81.5 53q-36 0 -56.5 -19t-20.5 -56t24.5 -66t68.5 -35v-54zM888 404q0 -34 17.5 -55t50.5 -21q31 0 49.5 21.5t18.5 52.5q0 34 -18 57t-50 23t-50 -23.5t-18 -54.5z" />
    <glyph glyph-name="tlLLAA" horiz-adv-x="923" 
d="M467 110q0 -54 -40 -86.5t-106 -32.5q-65 0 -103.5 33t-38.5 84q0 41 24.5 72t67.5 47q-10 4 -52 20t-64 25q-115 51 -115 138q0 50 35 84t94 34q58 0 93 -34t35 -83q0 -42 -28.5 -70.5t-70.5 -38.5q135 -50 142 -53q76 20 119 53.5t43 90.5q0 41 -33 70t-93 29v54h363
q84 0 124 -41t40 -103q0 -53 -35 -89.5t-91 -36.5q-59 0 -95 34t-36 88q0 64 42 94h-175q50 -35 50 -101q0 -62 -42.5 -107.5t-120.5 -65.5q67 -45 67 -108zM321 40q39 0 62 19.5t23 52.5q0 50 -75 89q-45 -10 -69 -34.5t-24 -56.5q0 -30 21.5 -50t61.5 -20zM97 407
q0 -29 20.5 -48t50.5 -19q27 0 48 19t21 50q0 30 -19.5 49.5t-50.5 19.5q-32 0 -51 -20t-19 -51zM706 404q0 -34 18 -55t50 -21t50 21.5t18 52.5q0 34 -17.5 57t-50.5 23q-32 0 -50 -23.5t-18 -54.5z" />
    <glyph glyph-name="tlLLLAA" horiz-adv-x="1072" 
d="M402 99q-8 -51 -47 -79.5t-99 -28.5q-106 0 -156 78t-50 211q0 135 70 212h-77v54h846q84 0 123.5 -41t39.5 -104q0 -52 -35 -88.5t-90 -36.5q-59 0 -95.5 33t-36.5 85q0 66 42 98h-154q71 -78 71 -224q0 -277 -207 -277q-59 0 -98 28.5t-47 79.5zM547 43
q75 0 111.5 60.5t36.5 162.5q0 29 -9 81q-14 -38 -45.5 -60t-75.5 -22q-59 0 -98.5 40t-39.5 99q0 49 29 88h-109q29 -37 29 -88q0 -60 -39 -99.5t-99 -39.5q-44 0 -75.5 22t-45.5 61q-8 -48 -8 -82q0 -102 36 -162.5t111 -60.5q52 0 83.5 33.5t31.5 88.5v36h61v-36
q0 -55 31.5 -88.5t83.5 -33.5zM148 402q0 -36 23 -60t62 -24q37 0 59 24.5t22 61.5q0 38 -22 63t-60 25q-36 0 -60 -26.5t-24 -63.5zM490 404q0 -37 22 -61.5t59 -24.5q39 0 62 24t23 60q0 37 -24.5 63.5t-59.5 26.5q-38 0 -60 -25t-22 -63zM856 404q0 -34 17.5 -55
t50.5 -21q31 0 49.5 21.5t18.5 52.5q0 34 -18 57t-50 23t-50 -23.5t-18 -54.5z" />
    <glyph glyph-name="tlKI" horiz-adv-x="403" 
d="M351 149q0 -67 -50 -110t-126 -43q-87 0 -154 35v59q79 -42 152 -42q56 0 85 27.5t29 72.5q0 39 -27.5 63.5t-66.5 38t-77.5 28.5t-66 46t-27.5 80q0 63 52 103q-17 5 -35 15v53q60 -28 122 -28q70 0 107.5 39t37.5 102q-30 -42 -95 -42q-45 0 -81 29t-36 74
q0 46 31.5 77t86.5 31q69 0 110 -47.5t41 -120.5q0 -99 -72 -156q14 -4 21 -7v-56q-53 23 -108 23q-56 0 -88 -24.5t-32 -64.5q0 -34 27.5 -55.5t67 -34.5t78.5 -29.5t66.5 -50.5t27.5 -85zM219 697q30 0 49 15t19 39q0 23 -17.5 39t-49.5 16q-28 0 -46.5 -15.5t-18.5 -38.5
q0 -25 18 -40t46 -15z" />
    <glyph glyph-name="tlKHI" horiz-adv-x="809" 
d="M504 330q0 -144 -88 -241q65 -44 123 -44q55 0 92.5 44t53.5 107.5t16 140.5q0 106 -26 202.5t-69 158.5q-1 -40 -35.5 -65t-81.5 -25q-45 0 -81 29.5t-36 74.5q0 46 33 77t91 31q78 0 140 -68t95 -177.5t33 -236.5q0 -95 -21 -170t-73 -126t-130 -51q-84 0 -165 60
q-77 -60 -178 -60q-82 0 -129.5 33.5t-47.5 93.5q0 49 37.5 83t93.5 34q15 0 28.5 -1.5t28 -6.5t25 -8.5t25.5 -13t22.5 -13.5t24 -16.5t21.5 -16t23 -18t21 -17.5q73 84 73 207q0 76 -36 124t-91 48q-36 0 -56 -17.5t-20 -44.5t18.5 -42.5t51.5 -15.5q31 0 73 16v-51
q-37 -18 -88 -18q-50 0 -83.5 30.5t-33.5 77.5q0 52 38.5 85t100.5 33q82 0 134.5 -63t52.5 -163zM199 43q73 0 130 43q-4 4 -16.5 14.5t-17.5 14.5t-16 13t-16.5 13t-16 11t-17 10t-16 8t-17.5 7t-17 3.5t-18 1.5q-37 0 -58 -18.5t-21 -47.5q0 -35 32 -54t85 -19zM425 -173
h-83v14l25 163h33l25 -163v-14zM433 715q0 -25 18 -40t46 -15q29 0 48.5 15t19.5 39q0 23 -18 39t-49 16q-28 0 -46.5 -15.5t-18.5 -38.5z" />
    <glyph glyph-name="tlGI" horiz-adv-x="500" 
d="M460 223q0 -121 -29 -223h-65q32 101 32 223q0 117 -37.5 193t-110.5 76t-111.5 -76.5t-38.5 -192.5q0 -122 32 -223h-66q-28 99 -28 223q0 102 30.5 181t88.5 115q-77 18 -77 90q0 52 45 86t113 34q83 0 139 -55.5t56 -139.5q0 -53 -20 -92q47 -86 47 -219zM250 544
q71 0 120 -47q6 21 6 41q0 62 -39.5 100t-100.5 38q-42 0 -69 -19t-27 -49q0 -64 108 -64h2z" />
    <glyph glyph-name="tlGHI" horiz-adv-x="1010" 
d="M324 -173h-82v14l24 162h33l25 -162v-14zM64 131q0 -40 22 -65.5t62 -25.5t63 25.5t23 65.5q0 39 -23 64.5t-65 25.5q-36 0 -59 -26t-23 -64zM965 261q0 -132 -59 -201.5t-150 -69.5q-123 0 -161 112q-48 -111 -160 -111q-102 0 -155 109q-10 -50 -45.5 -80t-87.5 -30
q-64 0 -103.5 38.5t-39.5 101.5q0 60 41.5 100.5t100.5 40.5q46 0 82 -23.5t58 -57t42.5 -67t47 -57t59.5 -23.5q58 0 91 56.5t33 151.5q0 104 -55 174.5t-148 70.5q-10 0 -30 -2v52q14 3 28 3q128 0 198 -81t70 -217v-2q0 -96 33.5 -151.5t97.5 -55.5q62 0 106 56t44 157
t-57.5 168.5t-146.5 67.5v55q121 0 193.5 -83.5t72.5 -201.5zM180 672q30 0 49 15t19 39q0 23 -17.5 39t-49.5 16q-28 0 -46.5 -15.5t-18.5 -38.5q0 -25 18 -40t46 -15zM0 550q60 -28 122 -28q70 0 107.5 39t37.5 102q-30 -42 -95 -42q-45 0 -81 29t-36 74q0 46 31.5 77
t86.5 31q69 0 110 -47.5t41 -120.5q0 -81 -53 -139t-142 -58q-71 0 -129 30v53z" />
    <glyph glyph-name="tlNGI" horiz-adv-x="698" 
d="M346 99q-12 -52 -52 -80t-101 -28q-70 0 -114 39t-44 102q0 38 16.5 69.5t41.5 51.5t54.5 41t54.5 37.5t41.5 40t16.5 50.5q0 38 -18.5 60t-52.5 22t-55 -21.5t-21 -62.5q0 -16 5 -41h-60q-6 23 -6 44q0 59 37 96.5t100 37.5q62 0 97.5 -39.5t35.5 -94.5h105v71
q-33 3 -63 12v53q41 -11 80 -11q70 0 107.5 39t37.5 102q-30 -42 -95 -42q-45 0 -81 29t-36 74q0 46 31.5 77t86.5 31q69 0 110 -47.5t41 -120.5q0 -70 -42 -125t-113 -68v-74h149v-55h-330q-15 -32 -52.5 -63t-71.5 -51t-61 -52.5t-27 -69.5q0 -41 26 -65t73 -24
q53 0 85.5 34.5t32.5 87.5v44h62v-44q0 -55 29.5 -88.5t81.5 -33.5q47 0 75.5 29.5t28.5 76.5t-29.5 74.5t-76.5 27.5q-14 0 -29 -3v57q15 3 32 3q73 0 118.5 -44.5t45.5 -114.5q0 -67 -45 -112.5t-119 -45.5q-61 0 -98 28t-45 80zM502 698q30 0 49 15t19 39q0 23 -17.5 39
t-49.5 16q-28 0 -46.5 -15.5t-18.5 -38.5q0 -25 18 -40t46 -15z" />
    <glyph glyph-name="tlCI" horiz-adv-x="686" 
d="M225 262q-57 -1 -87.5 -36t-30.5 -85q0 -45 27 -71.5t73 -26.5q48 0 77.5 34t29.5 88v44h61v-44q0 -54 27 -88t74 -34q52 0 79.5 53t27.5 153q0 107 -44 205.5t-114 140.5q12 -19 12 -42q0 -39 -30 -66t-84 -27q-49 0 -85 30t-36 78q0 44 33.5 74.5t90.5 30.5
q89 0 163.5 -60t115.5 -157t41 -207q0 -124 -45 -191t-121 -67q-62 0 -97 30.5t-38 77.5q-6 -46 -44 -77t-94 -31q-73 0 -117.5 40t-44.5 106q0 84 67 125h-98v54h211v-54zM327 513q30 0 49 14.5t19 38.5q0 23 -18 39t-49 16q-29 0 -47.5 -14t-18.5 -40q0 -27 18 -40.5
t47 -13.5z" />
    </font>
</defs>
</svg>
